G04 #@! TF.FileFunction,Soldermask,Top*
%FSLAX46Y46*%
G04 Gerber Fmt 4.6, Leading zero omitted, Abs format (unit mm)*
G04 Created by KiCad (PCBNEW 4.0.4-stable) date 10/29/17 10:31:43*
%MOMM*%
%LPD*%
G01*
G04 APERTURE LIST*
%ADD10C,0.100000*%
%ADD11C,3.000000*%
%ADD12R,0.800000X0.750000*%
%ADD13R,0.750000X0.800000*%
%ADD14R,0.797560X0.797560*%
%ADD15R,1.803400X1.600200*%
%ADD16R,1.143000X0.635000*%
%ADD17C,1.150000*%
%ADD18C,1.550000*%
%ADD19R,1.727200X2.032000*%
%ADD20O,1.727200X2.032000*%
%ADD21R,0.599440X1.000760*%
%ADD22R,0.900000X0.500000*%
%ADD23R,0.500000X0.900000*%
%ADD24R,2.032000X2.032000*%
%ADD25O,2.032000X2.032000*%
%ADD26C,2.032000*%
%ADD27R,1.600000X2.000000*%
%ADD28R,1.000760X0.599440*%
%ADD29R,1.300000X0.250000*%
%ADD30R,0.250000X1.300000*%
%ADD31R,0.650000X1.060000*%
%ADD32R,0.700000X0.250000*%
%ADD33R,0.250000X0.500000*%
%ADD34R,2.400000X0.840000*%
%ADD35C,2.400000*%
%ADD36R,2.037160X1.237160*%
%ADD37R,1.200000X1.500000*%
%ADD38R,2.032000X1.727200*%
%ADD39O,2.032000X1.727200*%
%ADD40R,1.200000X1.700000*%
%ADD41O,1.200000X1.700000*%
%ADD42R,1.050000X1.050000*%
%ADD43C,1.050000*%
G04 APERTURE END LIST*
D10*
D11*
X159590000Y-111000000D03*
X167210000Y-110800000D03*
D12*
X135160000Y-92080000D03*
X133660000Y-92080000D03*
X135200000Y-85230000D03*
X133700000Y-85230000D03*
X143160000Y-99030000D03*
X144660000Y-99030000D03*
X135210000Y-90520000D03*
X133710000Y-90520000D03*
X144250000Y-82450000D03*
X145750000Y-82450000D03*
D13*
X158740000Y-95770000D03*
X158740000Y-94270000D03*
X139270000Y-115970000D03*
X139270000Y-117470000D03*
X122480000Y-89770000D03*
X122480000Y-88270000D03*
D12*
X124420000Y-85970000D03*
X125920000Y-85970000D03*
D13*
X132470000Y-116310000D03*
X132470000Y-117810000D03*
D12*
X142810000Y-82450000D03*
X141310000Y-82450000D03*
D13*
X151240000Y-86140000D03*
X151240000Y-84640000D03*
D12*
X140850000Y-113450000D03*
X139350000Y-113450000D03*
X140850000Y-111950000D03*
X139350000Y-111950000D03*
X141870000Y-104700000D03*
X140370000Y-104700000D03*
D14*
X136560000Y-120490000D03*
X135061400Y-120490000D03*
X133700000Y-78400700D03*
X133700000Y-79899300D03*
X158490000Y-77590700D03*
X158490000Y-79089300D03*
D15*
X160850000Y-92953000D03*
X160850000Y-95747000D03*
D16*
X134990000Y-94942000D03*
X134990000Y-93418000D03*
D10*
G36*
X164942515Y-90268064D02*
X165079324Y-90643941D01*
X163810739Y-91105668D01*
X163673930Y-90729791D01*
X164942515Y-90268064D01*
X164942515Y-90268064D01*
G37*
G36*
X164720202Y-89657264D02*
X164857011Y-90033141D01*
X163588426Y-90494868D01*
X163451617Y-90118991D01*
X164720202Y-89657264D01*
X164720202Y-89657264D01*
G37*
G36*
X164497889Y-89046464D02*
X164634698Y-89422341D01*
X163366113Y-89884068D01*
X163229304Y-89508191D01*
X164497889Y-89046464D01*
X164497889Y-89046464D01*
G37*
G36*
X164275575Y-88435664D02*
X164412384Y-88811541D01*
X163143799Y-89273268D01*
X163006990Y-88897391D01*
X164275575Y-88435664D01*
X164275575Y-88435664D01*
G37*
G36*
X164053262Y-87824863D02*
X164190071Y-88200740D01*
X162921486Y-88662467D01*
X162784677Y-88286590D01*
X164053262Y-87824863D01*
X164053262Y-87824863D01*
G37*
D17*
X164787051Y-91814497D02*
X164787051Y-91814497D01*
X163076950Y-87116034D02*
X163076950Y-87116034D01*
D18*
X167666241Y-91830736D02*
X167666241Y-91830736D01*
X165272100Y-85252887D02*
X165272100Y-85252887D01*
D19*
X152190000Y-66930000D03*
D20*
X149650000Y-66930000D03*
X147110000Y-66930000D03*
X144570000Y-66930000D03*
X142030000Y-66930000D03*
X139490000Y-66930000D03*
X136950000Y-66930000D03*
D21*
X153697714Y-116305678D03*
X152745214Y-118418958D03*
X151792714Y-116305678D03*
D22*
X153690000Y-87390000D03*
X153690000Y-85890000D03*
D23*
X156190000Y-81990000D03*
X154690000Y-81990000D03*
D22*
X129750000Y-75300000D03*
X129750000Y-76800000D03*
D23*
X155130000Y-92280000D03*
X156630000Y-92280000D03*
X153400000Y-114750000D03*
X151900000Y-114750000D03*
D22*
X147950000Y-50020000D03*
X147950000Y-51520000D03*
D24*
X142810000Y-50710000D03*
D25*
X145220000Y-50710000D03*
D10*
G36*
X126883489Y-74392765D02*
X126188504Y-76302220D01*
X124279049Y-75607235D01*
X124974034Y-73697780D01*
X126883489Y-74392765D01*
X126883489Y-74392765D01*
G37*
D26*
X126450000Y-72613181D02*
X126450000Y-72613181D01*
D23*
X126700000Y-70200000D03*
X128200000Y-70200000D03*
D10*
G36*
X163375966Y-73697780D02*
X164070951Y-75607235D01*
X162161496Y-76302220D01*
X161466511Y-74392765D01*
X163375966Y-73697780D01*
X163375966Y-73697780D01*
G37*
D26*
X161900000Y-72613181D02*
X161900000Y-72613181D01*
D23*
X159990000Y-70880000D03*
X161490000Y-70880000D03*
D24*
X143240000Y-121110000D03*
D25*
X145780000Y-121110000D03*
D22*
X133700000Y-82200000D03*
X133700000Y-80700000D03*
X158540000Y-81730000D03*
X158540000Y-80230000D03*
X148340000Y-122060000D03*
X148340000Y-120560000D03*
X134570000Y-117370000D03*
X134570000Y-118870000D03*
D10*
G36*
X170429680Y-101671093D02*
X171933188Y-101123861D01*
X172617228Y-103003247D01*
X171113720Y-103550479D01*
X170429680Y-101671093D01*
X170429680Y-101671093D01*
G37*
G36*
X168582772Y-96596753D02*
X170086280Y-96049521D01*
X170770320Y-97928907D01*
X169266812Y-98476139D01*
X168582772Y-96596753D01*
X168582772Y-96596753D01*
G37*
G36*
X118693188Y-98956139D02*
X117189680Y-98408907D01*
X117873720Y-96529521D01*
X119377228Y-97076753D01*
X118693188Y-98956139D01*
X118693188Y-98956139D01*
G37*
G36*
X116846280Y-104030479D02*
X115342772Y-103483247D01*
X116026812Y-101603861D01*
X117530320Y-102151093D01*
X116846280Y-104030479D01*
X116846280Y-104030479D01*
G37*
D27*
X129750000Y-84450000D03*
X129750000Y-79050000D03*
D28*
X157466640Y-87602500D03*
X157466640Y-85697500D03*
X157466640Y-86650000D03*
X155353360Y-85697500D03*
X155353360Y-87602500D03*
D29*
X139600000Y-88280000D03*
X139600000Y-88780000D03*
X139600000Y-89280000D03*
X139600000Y-89780000D03*
X139600000Y-90280000D03*
X139600000Y-90780000D03*
X139600000Y-91280000D03*
X139600000Y-91780000D03*
X139600000Y-92280000D03*
X139600000Y-92780000D03*
X139600000Y-93280000D03*
X139600000Y-93780000D03*
D30*
X141200000Y-95380000D03*
X141700000Y-95380000D03*
X142200000Y-95380000D03*
X142700000Y-95380000D03*
X143200000Y-95380000D03*
X143700000Y-95380000D03*
X144200000Y-95380000D03*
X144700000Y-95380000D03*
X145200000Y-95380000D03*
X145700000Y-95380000D03*
X146200000Y-95380000D03*
X146700000Y-95380000D03*
D29*
X148300000Y-93780000D03*
X148300000Y-93280000D03*
X148300000Y-92780000D03*
X148300000Y-92280000D03*
X148300000Y-91780000D03*
X148300000Y-91280000D03*
X148300000Y-90780000D03*
X148300000Y-90280000D03*
X148300000Y-89780000D03*
X148300000Y-89280000D03*
X148300000Y-88780000D03*
X148300000Y-88280000D03*
D30*
X146700000Y-86680000D03*
X146200000Y-86680000D03*
X145700000Y-86680000D03*
X145200000Y-86680000D03*
X144700000Y-86680000D03*
X144200000Y-86680000D03*
X143700000Y-86680000D03*
X143200000Y-86680000D03*
X142700000Y-86680000D03*
X142200000Y-86680000D03*
X141700000Y-86680000D03*
X141200000Y-86680000D03*
D31*
X124200000Y-89850000D03*
X125150000Y-89850000D03*
X126100000Y-89850000D03*
X126100000Y-87650000D03*
X124200000Y-87650000D03*
D28*
X135283360Y-113597500D03*
X135283360Y-115502500D03*
X135283360Y-114550000D03*
X137396640Y-115502500D03*
X137396640Y-113597500D03*
D32*
X141980000Y-108360000D03*
X141980000Y-107860000D03*
X144980000Y-107860000D03*
D33*
X142730000Y-107160000D03*
X142230000Y-107160000D03*
X143230000Y-107160000D03*
X143730000Y-107160000D03*
X144730000Y-109060000D03*
X144730000Y-107160000D03*
X144230000Y-107160000D03*
X144230000Y-109060000D03*
X143730000Y-109060000D03*
X142230000Y-109060000D03*
X142730000Y-109060000D03*
D34*
X143480000Y-108110000D03*
D33*
X143230000Y-109060000D03*
D32*
X144980000Y-108360000D03*
D35*
X137770000Y-59490000D03*
X151230000Y-59490000D03*
D36*
X134470000Y-89070000D03*
X134470000Y-86670000D03*
D37*
X122540000Y-94460000D03*
X122540000Y-91560000D03*
D38*
X116650000Y-115110000D03*
D39*
X116650000Y-117650000D03*
X116650000Y-120190000D03*
D23*
X135560000Y-111930000D03*
X137060000Y-111930000D03*
D11*
X123780000Y-111000000D03*
X131400000Y-110800000D03*
D40*
X126600000Y-99500000D03*
D41*
X128600000Y-99500000D03*
D42*
X132130000Y-65520000D03*
D43*
X132130000Y-66790000D03*
X132130000Y-68060000D03*
X132130000Y-69330000D03*
X132130000Y-70600000D03*
X133400000Y-66790000D03*
X133400000Y-68060000D03*
X133400000Y-69330000D03*
X133400000Y-70600000D03*
X133400000Y-65520000D03*
D21*
X156832500Y-93673360D03*
X155880000Y-95786640D03*
X154927500Y-93673360D03*
M02*
