G04 #@! TF.FileFunction,Soldermask,Bot*
%FSLAX46Y46*%
G04 Gerber Fmt 4.6, Leading zero omitted, Abs format (unit mm)*
G04 Created by KiCad (PCBNEW 4.0.4-stable) date 10/29/17 10:31:43*
%MOMM*%
%LPD*%
G01*
G04 APERTURE LIST*
%ADD10C,0.100000*%
%ADD11C,3.000000*%
%ADD12C,1.150000*%
%ADD13C,1.550000*%
%ADD14R,1.727200X2.032000*%
%ADD15O,1.727200X2.032000*%
%ADD16R,1.000000X1.600000*%
%ADD17R,2.032000X2.032000*%
%ADD18O,2.032000X2.032000*%
%ADD19C,2.032000*%
%ADD20C,2.400000*%
%ADD21R,2.032000X1.727200*%
%ADD22O,2.032000X1.727200*%
%ADD23R,1.200000X1.700000*%
%ADD24O,1.200000X1.700000*%
%ADD25R,1.050000X1.050000*%
%ADD26C,1.050000*%
G04 APERTURE END LIST*
D10*
D11*
X159590000Y-111000000D03*
X167210000Y-110800000D03*
D12*
X164787051Y-91814497D02*
X164787051Y-91814497D01*
X163076950Y-87116034D02*
X163076950Y-87116034D01*
D13*
X167666241Y-91830736D02*
X167666241Y-91830736D01*
X165272100Y-85252887D02*
X165272100Y-85252887D01*
D14*
X152190000Y-66930000D03*
D15*
X149650000Y-66930000D03*
X147110000Y-66930000D03*
X144570000Y-66930000D03*
X142030000Y-66930000D03*
X139490000Y-66930000D03*
X136950000Y-66930000D03*
D16*
X132450000Y-103800000D03*
X135450000Y-103800000D03*
X153600000Y-104550000D03*
X156600000Y-104550000D03*
D17*
X142810000Y-50710000D03*
D18*
X145220000Y-50710000D03*
D10*
G36*
X126883489Y-74392765D02*
X126188504Y-76302220D01*
X124279049Y-75607235D01*
X124974034Y-73697780D01*
X126883489Y-74392765D01*
X126883489Y-74392765D01*
G37*
D19*
X126450000Y-72613181D02*
X126450000Y-72613181D01*
D10*
G36*
X163375966Y-73697780D02*
X164070951Y-75607235D01*
X162161496Y-76302220D01*
X161466511Y-74392765D01*
X163375966Y-73697780D01*
X163375966Y-73697780D01*
G37*
D19*
X161900000Y-72613181D02*
X161900000Y-72613181D01*
D17*
X143240000Y-121110000D03*
D18*
X145780000Y-121110000D03*
D20*
X137770000Y-59490000D03*
X151230000Y-59490000D03*
D21*
X116650000Y-115110000D03*
D22*
X116650000Y-117650000D03*
X116650000Y-120190000D03*
D11*
X123780000Y-111000000D03*
X131400000Y-110800000D03*
D23*
X126600000Y-99500000D03*
D24*
X128600000Y-99500000D03*
D25*
X132130000Y-65520000D03*
D26*
X132130000Y-66790000D03*
X132130000Y-68060000D03*
X132130000Y-69330000D03*
X132130000Y-70600000D03*
X133400000Y-66790000D03*
X133400000Y-68060000D03*
X133400000Y-69330000D03*
X133400000Y-70600000D03*
X133400000Y-65520000D03*
M02*
