G04 #@! TF.FileFunction,Legend,Top*
%FSLAX46Y46*%
G04 Gerber Fmt 4.6, Leading zero omitted, Abs format (unit mm)*
G04 Created by KiCad (PCBNEW 4.0.4-stable) date 10/27/17 11:40:57*
%MOMM*%
%LPD*%
G01*
G04 APERTURE LIST*
%ADD10C,0.100000*%
%ADD11C,0.250000*%
%ADD12C,0.150000*%
%ADD13C,0.127000*%
%ADD14C,0.010000*%
%ADD15C,0.125000*%
%ADD16C,0.170000*%
%ADD17C,0.119380*%
%ADD18C,0.114300*%
G04 APERTURE END LIST*
D10*
D11*
X157476189Y-115677381D02*
X157476189Y-114677381D01*
X158047618Y-115677381D01*
X158047618Y-114677381D01*
X158904761Y-115629762D02*
X158809523Y-115677381D01*
X158619046Y-115677381D01*
X158523808Y-115629762D01*
X158476189Y-115534524D01*
X158476189Y-115153571D01*
X158523808Y-115058333D01*
X158619046Y-115010714D01*
X158809523Y-115010714D01*
X158904761Y-115058333D01*
X158952380Y-115153571D01*
X158952380Y-115248810D01*
X158476189Y-115344048D01*
X159809523Y-115010714D02*
X159809523Y-115677381D01*
X159380951Y-115010714D02*
X159380951Y-115534524D01*
X159428570Y-115629762D01*
X159523808Y-115677381D01*
X159666666Y-115677381D01*
X159761904Y-115629762D01*
X159809523Y-115582143D01*
X160285713Y-115677381D02*
X160285713Y-115010714D01*
X160285713Y-115201190D02*
X160333332Y-115105952D01*
X160380951Y-115058333D01*
X160476189Y-115010714D01*
X160571428Y-115010714D01*
X161333333Y-115677381D02*
X161333333Y-115153571D01*
X161285714Y-115058333D01*
X161190476Y-115010714D01*
X160999999Y-115010714D01*
X160904761Y-115058333D01*
X161333333Y-115629762D02*
X161238095Y-115677381D01*
X160999999Y-115677381D01*
X160904761Y-115629762D01*
X160857142Y-115534524D01*
X160857142Y-115439286D01*
X160904761Y-115344048D01*
X160999999Y-115296429D01*
X161238095Y-115296429D01*
X161333333Y-115248810D01*
X161952380Y-115677381D02*
X161857142Y-115629762D01*
X161809523Y-115534524D01*
X161809523Y-114677381D01*
X163095238Y-115677381D02*
X163095238Y-114677381D01*
X163666667Y-115677381D01*
X163666667Y-114677381D01*
X164523810Y-115629762D02*
X164428572Y-115677381D01*
X164238095Y-115677381D01*
X164142857Y-115629762D01*
X164095238Y-115534524D01*
X164095238Y-115153571D01*
X164142857Y-115058333D01*
X164238095Y-115010714D01*
X164428572Y-115010714D01*
X164523810Y-115058333D01*
X164571429Y-115153571D01*
X164571429Y-115248810D01*
X164095238Y-115344048D01*
X164857143Y-115010714D02*
X165238095Y-115010714D01*
X165000000Y-114677381D02*
X165000000Y-115534524D01*
X165047619Y-115629762D01*
X165142857Y-115677381D01*
X165238095Y-115677381D01*
X166809525Y-115677381D02*
X166333334Y-115677381D01*
X166333334Y-114677381D01*
X167142858Y-115677381D02*
X167142858Y-115010714D01*
X167142858Y-114677381D02*
X167095239Y-114725000D01*
X167142858Y-114772619D01*
X167190477Y-114725000D01*
X167142858Y-114677381D01*
X167142858Y-114772619D01*
X168047620Y-115010714D02*
X168047620Y-115820238D01*
X168000001Y-115915476D01*
X167952382Y-115963095D01*
X167857143Y-116010714D01*
X167714286Y-116010714D01*
X167619048Y-115963095D01*
X168047620Y-115629762D02*
X167952382Y-115677381D01*
X167761905Y-115677381D01*
X167666667Y-115629762D01*
X167619048Y-115582143D01*
X167571429Y-115486905D01*
X167571429Y-115201190D01*
X167619048Y-115105952D01*
X167666667Y-115058333D01*
X167761905Y-115010714D01*
X167952382Y-115010714D01*
X168047620Y-115058333D01*
X168523810Y-115677381D02*
X168523810Y-114677381D01*
X168952382Y-115677381D02*
X168952382Y-115153571D01*
X168904763Y-115058333D01*
X168809525Y-115010714D01*
X168666667Y-115010714D01*
X168571429Y-115058333D01*
X168523810Y-115105952D01*
X169285715Y-115010714D02*
X169666667Y-115010714D01*
X169428572Y-114677381D02*
X169428572Y-115534524D01*
X169476191Y-115629762D01*
X169571429Y-115677381D01*
X169666667Y-115677381D01*
X171095240Y-115153571D02*
X171238097Y-115201190D01*
X171285716Y-115248810D01*
X171333335Y-115344048D01*
X171333335Y-115486905D01*
X171285716Y-115582143D01*
X171238097Y-115629762D01*
X171142859Y-115677381D01*
X170761906Y-115677381D01*
X170761906Y-114677381D01*
X171095240Y-114677381D01*
X171190478Y-114725000D01*
X171238097Y-114772619D01*
X171285716Y-114867857D01*
X171285716Y-114963095D01*
X171238097Y-115058333D01*
X171190478Y-115105952D01*
X171095240Y-115153571D01*
X170761906Y-115153571D01*
X171904763Y-115677381D02*
X171809525Y-115629762D01*
X171761906Y-115582143D01*
X171714287Y-115486905D01*
X171714287Y-115201190D01*
X171761906Y-115105952D01*
X171809525Y-115058333D01*
X171904763Y-115010714D01*
X172047621Y-115010714D01*
X172142859Y-115058333D01*
X172190478Y-115105952D01*
X172238097Y-115201190D01*
X172238097Y-115486905D01*
X172190478Y-115582143D01*
X172142859Y-115629762D01*
X172047621Y-115677381D01*
X171904763Y-115677381D01*
X172523811Y-115010714D02*
X172904763Y-115010714D01*
X172666668Y-114677381D02*
X172666668Y-115534524D01*
X172714287Y-115629762D01*
X172809525Y-115677381D01*
X172904763Y-115677381D01*
X163523810Y-116427381D02*
X163857143Y-117427381D01*
X164190477Y-116427381D01*
X164714286Y-116427381D02*
X164809525Y-116427381D01*
X164904763Y-116475000D01*
X164952382Y-116522619D01*
X165000001Y-116617857D01*
X165047620Y-116808333D01*
X165047620Y-117046429D01*
X165000001Y-117236905D01*
X164952382Y-117332143D01*
X164904763Y-117379762D01*
X164809525Y-117427381D01*
X164714286Y-117427381D01*
X164619048Y-117379762D01*
X164571429Y-117332143D01*
X164523810Y-117236905D01*
X164476191Y-117046429D01*
X164476191Y-116808333D01*
X164523810Y-116617857D01*
X164571429Y-116522619D01*
X164619048Y-116475000D01*
X164714286Y-116427381D01*
X165476191Y-117332143D02*
X165523810Y-117379762D01*
X165476191Y-117427381D01*
X165428572Y-117379762D01*
X165476191Y-117332143D01*
X165476191Y-117427381D01*
X166476191Y-117427381D02*
X165904762Y-117427381D01*
X166190476Y-117427381D02*
X166190476Y-116427381D01*
X166095238Y-116570238D01*
X166000000Y-116665476D01*
X165904762Y-116713095D01*
X166904762Y-116760714D02*
X166904762Y-117760714D01*
X166904762Y-116808333D02*
X167000000Y-116760714D01*
X167190477Y-116760714D01*
X167285715Y-116808333D01*
X167333334Y-116855952D01*
X167380953Y-116951190D01*
X167380953Y-117236905D01*
X167333334Y-117332143D01*
X167285715Y-117379762D01*
X167190477Y-117427381D01*
X167000000Y-117427381D01*
X166904762Y-117379762D01*
D12*
X134760000Y-92680000D02*
X134060000Y-92680000D01*
X134060000Y-91480000D02*
X134760000Y-91480000D01*
X134800000Y-85830000D02*
X134100000Y-85830000D01*
X134100000Y-84630000D02*
X134800000Y-84630000D01*
X143560000Y-98430000D02*
X144260000Y-98430000D01*
X144260000Y-99630000D02*
X143560000Y-99630000D01*
X134810000Y-91120000D02*
X134110000Y-91120000D01*
X134110000Y-89920000D02*
X134810000Y-89920000D01*
X144650000Y-81850000D02*
X145350000Y-81850000D01*
X145350000Y-83050000D02*
X144650000Y-83050000D01*
X158140000Y-95370000D02*
X158140000Y-94670000D01*
X159340000Y-94670000D02*
X159340000Y-95370000D01*
X139870000Y-116370000D02*
X139870000Y-117070000D01*
X138670000Y-117070000D02*
X138670000Y-116370000D01*
X121880000Y-89370000D02*
X121880000Y-88670000D01*
X123080000Y-88670000D02*
X123080000Y-89370000D01*
X124820000Y-85370000D02*
X125520000Y-85370000D01*
X125520000Y-86570000D02*
X124820000Y-86570000D01*
X133070000Y-116710000D02*
X133070000Y-117410000D01*
X131870000Y-117410000D02*
X131870000Y-116710000D01*
X142410000Y-83050000D02*
X141710000Y-83050000D01*
X141710000Y-81850000D02*
X142410000Y-81850000D01*
X150640000Y-85740000D02*
X150640000Y-85040000D01*
X151840000Y-85040000D02*
X151840000Y-85740000D01*
X140450000Y-114050000D02*
X139750000Y-114050000D01*
X139750000Y-112850000D02*
X140450000Y-112850000D01*
X140450000Y-112550000D02*
X139750000Y-112550000D01*
X139750000Y-111350000D02*
X140450000Y-111350000D01*
X141470000Y-105300000D02*
X140770000Y-105300000D01*
X140770000Y-104100000D02*
X141470000Y-104100000D01*
X134710700Y-121040000D02*
X136610700Y-121040000D01*
X134710700Y-119940000D02*
X136610700Y-119940000D01*
X135610700Y-120490000D02*
X136060700Y-120490000D01*
X135560700Y-120240000D02*
X135560700Y-120740000D01*
X135560700Y-120490000D02*
X135810700Y-120240000D01*
X135810700Y-120240000D02*
X135810700Y-120740000D01*
X135810700Y-120740000D02*
X135560700Y-120490000D01*
D13*
X133199620Y-79449720D02*
X134200380Y-79449720D01*
X134200380Y-78850280D02*
X133199620Y-78850280D01*
X133600940Y-79150000D02*
X133799060Y-79150000D01*
X133900660Y-79050940D02*
X133499340Y-79050940D01*
X133499340Y-79050940D02*
X133700000Y-79249060D01*
X133700000Y-79249060D02*
X133900660Y-79050940D01*
X134200380Y-78349900D02*
X134200380Y-79950100D01*
X134200380Y-79950100D02*
X133199620Y-79950100D01*
X133199620Y-79950100D02*
X133199620Y-78349900D01*
X133199620Y-78349900D02*
X134200380Y-78349900D01*
X157989620Y-78639720D02*
X158990380Y-78639720D01*
X158990380Y-78040280D02*
X157989620Y-78040280D01*
X158390940Y-78340000D02*
X158589060Y-78340000D01*
X158690660Y-78240940D02*
X158289340Y-78240940D01*
X158289340Y-78240940D02*
X158490000Y-78439060D01*
X158490000Y-78439060D02*
X158690660Y-78240940D01*
X158990380Y-77539900D02*
X158990380Y-79140100D01*
X158990380Y-79140100D02*
X157989620Y-79140100D01*
X157989620Y-79140100D02*
X157989620Y-77539900D01*
X157989620Y-77539900D02*
X158990380Y-77539900D01*
X161662800Y-93207000D02*
X160037200Y-93207000D01*
X160037200Y-95493000D02*
X161662800Y-95493000D01*
X160037200Y-95950200D02*
X161662800Y-95950200D01*
X161662800Y-95950200D02*
X161662800Y-92749800D01*
X161662800Y-92749800D02*
X160037200Y-92749800D01*
X160037200Y-92749800D02*
X160037200Y-95950200D01*
X134355000Y-95323000D02*
X134355000Y-93037000D01*
X134355000Y-93037000D02*
X135625000Y-93037000D01*
X135625000Y-93037000D02*
X135625000Y-95323000D01*
X135625000Y-95323000D02*
X134355000Y-95323000D01*
D12*
X170475334Y-91712860D02*
X167499759Y-83537535D01*
X164456603Y-93903499D02*
X161481028Y-85728174D01*
X161481028Y-85728174D02*
X167499759Y-83537535D01*
X166343937Y-83958219D02*
X169319513Y-92133545D01*
X170475334Y-91712860D02*
X164456603Y-93903499D01*
X150920000Y-68200000D02*
X135680000Y-68200000D01*
X135680000Y-68200000D02*
X135680000Y-65660000D01*
X135680000Y-65660000D02*
X150920000Y-65660000D01*
X153740000Y-68480000D02*
X152190000Y-68480000D01*
X150920000Y-68200000D02*
X150920000Y-65660000D01*
X152190000Y-65380000D02*
X153740000Y-65380000D01*
X153740000Y-65380000D02*
X153740000Y-68480000D01*
D13*
X151792714Y-116663818D02*
X151792714Y-116003418D01*
X153697714Y-116663818D02*
X153697714Y-116003418D01*
X152745214Y-118060818D02*
X152745214Y-118721218D01*
X154243814Y-118060818D02*
X151246614Y-118060818D01*
X151246614Y-118060818D02*
X151246614Y-116663818D01*
X151246614Y-116663818D02*
X154243814Y-116663818D01*
X154243814Y-116663818D02*
X154243814Y-118060818D01*
D12*
X154365000Y-86140000D02*
X154365000Y-87140000D01*
X153015000Y-87140000D02*
X153015000Y-86140000D01*
X154940000Y-81315000D02*
X155940000Y-81315000D01*
X155940000Y-82665000D02*
X154940000Y-82665000D01*
X129075000Y-76550000D02*
X129075000Y-75550000D01*
X130425000Y-75550000D02*
X130425000Y-76550000D01*
X156380000Y-92955000D02*
X155380000Y-92955000D01*
X155380000Y-91605000D02*
X156380000Y-91605000D01*
X152150000Y-114075000D02*
X153150000Y-114075000D01*
X153150000Y-115425000D02*
X152150000Y-115425000D01*
X147275000Y-51270000D02*
X147275000Y-50270000D01*
X148625000Y-50270000D02*
X148625000Y-51270000D01*
X144080000Y-49440000D02*
X146620000Y-49440000D01*
X141260000Y-49160000D02*
X142810000Y-49160000D01*
X144080000Y-49440000D02*
X144080000Y-51980000D01*
X142810000Y-52260000D02*
X141260000Y-52260000D01*
X141260000Y-52260000D02*
X141260000Y-49160000D01*
X144080000Y-51980000D02*
X146620000Y-51980000D01*
X146620000Y-51980000D02*
X146620000Y-49440000D01*
X124822225Y-73372225D02*
X125690956Y-70985406D01*
X123594614Y-75926392D02*
X124124745Y-74469869D01*
X124822225Y-73372225D02*
X127209044Y-74240956D01*
X127037793Y-75530131D02*
X126507661Y-76986655D01*
X126507661Y-76986655D02*
X123594614Y-75926392D01*
X127209044Y-74240956D02*
X128077775Y-71854137D01*
X128077775Y-71854137D02*
X125690956Y-70985406D01*
X127950000Y-70875000D02*
X126950000Y-70875000D01*
X126950000Y-69525000D02*
X127950000Y-69525000D01*
X161140956Y-74240956D02*
X160272225Y-71854137D01*
X161842339Y-76986655D02*
X161312207Y-75530131D01*
X161140956Y-74240956D02*
X163527775Y-73372225D01*
X164225255Y-74469869D02*
X164755386Y-75926392D01*
X164755386Y-75926392D02*
X161842339Y-76986655D01*
X163527775Y-73372225D02*
X162659044Y-70985406D01*
X162659044Y-70985406D02*
X160272225Y-71854137D01*
X161240000Y-71555000D02*
X160240000Y-71555000D01*
X160240000Y-70205000D02*
X161240000Y-70205000D01*
X144510000Y-119840000D02*
X147050000Y-119840000D01*
X141690000Y-119560000D02*
X143240000Y-119560000D01*
X144510000Y-119840000D02*
X144510000Y-122380000D01*
X143240000Y-122660000D02*
X141690000Y-122660000D01*
X141690000Y-122660000D02*
X141690000Y-119560000D01*
X144510000Y-122380000D02*
X147050000Y-122380000D01*
X147050000Y-122380000D02*
X147050000Y-119840000D01*
X134375000Y-80950000D02*
X134375000Y-81950000D01*
X133025000Y-81950000D02*
X133025000Y-80950000D01*
X159215000Y-80480000D02*
X159215000Y-81480000D01*
X157865000Y-81480000D02*
X157865000Y-80480000D01*
X149015000Y-120810000D02*
X149015000Y-121810000D01*
X147665000Y-121810000D02*
X147665000Y-120810000D01*
X133895000Y-118620000D02*
X133895000Y-117620000D01*
X135245000Y-117620000D02*
X135245000Y-118620000D01*
X170778957Y-98245016D02*
X171736613Y-100876156D01*
X171736613Y-100876156D02*
X170421043Y-101354984D01*
X170421043Y-101354984D02*
X169463387Y-98723844D01*
X169463387Y-98723844D02*
X170778957Y-98245016D01*
X173270523Y-102020543D02*
X172659722Y-102242856D01*
X169981598Y-103217613D02*
X170592399Y-102995300D01*
X168540278Y-97357144D02*
X167929477Y-97579457D01*
X171218402Y-96382387D02*
X170607601Y-96604700D01*
X173270523Y-102020543D02*
X171218402Y-96382387D01*
X167929477Y-97579457D02*
X169981598Y-103217613D01*
X116223387Y-101356156D02*
X117181043Y-98725016D01*
X117181043Y-98725016D02*
X118496613Y-99203844D01*
X118496613Y-99203844D02*
X117538957Y-101834984D01*
X117538957Y-101834984D02*
X116223387Y-101356156D01*
X116741598Y-96862387D02*
X117352399Y-97084700D01*
X120030523Y-98059457D02*
X119419722Y-97837144D01*
X117367601Y-103475300D02*
X117978402Y-103697613D01*
X114689477Y-102500543D02*
X115300278Y-102722856D01*
X116741598Y-96862387D02*
X114689477Y-102500543D01*
X117978402Y-103697613D02*
X120030523Y-98059457D01*
X130450000Y-80350000D02*
X130450000Y-83150000D01*
X130450000Y-83150000D02*
X129050000Y-83150000D01*
X129050000Y-83150000D02*
X129050000Y-80350000D01*
X129050000Y-80350000D02*
X130450000Y-80350000D01*
X131500000Y-84750000D02*
X130850000Y-84750000D01*
X128000000Y-84750000D02*
X128650000Y-84750000D01*
X128650000Y-78750000D02*
X128000000Y-78750000D01*
X131500000Y-78750000D02*
X130850000Y-78750000D01*
X131500000Y-84750000D02*
X131500000Y-78750000D01*
X128000000Y-78750000D02*
X128000000Y-84750000D01*
D13*
X157108500Y-87500900D02*
X156460800Y-88148600D01*
X157108500Y-87653300D02*
X156613200Y-88148600D01*
X155711500Y-85697500D02*
X155051100Y-85697500D01*
X155711500Y-87602500D02*
X155051100Y-87602500D01*
X157108500Y-86650000D02*
X157768900Y-86650000D01*
X157108500Y-85697500D02*
X157768900Y-85697500D01*
X157108500Y-87602500D02*
X157768900Y-87602500D01*
X155711500Y-88148600D02*
X155711500Y-85151400D01*
X155711500Y-85151400D02*
X157108500Y-85151400D01*
X157108500Y-85151400D02*
X157108500Y-88148600D01*
X157108500Y-88148600D02*
X155711500Y-88148600D01*
D12*
X140325000Y-87405000D02*
X140325000Y-87930000D01*
X147575000Y-87405000D02*
X147575000Y-87930000D01*
X147575000Y-94655000D02*
X147575000Y-94130000D01*
X140325000Y-94655000D02*
X140325000Y-94130000D01*
X140325000Y-87405000D02*
X140850000Y-87405000D01*
X140325000Y-94655000D02*
X140850000Y-94655000D01*
X147575000Y-94655000D02*
X147050000Y-94655000D01*
X147575000Y-87405000D02*
X147050000Y-87405000D01*
X140325000Y-87930000D02*
X138950000Y-87930000D01*
X123550000Y-89050000D02*
G75*
G03X123550000Y-89050000I-100000J0D01*
G01*
X123700000Y-88500000D02*
X123700000Y-89000000D01*
X126600000Y-88500000D02*
X123700000Y-88500000D01*
X126600000Y-89000000D02*
X126600000Y-88500000D01*
X123700000Y-89000000D02*
X126600000Y-89000000D01*
D13*
X135641500Y-113699100D02*
X136289200Y-113051400D01*
X135641500Y-113546700D02*
X136136800Y-113051400D01*
X137038500Y-115502500D02*
X137698900Y-115502500D01*
X137038500Y-113597500D02*
X137698900Y-113597500D01*
X135641500Y-114550000D02*
X134981100Y-114550000D01*
X135641500Y-115502500D02*
X134981100Y-115502500D01*
X135641500Y-113597500D02*
X134981100Y-113597500D01*
X137038500Y-113051400D02*
X137038500Y-116048600D01*
X137038500Y-116048600D02*
X135641500Y-116048600D01*
X135641500Y-116048600D02*
X135641500Y-113051400D01*
X135641500Y-113051400D02*
X137038500Y-113051400D01*
D12*
X144980000Y-107110000D02*
X141980000Y-107110000D01*
X141980000Y-107110000D02*
X141980000Y-109110000D01*
X141980000Y-109110000D02*
X144980000Y-109110000D01*
X144980000Y-109110000D02*
X144980000Y-107110000D01*
X142280000Y-109560000D02*
X141530000Y-110510000D01*
X142280000Y-109560000D02*
X141330000Y-110310000D01*
X141255000Y-110235000D02*
X141605000Y-110585000D01*
X141605000Y-110585000D02*
X142280000Y-109560000D01*
X142280000Y-109560000D02*
X141255000Y-110235000D01*
X142280000Y-109560000D02*
X141430000Y-110410000D01*
X133670000Y-89670000D02*
X133670000Y-86070000D01*
X133770000Y-86070000D02*
X135270000Y-86070000D01*
X135270000Y-86070000D02*
X135270000Y-89670000D01*
X135270000Y-89670000D02*
X133770000Y-89670000D01*
D13*
X121739900Y-92655900D02*
X123340100Y-92655900D01*
X123340100Y-92582900D02*
X121739900Y-92582900D01*
X121739900Y-92509900D02*
X123340100Y-92509900D01*
X121739900Y-91155800D02*
X121739900Y-94864200D01*
X121739900Y-94864200D02*
X123340100Y-94864200D01*
X123340100Y-94864200D02*
X123340100Y-91155800D01*
X123340100Y-91155800D02*
X121739900Y-91155800D01*
D12*
X115380000Y-116380000D02*
X115380000Y-121460000D01*
X115380000Y-121460000D02*
X117920000Y-121460000D01*
X117920000Y-121460000D02*
X117920000Y-116380000D01*
X118200000Y-113560000D02*
X118200000Y-115110000D01*
X117920000Y-116380000D02*
X115380000Y-116380000D01*
X115100000Y-115110000D02*
X115100000Y-113560000D01*
X115100000Y-113560000D02*
X118200000Y-113560000D01*
X136810000Y-112605000D02*
X135810000Y-112605000D01*
X135810000Y-111255000D02*
X136810000Y-111255000D01*
X127100000Y-105750000D02*
X127100000Y-101500000D01*
X127100000Y-101500000D02*
X128100000Y-101500000D01*
X128100000Y-101500000D02*
X128100000Y-105750000D01*
X125700000Y-99750000D02*
X125350000Y-99750000D01*
X125350000Y-99750000D02*
X125350000Y-98150000D01*
X125350000Y-98150000D02*
X124650000Y-98150000D01*
X124650000Y-98150000D02*
X124650000Y-105750000D01*
X124650000Y-105750000D02*
X130550000Y-105750000D01*
X130550000Y-105750000D02*
X130550000Y-98150000D01*
X130550000Y-98150000D02*
X129850000Y-98150000D01*
X129850000Y-98150000D02*
X129850000Y-99750000D01*
X129850000Y-99750000D02*
X129500000Y-99750000D01*
X124650000Y-99750000D02*
X125350000Y-99750000D01*
X130550000Y-99750000D02*
X129850000Y-99750000D01*
X125300000Y-102000000D02*
X125300000Y-103600000D01*
X125300000Y-103600000D02*
X126300000Y-103600000D01*
X126300000Y-103600000D02*
X126300000Y-102000000D01*
X126300000Y-102000000D02*
X125300000Y-102000000D01*
X129900000Y-102000000D02*
X129900000Y-103600000D01*
X129900000Y-103600000D02*
X128900000Y-103600000D01*
X128900000Y-103600000D02*
X128900000Y-102000000D01*
X128900000Y-102000000D02*
X129900000Y-102000000D01*
X126300000Y-103600000D02*
X126300000Y-105750000D01*
X125800000Y-103600000D02*
X125800000Y-105750000D01*
X127500000Y-99750000D02*
X127700000Y-99750000D01*
D14*
G36*
X172768666Y-122329833D02*
X161952500Y-122329833D01*
X161952500Y-119091333D01*
X161973666Y-119091333D01*
X161973666Y-122245167D01*
X162608666Y-122245167D01*
X162610140Y-121234458D01*
X162610572Y-121001905D01*
X162611199Y-120808639D01*
X162612128Y-120651613D01*
X162613466Y-120527780D01*
X162615320Y-120434095D01*
X162617797Y-120367510D01*
X162621005Y-120324978D01*
X162625049Y-120303455D01*
X162630037Y-120299892D01*
X162636076Y-120311243D01*
X162641898Y-120329583D01*
X162681820Y-120470722D01*
X162724504Y-120624247D01*
X162759671Y-120752917D01*
X162782565Y-120829736D01*
X162808035Y-120904697D01*
X162810641Y-120911667D01*
X162827220Y-120959103D01*
X162852938Y-121037100D01*
X162884581Y-121135725D01*
X162918932Y-121245049D01*
X162927137Y-121271500D01*
X162968564Y-121404141D01*
X163014731Y-121549926D01*
X163059807Y-121690550D01*
X163095645Y-121800667D01*
X163130190Y-121906951D01*
X163162626Y-122009070D01*
X163188994Y-122094423D01*
X163203745Y-122144625D01*
X163231742Y-122245167D01*
X163873530Y-122245167D01*
X163894940Y-122186958D01*
X163910576Y-122140875D01*
X163934208Y-122067077D01*
X163961748Y-121978423D01*
X163973983Y-121938250D01*
X164001733Y-121848116D01*
X164027203Y-121768183D01*
X164046407Y-121710848D01*
X164051946Y-121695717D01*
X164066879Y-121655048D01*
X164088083Y-121592941D01*
X164117089Y-121504730D01*
X164155432Y-121385749D01*
X164204644Y-121231332D01*
X164208691Y-121218583D01*
X164237703Y-121128934D01*
X164265717Y-121045313D01*
X164287463Y-120983390D01*
X164290529Y-120975167D01*
X164314419Y-120905947D01*
X164338945Y-120825825D01*
X164344538Y-120805833D01*
X164368133Y-120720864D01*
X164393518Y-120631866D01*
X164398331Y-120615333D01*
X164427615Y-120511580D01*
X164455611Y-120405977D01*
X164479261Y-120310634D01*
X164495506Y-120237664D01*
X164499923Y-120213167D01*
X164501544Y-120223057D01*
X164503168Y-120271512D01*
X164504753Y-120354761D01*
X164506260Y-120469037D01*
X164507645Y-120610570D01*
X164508868Y-120775591D01*
X164509888Y-120960330D01*
X164510662Y-121161020D01*
X164510784Y-121202708D01*
X164513666Y-122245167D01*
X165191000Y-122245167D01*
X165191000Y-121585574D01*
X165359905Y-121585574D01*
X165360113Y-121709074D01*
X165372984Y-121826681D01*
X165398384Y-121923009D01*
X165402870Y-121933781D01*
X165438590Y-121994117D01*
X165492131Y-122061507D01*
X165554501Y-122127028D01*
X165616710Y-122181754D01*
X165669767Y-122216762D01*
X165695997Y-122224750D01*
X165739670Y-122235460D01*
X165783666Y-122255750D01*
X165841206Y-122273952D01*
X165927554Y-122284129D01*
X166029963Y-122286322D01*
X166135683Y-122280573D01*
X166231967Y-122266925D01*
X166282604Y-122254110D01*
X166463462Y-122182887D01*
X166610883Y-122096377D01*
X166685405Y-122034319D01*
X166771980Y-121950289D01*
X166798329Y-122097728D01*
X166824677Y-122245167D01*
X167524872Y-122245167D01*
X167510392Y-122165792D01*
X167494819Y-122073355D01*
X167482473Y-121981440D01*
X167473003Y-121883561D01*
X167466057Y-121773232D01*
X167461285Y-121643968D01*
X167458335Y-121489280D01*
X167456855Y-121302685D01*
X167456525Y-121171387D01*
X167456001Y-120982596D01*
X167454722Y-120831202D01*
X167452456Y-120712271D01*
X167448966Y-120620869D01*
X167444018Y-120552061D01*
X167437378Y-120500915D01*
X167428809Y-120462497D01*
X167421767Y-120441137D01*
X167381785Y-120339541D01*
X167347872Y-120266526D01*
X167313574Y-120210232D01*
X167272437Y-120158802D01*
X167261465Y-120146563D01*
X167152264Y-120056385D01*
X167013497Y-119988822D01*
X166851201Y-119943584D01*
X166671413Y-119920380D01*
X166480169Y-119918923D01*
X166283507Y-119938922D01*
X166087464Y-119980088D01*
X165898076Y-120042131D01*
X165721379Y-120124762D01*
X165563411Y-120227691D01*
X165563011Y-120228000D01*
X165507012Y-120273703D01*
X165466417Y-120311524D01*
X165451566Y-120330541D01*
X165459404Y-120360369D01*
X165487014Y-120398448D01*
X165517832Y-120438372D01*
X165529666Y-120466281D01*
X165541972Y-120487579D01*
X165546269Y-120488333D01*
X165567392Y-120504696D01*
X165595950Y-120544363D01*
X165597647Y-120547203D01*
X165635017Y-120602430D01*
X165682911Y-120663672D01*
X165692608Y-120675005D01*
X165731342Y-120716909D01*
X165756072Y-120730398D01*
X165780034Y-120719459D01*
X165795843Y-120706094D01*
X165912824Y-120623799D01*
X166060041Y-120552440D01*
X166225830Y-120496930D01*
X166362594Y-120467460D01*
X166451551Y-120455878D01*
X166517838Y-120455987D01*
X166579663Y-120468483D01*
X166606219Y-120476771D01*
X166685966Y-120512570D01*
X166734943Y-120562405D01*
X166762816Y-120637940D01*
X166769576Y-120673859D01*
X166782615Y-120755399D01*
X166574182Y-120781748D01*
X166343671Y-120817888D01*
X166133449Y-120864816D01*
X165948365Y-120920943D01*
X165793269Y-120984681D01*
X165673009Y-121054442D01*
X165626331Y-121092126D01*
X165585368Y-121126701D01*
X165557555Y-121144143D01*
X165555034Y-121144644D01*
X165533051Y-121161919D01*
X165498717Y-121206577D01*
X165458866Y-121268267D01*
X165420334Y-121336635D01*
X165398023Y-121382439D01*
X165372497Y-121471567D01*
X165359905Y-121585574D01*
X165191000Y-121585574D01*
X165191000Y-119091333D01*
X167688666Y-119091333D01*
X167688666Y-122245167D01*
X168387166Y-122245167D01*
X168388506Y-121641917D01*
X168522120Y-121491270D01*
X168655735Y-121340624D01*
X168695027Y-121417187D01*
X168726376Y-121474633D01*
X168753960Y-121519389D01*
X168758340Y-121525500D01*
X168782027Y-121566258D01*
X168808170Y-121623917D01*
X168811103Y-121631333D01*
X168833064Y-121682367D01*
X168850498Y-121713559D01*
X168852775Y-121716000D01*
X168861420Y-121726375D01*
X168876045Y-121750043D01*
X168899269Y-121791847D01*
X168933709Y-121856632D01*
X168981982Y-121949241D01*
X169046708Y-122074519D01*
X169050113Y-122081125D01*
X169134653Y-122245167D01*
X169501743Y-122245167D01*
X169621082Y-122244590D01*
X169724210Y-122242989D01*
X169804322Y-122240562D01*
X169854612Y-122237503D01*
X169868833Y-122234594D01*
X169859317Y-122209385D01*
X169835435Y-122160649D01*
X169804185Y-122101403D01*
X169772562Y-122044669D01*
X169747566Y-122003465D01*
X169737865Y-121990915D01*
X169719483Y-121964623D01*
X169701423Y-121927236D01*
X169678321Y-121879542D01*
X169642555Y-121813543D01*
X169616819Y-121768917D01*
X169574423Y-121694898D01*
X169523903Y-121603169D01*
X169476898Y-121514917D01*
X169429229Y-121425352D01*
X169378881Y-121333742D01*
X169337328Y-121260917D01*
X169299192Y-121193928D01*
X169267915Y-121135026D01*
X169255315Y-121108487D01*
X169249079Y-121096048D01*
X169678855Y-121096048D01*
X169680579Y-121261903D01*
X169695741Y-121410451D01*
X169710491Y-121481302D01*
X169781479Y-121690574D01*
X169876753Y-121866118D01*
X169998373Y-122010233D01*
X170148396Y-122125221D01*
X170328883Y-122213382D01*
X170383266Y-122232938D01*
X170450935Y-122253891D01*
X170514632Y-122268409D01*
X170584839Y-122277691D01*
X170672037Y-122282938D01*
X170786708Y-122285348D01*
X170845034Y-122285801D01*
X170977954Y-122285469D01*
X171078572Y-122282183D01*
X171156871Y-122275016D01*
X171222835Y-122263044D01*
X171286446Y-122245341D01*
X171288514Y-122244683D01*
X171370583Y-122215995D01*
X171458612Y-122181296D01*
X171542489Y-122145060D01*
X171612104Y-122111764D01*
X171657347Y-122085884D01*
X171668000Y-122076686D01*
X171691849Y-122057268D01*
X171737099Y-122028120D01*
X171747375Y-122022050D01*
X171792383Y-121987731D01*
X171815392Y-121954265D01*
X171816166Y-121948847D01*
X171805343Y-121916471D01*
X171777432Y-121860947D01*
X171739270Y-121794051D01*
X171697694Y-121727561D01*
X171659541Y-121673251D01*
X171647648Y-121658587D01*
X171622268Y-121620317D01*
X171601011Y-121579212D01*
X171594470Y-121567833D01*
X171985500Y-121567833D01*
X171985500Y-122245167D01*
X172726333Y-122245167D01*
X172726333Y-121567833D01*
X171985500Y-121567833D01*
X171594470Y-121567833D01*
X171577602Y-121538494D01*
X171552245Y-121529782D01*
X171514673Y-121552996D01*
X171486184Y-121578322D01*
X171396672Y-121642920D01*
X171278576Y-121702435D01*
X171145644Y-121751845D01*
X171011627Y-121786124D01*
X170890273Y-121800250D01*
X170878508Y-121800358D01*
X170794277Y-121791664D01*
X170704784Y-121769446D01*
X170626011Y-121738707D01*
X170574724Y-121705248D01*
X170535633Y-121671241D01*
X170517151Y-121658259D01*
X170489641Y-121626719D01*
X170456012Y-121568109D01*
X170422653Y-121495801D01*
X170395954Y-121423168D01*
X170385198Y-121382117D01*
X170371541Y-121313833D01*
X171885911Y-121313833D01*
X171872098Y-121128625D01*
X171845469Y-120885084D01*
X171804024Y-120676590D01*
X171746644Y-120498134D01*
X171714629Y-120424833D01*
X171665449Y-120342882D01*
X171596033Y-120253608D01*
X171516440Y-120167773D01*
X171436731Y-120096138D01*
X171366964Y-120049462D01*
X171361083Y-120046655D01*
X171302103Y-120018845D01*
X171255250Y-119995407D01*
X171189915Y-119970960D01*
X171141008Y-119959167D01*
X171985500Y-119959167D01*
X171985500Y-120657667D01*
X172726333Y-120657667D01*
X172726333Y-119959167D01*
X171985500Y-119959167D01*
X171141008Y-119959167D01*
X171096525Y-119948441D01*
X170989353Y-119930449D01*
X170882672Y-119919583D01*
X170827938Y-119917577D01*
X170655307Y-119931576D01*
X170472763Y-119972508D01*
X170298918Y-120036024D01*
X170276371Y-120046453D01*
X170186646Y-120097827D01*
X170090933Y-120166674D01*
X169999718Y-120244003D01*
X169923491Y-120320822D01*
X169872740Y-120388139D01*
X169868246Y-120396330D01*
X169841535Y-120442230D01*
X169820524Y-120468831D01*
X169820313Y-120468990D01*
X169805703Y-120493636D01*
X169782158Y-120547767D01*
X169754229Y-120620738D01*
X169747927Y-120638323D01*
X169713167Y-120769889D01*
X169689931Y-120927253D01*
X169678855Y-121096048D01*
X169249079Y-121096048D01*
X169231609Y-121061207D01*
X169196454Y-121000131D01*
X169184924Y-120981487D01*
X169139526Y-120903315D01*
X169119585Y-120847779D01*
X169123698Y-120804795D01*
X169150463Y-120764279D01*
X169154126Y-120760199D01*
X169191865Y-120717904D01*
X169245792Y-120656319D01*
X169304610Y-120588349D01*
X169307916Y-120584503D01*
X169361731Y-120522095D01*
X169406463Y-120470615D01*
X169433517Y-120439950D01*
X169435484Y-120437794D01*
X169458002Y-120412212D01*
X169500774Y-120362683D01*
X169556640Y-120297518D01*
X169592506Y-120255500D01*
X169654489Y-120183683D01*
X169709560Y-120121523D01*
X169749764Y-120077921D01*
X169762740Y-120065000D01*
X169797962Y-120022023D01*
X169811429Y-119996208D01*
X169813659Y-119982854D01*
X169805244Y-119973149D01*
X169780637Y-119966518D01*
X169734288Y-119962383D01*
X169660649Y-119960166D01*
X169554173Y-119959290D01*
X169455419Y-119959166D01*
X169320993Y-119958820D01*
X169221135Y-119959749D01*
X169148109Y-119964905D01*
X169094184Y-119977238D01*
X169051625Y-119999701D01*
X169012699Y-120035243D01*
X168969673Y-120086818D01*
X168914812Y-120157374D01*
X168905750Y-120168932D01*
X168850926Y-120237756D01*
X168802016Y-120297609D01*
X168768172Y-120337323D01*
X168764188Y-120341684D01*
X168733262Y-120376836D01*
X168685772Y-120433111D01*
X168631707Y-120498661D01*
X168628874Y-120502137D01*
X168577040Y-120565269D01*
X168533557Y-120617320D01*
X168507147Y-120647861D01*
X168505852Y-120649255D01*
X168475409Y-120683150D01*
X168440083Y-120724096D01*
X168397750Y-120774083D01*
X168386680Y-119091333D01*
X167688666Y-119091333D01*
X165191000Y-119091333D01*
X164242641Y-119091333D01*
X164217450Y-119160125D01*
X164199016Y-119216067D01*
X164175326Y-119295410D01*
X164152572Y-119377083D01*
X164126496Y-119473093D01*
X164098856Y-119572796D01*
X164079338Y-119641667D01*
X164057918Y-119717387D01*
X164030562Y-119816020D01*
X164002247Y-119919572D01*
X163994398Y-119948583D01*
X163966704Y-120050144D01*
X163938411Y-120152118D01*
X163914521Y-120236512D01*
X163909024Y-120255500D01*
X163886644Y-120333064D01*
X163866525Y-120404269D01*
X163857963Y-120435417D01*
X163839053Y-120503897D01*
X163812135Y-120599077D01*
X163781178Y-120707055D01*
X163750152Y-120813927D01*
X163740108Y-120848167D01*
X163717130Y-120926283D01*
X163690424Y-121017118D01*
X163677870Y-121059833D01*
X163654926Y-121141794D01*
X163634385Y-121221588D01*
X163626269Y-121256464D01*
X163609484Y-121321239D01*
X163594583Y-121344381D01*
X163578972Y-121326355D01*
X163560231Y-121268269D01*
X163523899Y-121140189D01*
X163486192Y-121016546D01*
X163452071Y-120913447D01*
X163443852Y-120890500D01*
X163422212Y-120823618D01*
X163399623Y-120742187D01*
X163391833Y-120710583D01*
X163371179Y-120630995D01*
X163348343Y-120554841D01*
X163340077Y-120530667D01*
X163299999Y-120418023D01*
X163270402Y-120328326D01*
X163246058Y-120245210D01*
X163231878Y-120192000D01*
X163211665Y-120118556D01*
X163183340Y-120021393D01*
X163151776Y-119917084D01*
X163138527Y-119874500D01*
X163102454Y-119758173D01*
X163062981Y-119628537D01*
X163027316Y-119509317D01*
X163019545Y-119482917D01*
X162992064Y-119389141D01*
X162966538Y-119302080D01*
X162947108Y-119235857D01*
X162941961Y-119218333D01*
X162925513Y-119161615D01*
X162914056Y-119120794D01*
X162913258Y-119117792D01*
X162900513Y-119108651D01*
X162865001Y-119101703D01*
X162802702Y-119096723D01*
X162709596Y-119093486D01*
X162581664Y-119091768D01*
X162439997Y-119091333D01*
X161973666Y-119091333D01*
X161952500Y-119091333D01*
X161952500Y-119070167D01*
X172768666Y-119070167D01*
X172768666Y-122329833D01*
X172768666Y-122329833D01*
G37*
X172768666Y-122329833D02*
X161952500Y-122329833D01*
X161952500Y-119091333D01*
X161973666Y-119091333D01*
X161973666Y-122245167D01*
X162608666Y-122245167D01*
X162610140Y-121234458D01*
X162610572Y-121001905D01*
X162611199Y-120808639D01*
X162612128Y-120651613D01*
X162613466Y-120527780D01*
X162615320Y-120434095D01*
X162617797Y-120367510D01*
X162621005Y-120324978D01*
X162625049Y-120303455D01*
X162630037Y-120299892D01*
X162636076Y-120311243D01*
X162641898Y-120329583D01*
X162681820Y-120470722D01*
X162724504Y-120624247D01*
X162759671Y-120752917D01*
X162782565Y-120829736D01*
X162808035Y-120904697D01*
X162810641Y-120911667D01*
X162827220Y-120959103D01*
X162852938Y-121037100D01*
X162884581Y-121135725D01*
X162918932Y-121245049D01*
X162927137Y-121271500D01*
X162968564Y-121404141D01*
X163014731Y-121549926D01*
X163059807Y-121690550D01*
X163095645Y-121800667D01*
X163130190Y-121906951D01*
X163162626Y-122009070D01*
X163188994Y-122094423D01*
X163203745Y-122144625D01*
X163231742Y-122245167D01*
X163873530Y-122245167D01*
X163894940Y-122186958D01*
X163910576Y-122140875D01*
X163934208Y-122067077D01*
X163961748Y-121978423D01*
X163973983Y-121938250D01*
X164001733Y-121848116D01*
X164027203Y-121768183D01*
X164046407Y-121710848D01*
X164051946Y-121695717D01*
X164066879Y-121655048D01*
X164088083Y-121592941D01*
X164117089Y-121504730D01*
X164155432Y-121385749D01*
X164204644Y-121231332D01*
X164208691Y-121218583D01*
X164237703Y-121128934D01*
X164265717Y-121045313D01*
X164287463Y-120983390D01*
X164290529Y-120975167D01*
X164314419Y-120905947D01*
X164338945Y-120825825D01*
X164344538Y-120805833D01*
X164368133Y-120720864D01*
X164393518Y-120631866D01*
X164398331Y-120615333D01*
X164427615Y-120511580D01*
X164455611Y-120405977D01*
X164479261Y-120310634D01*
X164495506Y-120237664D01*
X164499923Y-120213167D01*
X164501544Y-120223057D01*
X164503168Y-120271512D01*
X164504753Y-120354761D01*
X164506260Y-120469037D01*
X164507645Y-120610570D01*
X164508868Y-120775591D01*
X164509888Y-120960330D01*
X164510662Y-121161020D01*
X164510784Y-121202708D01*
X164513666Y-122245167D01*
X165191000Y-122245167D01*
X165191000Y-121585574D01*
X165359905Y-121585574D01*
X165360113Y-121709074D01*
X165372984Y-121826681D01*
X165398384Y-121923009D01*
X165402870Y-121933781D01*
X165438590Y-121994117D01*
X165492131Y-122061507D01*
X165554501Y-122127028D01*
X165616710Y-122181754D01*
X165669767Y-122216762D01*
X165695997Y-122224750D01*
X165739670Y-122235460D01*
X165783666Y-122255750D01*
X165841206Y-122273952D01*
X165927554Y-122284129D01*
X166029963Y-122286322D01*
X166135683Y-122280573D01*
X166231967Y-122266925D01*
X166282604Y-122254110D01*
X166463462Y-122182887D01*
X166610883Y-122096377D01*
X166685405Y-122034319D01*
X166771980Y-121950289D01*
X166798329Y-122097728D01*
X166824677Y-122245167D01*
X167524872Y-122245167D01*
X167510392Y-122165792D01*
X167494819Y-122073355D01*
X167482473Y-121981440D01*
X167473003Y-121883561D01*
X167466057Y-121773232D01*
X167461285Y-121643968D01*
X167458335Y-121489280D01*
X167456855Y-121302685D01*
X167456525Y-121171387D01*
X167456001Y-120982596D01*
X167454722Y-120831202D01*
X167452456Y-120712271D01*
X167448966Y-120620869D01*
X167444018Y-120552061D01*
X167437378Y-120500915D01*
X167428809Y-120462497D01*
X167421767Y-120441137D01*
X167381785Y-120339541D01*
X167347872Y-120266526D01*
X167313574Y-120210232D01*
X167272437Y-120158802D01*
X167261465Y-120146563D01*
X167152264Y-120056385D01*
X167013497Y-119988822D01*
X166851201Y-119943584D01*
X166671413Y-119920380D01*
X166480169Y-119918923D01*
X166283507Y-119938922D01*
X166087464Y-119980088D01*
X165898076Y-120042131D01*
X165721379Y-120124762D01*
X165563411Y-120227691D01*
X165563011Y-120228000D01*
X165507012Y-120273703D01*
X165466417Y-120311524D01*
X165451566Y-120330541D01*
X165459404Y-120360369D01*
X165487014Y-120398448D01*
X165517832Y-120438372D01*
X165529666Y-120466281D01*
X165541972Y-120487579D01*
X165546269Y-120488333D01*
X165567392Y-120504696D01*
X165595950Y-120544363D01*
X165597647Y-120547203D01*
X165635017Y-120602430D01*
X165682911Y-120663672D01*
X165692608Y-120675005D01*
X165731342Y-120716909D01*
X165756072Y-120730398D01*
X165780034Y-120719459D01*
X165795843Y-120706094D01*
X165912824Y-120623799D01*
X166060041Y-120552440D01*
X166225830Y-120496930D01*
X166362594Y-120467460D01*
X166451551Y-120455878D01*
X166517838Y-120455987D01*
X166579663Y-120468483D01*
X166606219Y-120476771D01*
X166685966Y-120512570D01*
X166734943Y-120562405D01*
X166762816Y-120637940D01*
X166769576Y-120673859D01*
X166782615Y-120755399D01*
X166574182Y-120781748D01*
X166343671Y-120817888D01*
X166133449Y-120864816D01*
X165948365Y-120920943D01*
X165793269Y-120984681D01*
X165673009Y-121054442D01*
X165626331Y-121092126D01*
X165585368Y-121126701D01*
X165557555Y-121144143D01*
X165555034Y-121144644D01*
X165533051Y-121161919D01*
X165498717Y-121206577D01*
X165458866Y-121268267D01*
X165420334Y-121336635D01*
X165398023Y-121382439D01*
X165372497Y-121471567D01*
X165359905Y-121585574D01*
X165191000Y-121585574D01*
X165191000Y-119091333D01*
X167688666Y-119091333D01*
X167688666Y-122245167D01*
X168387166Y-122245167D01*
X168388506Y-121641917D01*
X168522120Y-121491270D01*
X168655735Y-121340624D01*
X168695027Y-121417187D01*
X168726376Y-121474633D01*
X168753960Y-121519389D01*
X168758340Y-121525500D01*
X168782027Y-121566258D01*
X168808170Y-121623917D01*
X168811103Y-121631333D01*
X168833064Y-121682367D01*
X168850498Y-121713559D01*
X168852775Y-121716000D01*
X168861420Y-121726375D01*
X168876045Y-121750043D01*
X168899269Y-121791847D01*
X168933709Y-121856632D01*
X168981982Y-121949241D01*
X169046708Y-122074519D01*
X169050113Y-122081125D01*
X169134653Y-122245167D01*
X169501743Y-122245167D01*
X169621082Y-122244590D01*
X169724210Y-122242989D01*
X169804322Y-122240562D01*
X169854612Y-122237503D01*
X169868833Y-122234594D01*
X169859317Y-122209385D01*
X169835435Y-122160649D01*
X169804185Y-122101403D01*
X169772562Y-122044669D01*
X169747566Y-122003465D01*
X169737865Y-121990915D01*
X169719483Y-121964623D01*
X169701423Y-121927236D01*
X169678321Y-121879542D01*
X169642555Y-121813543D01*
X169616819Y-121768917D01*
X169574423Y-121694898D01*
X169523903Y-121603169D01*
X169476898Y-121514917D01*
X169429229Y-121425352D01*
X169378881Y-121333742D01*
X169337328Y-121260917D01*
X169299192Y-121193928D01*
X169267915Y-121135026D01*
X169255315Y-121108487D01*
X169249079Y-121096048D01*
X169678855Y-121096048D01*
X169680579Y-121261903D01*
X169695741Y-121410451D01*
X169710491Y-121481302D01*
X169781479Y-121690574D01*
X169876753Y-121866118D01*
X169998373Y-122010233D01*
X170148396Y-122125221D01*
X170328883Y-122213382D01*
X170383266Y-122232938D01*
X170450935Y-122253891D01*
X170514632Y-122268409D01*
X170584839Y-122277691D01*
X170672037Y-122282938D01*
X170786708Y-122285348D01*
X170845034Y-122285801D01*
X170977954Y-122285469D01*
X171078572Y-122282183D01*
X171156871Y-122275016D01*
X171222835Y-122263044D01*
X171286446Y-122245341D01*
X171288514Y-122244683D01*
X171370583Y-122215995D01*
X171458612Y-122181296D01*
X171542489Y-122145060D01*
X171612104Y-122111764D01*
X171657347Y-122085884D01*
X171668000Y-122076686D01*
X171691849Y-122057268D01*
X171737099Y-122028120D01*
X171747375Y-122022050D01*
X171792383Y-121987731D01*
X171815392Y-121954265D01*
X171816166Y-121948847D01*
X171805343Y-121916471D01*
X171777432Y-121860947D01*
X171739270Y-121794051D01*
X171697694Y-121727561D01*
X171659541Y-121673251D01*
X171647648Y-121658587D01*
X171622268Y-121620317D01*
X171601011Y-121579212D01*
X171594470Y-121567833D01*
X171985500Y-121567833D01*
X171985500Y-122245167D01*
X172726333Y-122245167D01*
X172726333Y-121567833D01*
X171985500Y-121567833D01*
X171594470Y-121567833D01*
X171577602Y-121538494D01*
X171552245Y-121529782D01*
X171514673Y-121552996D01*
X171486184Y-121578322D01*
X171396672Y-121642920D01*
X171278576Y-121702435D01*
X171145644Y-121751845D01*
X171011627Y-121786124D01*
X170890273Y-121800250D01*
X170878508Y-121800358D01*
X170794277Y-121791664D01*
X170704784Y-121769446D01*
X170626011Y-121738707D01*
X170574724Y-121705248D01*
X170535633Y-121671241D01*
X170517151Y-121658259D01*
X170489641Y-121626719D01*
X170456012Y-121568109D01*
X170422653Y-121495801D01*
X170395954Y-121423168D01*
X170385198Y-121382117D01*
X170371541Y-121313833D01*
X171885911Y-121313833D01*
X171872098Y-121128625D01*
X171845469Y-120885084D01*
X171804024Y-120676590D01*
X171746644Y-120498134D01*
X171714629Y-120424833D01*
X171665449Y-120342882D01*
X171596033Y-120253608D01*
X171516440Y-120167773D01*
X171436731Y-120096138D01*
X171366964Y-120049462D01*
X171361083Y-120046655D01*
X171302103Y-120018845D01*
X171255250Y-119995407D01*
X171189915Y-119970960D01*
X171141008Y-119959167D01*
X171985500Y-119959167D01*
X171985500Y-120657667D01*
X172726333Y-120657667D01*
X172726333Y-119959167D01*
X171985500Y-119959167D01*
X171141008Y-119959167D01*
X171096525Y-119948441D01*
X170989353Y-119930449D01*
X170882672Y-119919583D01*
X170827938Y-119917577D01*
X170655307Y-119931576D01*
X170472763Y-119972508D01*
X170298918Y-120036024D01*
X170276371Y-120046453D01*
X170186646Y-120097827D01*
X170090933Y-120166674D01*
X169999718Y-120244003D01*
X169923491Y-120320822D01*
X169872740Y-120388139D01*
X169868246Y-120396330D01*
X169841535Y-120442230D01*
X169820524Y-120468831D01*
X169820313Y-120468990D01*
X169805703Y-120493636D01*
X169782158Y-120547767D01*
X169754229Y-120620738D01*
X169747927Y-120638323D01*
X169713167Y-120769889D01*
X169689931Y-120927253D01*
X169678855Y-121096048D01*
X169249079Y-121096048D01*
X169231609Y-121061207D01*
X169196454Y-121000131D01*
X169184924Y-120981487D01*
X169139526Y-120903315D01*
X169119585Y-120847779D01*
X169123698Y-120804795D01*
X169150463Y-120764279D01*
X169154126Y-120760199D01*
X169191865Y-120717904D01*
X169245792Y-120656319D01*
X169304610Y-120588349D01*
X169307916Y-120584503D01*
X169361731Y-120522095D01*
X169406463Y-120470615D01*
X169433517Y-120439950D01*
X169435484Y-120437794D01*
X169458002Y-120412212D01*
X169500774Y-120362683D01*
X169556640Y-120297518D01*
X169592506Y-120255500D01*
X169654489Y-120183683D01*
X169709560Y-120121523D01*
X169749764Y-120077921D01*
X169762740Y-120065000D01*
X169797962Y-120022023D01*
X169811429Y-119996208D01*
X169813659Y-119982854D01*
X169805244Y-119973149D01*
X169780637Y-119966518D01*
X169734288Y-119962383D01*
X169660649Y-119960166D01*
X169554173Y-119959290D01*
X169455419Y-119959166D01*
X169320993Y-119958820D01*
X169221135Y-119959749D01*
X169148109Y-119964905D01*
X169094184Y-119977238D01*
X169051625Y-119999701D01*
X169012699Y-120035243D01*
X168969673Y-120086818D01*
X168914812Y-120157374D01*
X168905750Y-120168932D01*
X168850926Y-120237756D01*
X168802016Y-120297609D01*
X168768172Y-120337323D01*
X168764188Y-120341684D01*
X168733262Y-120376836D01*
X168685772Y-120433111D01*
X168631707Y-120498661D01*
X168628874Y-120502137D01*
X168577040Y-120565269D01*
X168533557Y-120617320D01*
X168507147Y-120647861D01*
X168505852Y-120649255D01*
X168475409Y-120683150D01*
X168440083Y-120724096D01*
X168397750Y-120774083D01*
X168386680Y-119091333D01*
X167688666Y-119091333D01*
X165191000Y-119091333D01*
X164242641Y-119091333D01*
X164217450Y-119160125D01*
X164199016Y-119216067D01*
X164175326Y-119295410D01*
X164152572Y-119377083D01*
X164126496Y-119473093D01*
X164098856Y-119572796D01*
X164079338Y-119641667D01*
X164057918Y-119717387D01*
X164030562Y-119816020D01*
X164002247Y-119919572D01*
X163994398Y-119948583D01*
X163966704Y-120050144D01*
X163938411Y-120152118D01*
X163914521Y-120236512D01*
X163909024Y-120255500D01*
X163886644Y-120333064D01*
X163866525Y-120404269D01*
X163857963Y-120435417D01*
X163839053Y-120503897D01*
X163812135Y-120599077D01*
X163781178Y-120707055D01*
X163750152Y-120813927D01*
X163740108Y-120848167D01*
X163717130Y-120926283D01*
X163690424Y-121017118D01*
X163677870Y-121059833D01*
X163654926Y-121141794D01*
X163634385Y-121221588D01*
X163626269Y-121256464D01*
X163609484Y-121321239D01*
X163594583Y-121344381D01*
X163578972Y-121326355D01*
X163560231Y-121268269D01*
X163523899Y-121140189D01*
X163486192Y-121016546D01*
X163452071Y-120913447D01*
X163443852Y-120890500D01*
X163422212Y-120823618D01*
X163399623Y-120742187D01*
X163391833Y-120710583D01*
X163371179Y-120630995D01*
X163348343Y-120554841D01*
X163340077Y-120530667D01*
X163299999Y-120418023D01*
X163270402Y-120328326D01*
X163246058Y-120245210D01*
X163231878Y-120192000D01*
X163211665Y-120118556D01*
X163183340Y-120021393D01*
X163151776Y-119917084D01*
X163138527Y-119874500D01*
X163102454Y-119758173D01*
X163062981Y-119628537D01*
X163027316Y-119509317D01*
X163019545Y-119482917D01*
X162992064Y-119389141D01*
X162966538Y-119302080D01*
X162947108Y-119235857D01*
X162941961Y-119218333D01*
X162925513Y-119161615D01*
X162914056Y-119120794D01*
X162913258Y-119117792D01*
X162900513Y-119108651D01*
X162865001Y-119101703D01*
X162802702Y-119096723D01*
X162709596Y-119093486D01*
X162581664Y-119091768D01*
X162439997Y-119091333D01*
X161973666Y-119091333D01*
X161952500Y-119091333D01*
X161952500Y-119070167D01*
X172768666Y-119070167D01*
X172768666Y-122329833D01*
G36*
X166778134Y-121361458D02*
X166775482Y-121467686D01*
X166763491Y-121542587D01*
X166735407Y-121595907D01*
X166684475Y-121637394D01*
X166603941Y-121676792D01*
X166542056Y-121702109D01*
X166393018Y-121746474D01*
X166262886Y-121753442D01*
X166152081Y-121722993D01*
X166149668Y-121721804D01*
X166085020Y-121667613D01*
X166050530Y-121588787D01*
X166049715Y-121493593D01*
X166050565Y-121488853D01*
X166081542Y-121421615D01*
X166144031Y-121353532D01*
X166228320Y-121293393D01*
X166308073Y-121255739D01*
X166386204Y-121230996D01*
X166481613Y-121206401D01*
X166579557Y-121185175D01*
X166665293Y-121170541D01*
X166720283Y-121165667D01*
X166778500Y-121165667D01*
X166778134Y-121361458D01*
X166778134Y-121361458D01*
G37*
X166778134Y-121361458D02*
X166775482Y-121467686D01*
X166763491Y-121542587D01*
X166735407Y-121595907D01*
X166684475Y-121637394D01*
X166603941Y-121676792D01*
X166542056Y-121702109D01*
X166393018Y-121746474D01*
X166262886Y-121753442D01*
X166152081Y-121722993D01*
X166149668Y-121721804D01*
X166085020Y-121667613D01*
X166050530Y-121588787D01*
X166049715Y-121493593D01*
X166050565Y-121488853D01*
X166081542Y-121421615D01*
X166144031Y-121353532D01*
X166228320Y-121293393D01*
X166308073Y-121255739D01*
X166386204Y-121230996D01*
X166481613Y-121206401D01*
X166579557Y-121185175D01*
X166665293Y-121170541D01*
X166720283Y-121165667D01*
X166778500Y-121165667D01*
X166778134Y-121361458D01*
G36*
X170958837Y-120452502D02*
X170990283Y-120466971D01*
X171091552Y-120541914D01*
X171167820Y-120650782D01*
X171209737Y-120758208D01*
X171242384Y-120869333D01*
X170373980Y-120869333D01*
X170388525Y-120821708D01*
X170447600Y-120679536D01*
X170526812Y-120566233D01*
X170621850Y-120484337D01*
X170728407Y-120436390D01*
X170842172Y-120424931D01*
X170958837Y-120452502D01*
X170958837Y-120452502D01*
G37*
X170958837Y-120452502D02*
X170990283Y-120466971D01*
X171091552Y-120541914D01*
X171167820Y-120650782D01*
X171209737Y-120758208D01*
X171242384Y-120869333D01*
X170373980Y-120869333D01*
X170388525Y-120821708D01*
X170447600Y-120679536D01*
X170526812Y-120566233D01*
X170621850Y-120484337D01*
X170728407Y-120436390D01*
X170842172Y-120424931D01*
X170958837Y-120452502D01*
D10*
G36*
X127442500Y-121443271D02*
X127402050Y-121537656D01*
X127297499Y-121691032D01*
X127154043Y-121872087D01*
X126996877Y-122049507D01*
X126851199Y-122191979D01*
X126817337Y-122220208D01*
X126433085Y-122459503D01*
X125994700Y-122625345D01*
X125539631Y-122708702D01*
X125105323Y-122700540D01*
X124949866Y-122670653D01*
X124476063Y-122489067D01*
X124037104Y-122197132D01*
X123778047Y-121950454D01*
X123616899Y-121762351D01*
X123491677Y-121594321D01*
X123427605Y-121480449D01*
X123425807Y-121474437D01*
X123416453Y-121387979D01*
X123476660Y-121382024D01*
X123548441Y-121406754D01*
X123708284Y-121443237D01*
X123923481Y-121464102D01*
X124003504Y-121466000D01*
X124312650Y-121420829D01*
X124567919Y-121275069D01*
X124735089Y-121099843D01*
X124825733Y-121001595D01*
X124894793Y-120997667D01*
X124968285Y-121055318D01*
X125173586Y-121164768D01*
X125432222Y-121198535D01*
X125693627Y-121153965D01*
X125812686Y-121099646D01*
X126030141Y-120971344D01*
X126233584Y-121187033D01*
X126415605Y-121348913D01*
X126605706Y-121436891D01*
X126843924Y-121463001D01*
X127098896Y-121447139D01*
X127287840Y-121432879D01*
X127412642Y-121433507D01*
X127442500Y-121443271D01*
X127442500Y-121443271D01*
X127442500Y-121443271D01*
G37*
X127442500Y-121443271D02*
X127402050Y-121537656D01*
X127297499Y-121691032D01*
X127154043Y-121872087D01*
X126996877Y-122049507D01*
X126851199Y-122191979D01*
X126817337Y-122220208D01*
X126433085Y-122459503D01*
X125994700Y-122625345D01*
X125539631Y-122708702D01*
X125105323Y-122700540D01*
X124949866Y-122670653D01*
X124476063Y-122489067D01*
X124037104Y-122197132D01*
X123778047Y-121950454D01*
X123616899Y-121762351D01*
X123491677Y-121594321D01*
X123427605Y-121480449D01*
X123425807Y-121474437D01*
X123416453Y-121387979D01*
X123476660Y-121382024D01*
X123548441Y-121406754D01*
X123708284Y-121443237D01*
X123923481Y-121464102D01*
X124003504Y-121466000D01*
X124312650Y-121420829D01*
X124567919Y-121275069D01*
X124735089Y-121099843D01*
X124825733Y-121001595D01*
X124894793Y-120997667D01*
X124968285Y-121055318D01*
X125173586Y-121164768D01*
X125432222Y-121198535D01*
X125693627Y-121153965D01*
X125812686Y-121099646D01*
X126030141Y-120971344D01*
X126233584Y-121187033D01*
X126415605Y-121348913D01*
X126605706Y-121436891D01*
X126843924Y-121463001D01*
X127098896Y-121447139D01*
X127287840Y-121432879D01*
X127412642Y-121433507D01*
X127442500Y-121443271D01*
X127442500Y-121443271D01*
G36*
X121693612Y-120585546D02*
X121626870Y-120816837D01*
X121478678Y-121009387D01*
X121271793Y-121145240D01*
X121028974Y-121206438D01*
X120772981Y-121175025D01*
X120654989Y-121123385D01*
X120473304Y-120956330D01*
X120361930Y-120720509D01*
X120330774Y-120458870D01*
X120389742Y-120214362D01*
X120429604Y-120146266D01*
X120636745Y-119943570D01*
X120880243Y-119847305D01*
X121133764Y-119853452D01*
X121370978Y-119957991D01*
X121565551Y-120156904D01*
X121656143Y-120333470D01*
X121693612Y-120585546D01*
X121693612Y-120585546D01*
X121693612Y-120585546D01*
G37*
X121693612Y-120585546D02*
X121626870Y-120816837D01*
X121478678Y-121009387D01*
X121271793Y-121145240D01*
X121028974Y-121206438D01*
X120772981Y-121175025D01*
X120654989Y-121123385D01*
X120473304Y-120956330D01*
X120361930Y-120720509D01*
X120330774Y-120458870D01*
X120389742Y-120214362D01*
X120429604Y-120146266D01*
X120636745Y-119943570D01*
X120880243Y-119847305D01*
X121133764Y-119853452D01*
X121370978Y-119957991D01*
X121565551Y-120156904D01*
X121656143Y-120333470D01*
X121693612Y-120585546D01*
X121693612Y-120585546D01*
G36*
X124647848Y-120473060D02*
X124610284Y-120749578D01*
X124542755Y-120895166D01*
X124359264Y-121092868D01*
X124117669Y-121197842D01*
X123851749Y-121205030D01*
X123595285Y-121109374D01*
X123512531Y-121049422D01*
X123341581Y-120837353D01*
X123274458Y-120599238D01*
X123298354Y-120358860D01*
X123400461Y-120140000D01*
X123567972Y-119966442D01*
X123788080Y-119861968D01*
X124047976Y-119850358D01*
X124146228Y-119872714D01*
X124405573Y-120008205D01*
X124576195Y-120217128D01*
X124647848Y-120473060D01*
X124647848Y-120473060D01*
X124647848Y-120473060D01*
G37*
X124647848Y-120473060D02*
X124610284Y-120749578D01*
X124542755Y-120895166D01*
X124359264Y-121092868D01*
X124117669Y-121197842D01*
X123851749Y-121205030D01*
X123595285Y-121109374D01*
X123512531Y-121049422D01*
X123341581Y-120837353D01*
X123274458Y-120599238D01*
X123298354Y-120358860D01*
X123400461Y-120140000D01*
X123567972Y-119966442D01*
X123788080Y-119861968D01*
X124047976Y-119850358D01*
X124146228Y-119872714D01*
X124405573Y-120008205D01*
X124576195Y-120217128D01*
X124647848Y-120473060D01*
X124647848Y-120473060D01*
G36*
X127633000Y-120510575D02*
X127585437Y-120722533D01*
X127465190Y-120942717D01*
X127305918Y-121109927D01*
X127301733Y-121112895D01*
X127109754Y-121186796D01*
X126865903Y-121203653D01*
X126632902Y-121161169D01*
X126580182Y-121139321D01*
X126399083Y-120986475D01*
X126282583Y-120756428D01*
X126249907Y-120490594D01*
X126254890Y-120438489D01*
X126336280Y-120166479D01*
X126504509Y-119980216D01*
X126745202Y-119870637D01*
X126941218Y-119833244D01*
X127112640Y-119866937D01*
X127198029Y-119903961D01*
X127407858Y-120054683D01*
X127563004Y-120262455D01*
X127631999Y-120483393D01*
X127633000Y-120510575D01*
X127633000Y-120510575D01*
X127633000Y-120510575D01*
G37*
X127633000Y-120510575D02*
X127585437Y-120722533D01*
X127465190Y-120942717D01*
X127305918Y-121109927D01*
X127301733Y-121112895D01*
X127109754Y-121186796D01*
X126865903Y-121203653D01*
X126632902Y-121161169D01*
X126580182Y-121139321D01*
X126399083Y-120986475D01*
X126282583Y-120756428D01*
X126249907Y-120490594D01*
X126254890Y-120438489D01*
X126336280Y-120166479D01*
X126504509Y-119980216D01*
X126745202Y-119870637D01*
X126941218Y-119833244D01*
X127112640Y-119866937D01*
X127198029Y-119903961D01*
X127407858Y-120054683D01*
X127563004Y-120262455D01*
X127631999Y-120483393D01*
X127633000Y-120510575D01*
X127633000Y-120510575D01*
G36*
X124584078Y-119744634D02*
X124364328Y-119652817D01*
X124152774Y-119589089D01*
X123943451Y-119561283D01*
X123936164Y-119561237D01*
X123710608Y-119606844D01*
X123466590Y-119722615D01*
X123262553Y-119877648D01*
X123200625Y-119950161D01*
X123138740Y-120023351D01*
X123074304Y-120025191D01*
X122962209Y-119952740D01*
X122935190Y-119932839D01*
X122690839Y-119822380D01*
X122411200Y-119801154D01*
X122147700Y-119869576D01*
X122053441Y-119925718D01*
X121880262Y-120053754D01*
X121650251Y-119842965D01*
X121355112Y-119646137D01*
X121036742Y-119573820D01*
X120698317Y-119626685D01*
X120671481Y-119635979D01*
X120407826Y-119730789D01*
X120471571Y-119547929D01*
X120586275Y-119337826D01*
X120781375Y-119096653D01*
X121026193Y-118854924D01*
X121290055Y-118643151D01*
X121524929Y-118500183D01*
X121723319Y-118411173D01*
X121902124Y-118357716D01*
X122106738Y-118331187D01*
X122382555Y-118322960D01*
X122458701Y-118322750D01*
X122750177Y-118327326D01*
X122962459Y-118347718D01*
X123143217Y-118393914D01*
X123340123Y-118475907D01*
X123456160Y-118531791D01*
X123905342Y-118820016D01*
X124266505Y-119196458D01*
X124463082Y-119509942D01*
X124584078Y-119744634D01*
X124584078Y-119744634D01*
X124584078Y-119744634D01*
G37*
X124584078Y-119744634D02*
X124364328Y-119652817D01*
X124152774Y-119589089D01*
X123943451Y-119561283D01*
X123936164Y-119561237D01*
X123710608Y-119606844D01*
X123466590Y-119722615D01*
X123262553Y-119877648D01*
X123200625Y-119950161D01*
X123138740Y-120023351D01*
X123074304Y-120025191D01*
X122962209Y-119952740D01*
X122935190Y-119932839D01*
X122690839Y-119822380D01*
X122411200Y-119801154D01*
X122147700Y-119869576D01*
X122053441Y-119925718D01*
X121880262Y-120053754D01*
X121650251Y-119842965D01*
X121355112Y-119646137D01*
X121036742Y-119573820D01*
X120698317Y-119626685D01*
X120671481Y-119635979D01*
X120407826Y-119730789D01*
X120471571Y-119547929D01*
X120586275Y-119337826D01*
X120781375Y-119096653D01*
X121026193Y-118854924D01*
X121290055Y-118643151D01*
X121524929Y-118500183D01*
X121723319Y-118411173D01*
X121902124Y-118357716D01*
X122106738Y-118331187D01*
X122382555Y-118322960D01*
X122458701Y-118322750D01*
X122750177Y-118327326D01*
X122962459Y-118347718D01*
X123143217Y-118393914D01*
X123340123Y-118475907D01*
X123456160Y-118531791D01*
X123905342Y-118820016D01*
X124266505Y-119196458D01*
X124463082Y-119509942D01*
X124584078Y-119744634D01*
X124584078Y-119744634D01*
G36*
X160749993Y-120664819D02*
X160749597Y-120741526D01*
X160748199Y-120810278D01*
X160747836Y-120821275D01*
X160742556Y-120970192D01*
X160614653Y-120994162D01*
X160515380Y-121012838D01*
X160427077Y-121029594D01*
X160350880Y-121044210D01*
X160287927Y-121056464D01*
X160239353Y-121066135D01*
X160206294Y-121073002D01*
X160189888Y-121076843D01*
X160189509Y-121076957D01*
X160175812Y-121086696D01*
X160160665Y-121108785D01*
X160143272Y-121144751D01*
X160122835Y-121196123D01*
X160112064Y-121225715D01*
X160095397Y-121269496D01*
X160074216Y-121320926D01*
X160052107Y-121371418D01*
X160043210Y-121390694D01*
X160019403Y-121442782D01*
X160003885Y-121482508D01*
X159996460Y-121513548D01*
X159996929Y-121539574D01*
X160005094Y-121564261D01*
X160020758Y-121591283D01*
X160031565Y-121607138D01*
X160094763Y-121698034D01*
X160149622Y-121778016D01*
X160195661Y-121846363D01*
X160232401Y-121902353D01*
X160259363Y-121945267D01*
X160276068Y-121974383D01*
X160277151Y-121976497D01*
X160301215Y-122024245D01*
X160104865Y-122223432D01*
X160055474Y-122273156D01*
X160009515Y-122318701D01*
X159968691Y-122358436D01*
X159934707Y-122390728D01*
X159909265Y-122413946D01*
X159894069Y-122426459D01*
X159891194Y-122428116D01*
X159882056Y-122429299D01*
X159870088Y-122426908D01*
X159853574Y-122419927D01*
X159830800Y-122407343D01*
X159800051Y-122388141D01*
X159759610Y-122361307D01*
X159707765Y-122325827D01*
X159647643Y-122284065D01*
X159598389Y-122250096D01*
X159550837Y-122218000D01*
X159508230Y-122189914D01*
X159473811Y-122167975D01*
X159450823Y-122154318D01*
X159450223Y-122153994D01*
X159402482Y-122128322D01*
X159364045Y-122149615D01*
X159327297Y-122169527D01*
X159288599Y-122189761D01*
X159251342Y-122208637D01*
X159218918Y-122224473D01*
X159194719Y-122235590D01*
X159182137Y-122240306D01*
X159181146Y-122240237D01*
X159174997Y-122228466D01*
X159162864Y-122201763D01*
X159145530Y-122162028D01*
X159123779Y-122111163D01*
X159098395Y-122051069D01*
X159070163Y-121983646D01*
X159039866Y-121910795D01*
X159008289Y-121834417D01*
X158976214Y-121756413D01*
X158944428Y-121678684D01*
X158913712Y-121603130D01*
X158884853Y-121531653D01*
X158858632Y-121466152D01*
X158835835Y-121408530D01*
X158817246Y-121360687D01*
X158805212Y-121328786D01*
X158778094Y-121255238D01*
X158841924Y-121211624D01*
X158921160Y-121150584D01*
X158991897Y-121082363D01*
X159051630Y-121009892D01*
X159097855Y-120936102D01*
X159120859Y-120885168D01*
X159130937Y-120852337D01*
X159141019Y-120809806D01*
X159149164Y-120765915D01*
X159150198Y-120759046D01*
X159156241Y-120655467D01*
X159144987Y-120553165D01*
X159117237Y-120454410D01*
X159073795Y-120361471D01*
X159015464Y-120276616D01*
X158957997Y-120215505D01*
X158878927Y-120153807D01*
X158790664Y-120105401D01*
X158696235Y-120071264D01*
X158598667Y-120052377D01*
X158500985Y-120049718D01*
X158458704Y-120053948D01*
X158350868Y-120077497D01*
X158252503Y-120115898D01*
X158164533Y-120168412D01*
X158087883Y-120234298D01*
X158023477Y-120312816D01*
X157972238Y-120403227D01*
X157948278Y-120462646D01*
X157926989Y-120544773D01*
X157916189Y-120634841D01*
X157916292Y-120725704D01*
X157927708Y-120810216D01*
X157928126Y-120812112D01*
X157958433Y-120907160D01*
X158005202Y-120996161D01*
X158067306Y-121077520D01*
X158143621Y-121149643D01*
X158191387Y-121184893D01*
X158225651Y-121208844D01*
X158254656Y-121230685D01*
X158274754Y-121247577D01*
X158281717Y-121255171D01*
X158284241Y-121259012D01*
X158286175Y-121262720D01*
X158287009Y-121267660D01*
X158286232Y-121275200D01*
X158283335Y-121286704D01*
X158277808Y-121303539D01*
X158269139Y-121327071D01*
X158256819Y-121358665D01*
X158240337Y-121399688D01*
X158219184Y-121451506D01*
X158192849Y-121515484D01*
X158160821Y-121592989D01*
X158122591Y-121685386D01*
X158106349Y-121724643D01*
X158064252Y-121826298D01*
X158028420Y-121912556D01*
X157998251Y-121984809D01*
X157973139Y-122044453D01*
X157952482Y-122092882D01*
X157935675Y-122131489D01*
X157922115Y-122161670D01*
X157911198Y-122184818D01*
X157902320Y-122202328D01*
X157894878Y-122215594D01*
X157891123Y-122221673D01*
X157877813Y-122242452D01*
X157775084Y-122187655D01*
X157735403Y-122166957D01*
X157700911Y-122149840D01*
X157675044Y-122137946D01*
X157661240Y-122132921D01*
X157660551Y-122132857D01*
X157649097Y-122137711D01*
X157625168Y-122151195D01*
X157591262Y-122171693D01*
X157549876Y-122197588D01*
X157503507Y-122227264D01*
X157454654Y-122259104D01*
X157405814Y-122291492D01*
X157359484Y-122322811D01*
X157318161Y-122351446D01*
X157284345Y-122375779D01*
X157278630Y-122380041D01*
X157244456Y-122404031D01*
X157214659Y-122421806D01*
X157193215Y-122431095D01*
X157187916Y-122431926D01*
X157176829Y-122427514D01*
X157157772Y-122413969D01*
X157129877Y-122390520D01*
X157092277Y-122356402D01*
X157044106Y-122310844D01*
X156984498Y-122253081D01*
X156969304Y-122238208D01*
X156919137Y-122188511D01*
X156873795Y-122142599D01*
X156834830Y-122102118D01*
X156803794Y-122068716D01*
X156782238Y-122044041D01*
X156771713Y-122029739D01*
X156770926Y-122027586D01*
X156771677Y-122000355D01*
X156779975Y-121977408D01*
X156796267Y-121953285D01*
X156809953Y-121934468D01*
X156831698Y-121903695D01*
X156859516Y-121863854D01*
X156891419Y-121817834D01*
X156925423Y-121768526D01*
X156959540Y-121718817D01*
X156991785Y-121671598D01*
X157020170Y-121629757D01*
X157042710Y-121596184D01*
X157057418Y-121573768D01*
X157059911Y-121569805D01*
X157079877Y-121537430D01*
X157008202Y-121355281D01*
X156985497Y-121298198D01*
X156963461Y-121243918D01*
X156943479Y-121195773D01*
X156926939Y-121157093D01*
X156915227Y-121131211D01*
X156913302Y-121127299D01*
X156905538Y-121112039D01*
X156898083Y-121099758D01*
X156888862Y-121089734D01*
X156875803Y-121081246D01*
X156856832Y-121073573D01*
X156829874Y-121065995D01*
X156792856Y-121057789D01*
X156743705Y-121048236D01*
X156680346Y-121036613D01*
X156622322Y-121026117D01*
X156561298Y-121014902D01*
X156503536Y-121003973D01*
X156452392Y-120993988D01*
X156411222Y-120985606D01*
X156383384Y-120979488D01*
X156377393Y-120977998D01*
X156332036Y-120965999D01*
X156329647Y-120666172D01*
X156327259Y-120366345D01*
X156420362Y-120347213D01*
X156459648Y-120339357D01*
X156511980Y-120329206D01*
X156572545Y-120317676D01*
X156636532Y-120305684D01*
X156694893Y-120294920D01*
X156751109Y-120284476D01*
X156802100Y-120274683D01*
X156844840Y-120266149D01*
X156876306Y-120259479D01*
X156893472Y-120255281D01*
X156894795Y-120254841D01*
X156901507Y-120250832D01*
X156908993Y-120242644D01*
X156918050Y-120228624D01*
X156929478Y-120207124D01*
X156944074Y-120176492D01*
X156962638Y-120135077D01*
X156985969Y-120081229D01*
X157014864Y-120013298D01*
X157036636Y-119961694D01*
X157055227Y-119916540D01*
X157070957Y-119876434D01*
X157082564Y-119844737D01*
X157088790Y-119824814D01*
X157089500Y-119820587D01*
X157084568Y-119807486D01*
X157071106Y-119783012D01*
X157051122Y-119750562D01*
X157026620Y-119713535D01*
X157024394Y-119710286D01*
X156957531Y-119612566D01*
X156901182Y-119529306D01*
X156855200Y-119460283D01*
X156819442Y-119405275D01*
X156793763Y-119364059D01*
X156778019Y-119336411D01*
X156772064Y-119322110D01*
X156772000Y-119321311D01*
X156778065Y-119310857D01*
X156794977Y-119289559D01*
X156820818Y-119259464D01*
X156853668Y-119222617D01*
X156891606Y-119181065D01*
X156932713Y-119136853D01*
X156975069Y-119092027D01*
X157016755Y-119048634D01*
X157055849Y-119008718D01*
X157090432Y-118974326D01*
X157118585Y-118947505D01*
X157138387Y-118930299D01*
X157140301Y-118928836D01*
X157165029Y-118913404D01*
X157187274Y-118904388D01*
X157193855Y-118903429D01*
X157209673Y-118908711D01*
X157235012Y-118922797D01*
X157265317Y-118943044D01*
X157276866Y-118951561D01*
X157310857Y-118976242D01*
X157354347Y-119006288D01*
X157401340Y-119037622D01*
X157439467Y-119062162D01*
X157483470Y-119090550D01*
X157527838Y-119120271D01*
X157567093Y-119147593D01*
X157593349Y-119166917D01*
X157632309Y-119196112D01*
X157660944Y-119215017D01*
X157682578Y-119225299D01*
X157700534Y-119228620D01*
X157714203Y-119227435D01*
X157729779Y-119222534D01*
X157759837Y-119211172D01*
X157802266Y-119194222D01*
X157854954Y-119172558D01*
X157915789Y-119147053D01*
X157982659Y-119118580D01*
X158053453Y-119088012D01*
X158092482Y-119070982D01*
X158120284Y-119058803D01*
X158171033Y-118776673D01*
X158185286Y-118699318D01*
X158198693Y-118630167D01*
X158210852Y-118571106D01*
X158221357Y-118524020D01*
X158229802Y-118490795D01*
X158235783Y-118473316D01*
X158236422Y-118472200D01*
X158251061Y-118449858D01*
X158535492Y-118449858D01*
X158618237Y-118450003D01*
X158684525Y-118450487D01*
X158736042Y-118451378D01*
X158774470Y-118452746D01*
X158801496Y-118454660D01*
X158818804Y-118457190D01*
X158828077Y-118460406D01*
X158830011Y-118462014D01*
X158836935Y-118477675D01*
X158845963Y-118509722D01*
X158856750Y-118556568D01*
X158868954Y-118616622D01*
X158882228Y-118688296D01*
X158894617Y-118760283D01*
X158904140Y-118815389D01*
X158915081Y-118875546D01*
X158925864Y-118932231D01*
X158932436Y-118965086D01*
X158939445Y-118999996D01*
X158945573Y-119026011D01*
X158953294Y-119045490D01*
X158965082Y-119060792D01*
X158983411Y-119074277D01*
X159010754Y-119088304D01*
X159049586Y-119105231D01*
X159102380Y-119127419D01*
X159102884Y-119127632D01*
X159151039Y-119147994D01*
X159202301Y-119169689D01*
X159249005Y-119189473D01*
X159271179Y-119198876D01*
X159307278Y-119213073D01*
X159339712Y-119223852D01*
X159362944Y-119229436D01*
X159367510Y-119229834D01*
X159387680Y-119223912D01*
X159419618Y-119206536D01*
X159461781Y-119178581D01*
X159476367Y-119168136D01*
X159531113Y-119128984D01*
X159590386Y-119087704D01*
X159650856Y-119046520D01*
X159709194Y-119007657D01*
X159762071Y-118973338D01*
X159806157Y-118945787D01*
X159831815Y-118930698D01*
X159884452Y-118901160D01*
X159908610Y-118922705D01*
X159942475Y-118953508D01*
X159982557Y-118990932D01*
X160026804Y-119032965D01*
X160073165Y-119077591D01*
X160119589Y-119122795D01*
X160164025Y-119166565D01*
X160204419Y-119206885D01*
X160238722Y-119241741D01*
X160264882Y-119269118D01*
X160280847Y-119287003D01*
X160284227Y-119291528D01*
X160292538Y-119307204D01*
X160296087Y-119322418D01*
X160293842Y-119339668D01*
X160284767Y-119361452D01*
X160267828Y-119390269D01*
X160241991Y-119428616D01*
X160207143Y-119477708D01*
X160152431Y-119554076D01*
X160107447Y-119617200D01*
X160071222Y-119668492D01*
X160042789Y-119709363D01*
X160021181Y-119741226D01*
X160005431Y-119765491D01*
X159994571Y-119783571D01*
X159987634Y-119796878D01*
X159986172Y-119800150D01*
X159979828Y-119817548D01*
X159978847Y-119832700D01*
X159984158Y-119851350D01*
X159996689Y-119879242D01*
X160000091Y-119886329D01*
X160013839Y-119916378D01*
X160031910Y-119958037D01*
X160052049Y-120006011D01*
X160072002Y-120055001D01*
X160073798Y-120059495D01*
X160101502Y-120126857D01*
X160124768Y-120178459D01*
X160144484Y-120215881D01*
X160161540Y-120240706D01*
X160176825Y-120254517D01*
X160185460Y-120258161D01*
X160202840Y-120261889D01*
X160234802Y-120268279D01*
X160278086Y-120276713D01*
X160329430Y-120286574D01*
X160385573Y-120297243D01*
X160443255Y-120308104D01*
X160499214Y-120318539D01*
X160550188Y-120327931D01*
X160592916Y-120335662D01*
X160618286Y-120340118D01*
X160656761Y-120347301D01*
X160690897Y-120354694D01*
X160714763Y-120360984D01*
X160718921Y-120362415D01*
X160742448Y-120371472D01*
X160747782Y-120521915D01*
X160749387Y-120588750D01*
X160749993Y-120664819D01*
X160749993Y-120664819D01*
X160749993Y-120664819D01*
G37*
X160749993Y-120664819D02*
X160749597Y-120741526D01*
X160748199Y-120810278D01*
X160747836Y-120821275D01*
X160742556Y-120970192D01*
X160614653Y-120994162D01*
X160515380Y-121012838D01*
X160427077Y-121029594D01*
X160350880Y-121044210D01*
X160287927Y-121056464D01*
X160239353Y-121066135D01*
X160206294Y-121073002D01*
X160189888Y-121076843D01*
X160189509Y-121076957D01*
X160175812Y-121086696D01*
X160160665Y-121108785D01*
X160143272Y-121144751D01*
X160122835Y-121196123D01*
X160112064Y-121225715D01*
X160095397Y-121269496D01*
X160074216Y-121320926D01*
X160052107Y-121371418D01*
X160043210Y-121390694D01*
X160019403Y-121442782D01*
X160003885Y-121482508D01*
X159996460Y-121513548D01*
X159996929Y-121539574D01*
X160005094Y-121564261D01*
X160020758Y-121591283D01*
X160031565Y-121607138D01*
X160094763Y-121698034D01*
X160149622Y-121778016D01*
X160195661Y-121846363D01*
X160232401Y-121902353D01*
X160259363Y-121945267D01*
X160276068Y-121974383D01*
X160277151Y-121976497D01*
X160301215Y-122024245D01*
X160104865Y-122223432D01*
X160055474Y-122273156D01*
X160009515Y-122318701D01*
X159968691Y-122358436D01*
X159934707Y-122390728D01*
X159909265Y-122413946D01*
X159894069Y-122426459D01*
X159891194Y-122428116D01*
X159882056Y-122429299D01*
X159870088Y-122426908D01*
X159853574Y-122419927D01*
X159830800Y-122407343D01*
X159800051Y-122388141D01*
X159759610Y-122361307D01*
X159707765Y-122325827D01*
X159647643Y-122284065D01*
X159598389Y-122250096D01*
X159550837Y-122218000D01*
X159508230Y-122189914D01*
X159473811Y-122167975D01*
X159450823Y-122154318D01*
X159450223Y-122153994D01*
X159402482Y-122128322D01*
X159364045Y-122149615D01*
X159327297Y-122169527D01*
X159288599Y-122189761D01*
X159251342Y-122208637D01*
X159218918Y-122224473D01*
X159194719Y-122235590D01*
X159182137Y-122240306D01*
X159181146Y-122240237D01*
X159174997Y-122228466D01*
X159162864Y-122201763D01*
X159145530Y-122162028D01*
X159123779Y-122111163D01*
X159098395Y-122051069D01*
X159070163Y-121983646D01*
X159039866Y-121910795D01*
X159008289Y-121834417D01*
X158976214Y-121756413D01*
X158944428Y-121678684D01*
X158913712Y-121603130D01*
X158884853Y-121531653D01*
X158858632Y-121466152D01*
X158835835Y-121408530D01*
X158817246Y-121360687D01*
X158805212Y-121328786D01*
X158778094Y-121255238D01*
X158841924Y-121211624D01*
X158921160Y-121150584D01*
X158991897Y-121082363D01*
X159051630Y-121009892D01*
X159097855Y-120936102D01*
X159120859Y-120885168D01*
X159130937Y-120852337D01*
X159141019Y-120809806D01*
X159149164Y-120765915D01*
X159150198Y-120759046D01*
X159156241Y-120655467D01*
X159144987Y-120553165D01*
X159117237Y-120454410D01*
X159073795Y-120361471D01*
X159015464Y-120276616D01*
X158957997Y-120215505D01*
X158878927Y-120153807D01*
X158790664Y-120105401D01*
X158696235Y-120071264D01*
X158598667Y-120052377D01*
X158500985Y-120049718D01*
X158458704Y-120053948D01*
X158350868Y-120077497D01*
X158252503Y-120115898D01*
X158164533Y-120168412D01*
X158087883Y-120234298D01*
X158023477Y-120312816D01*
X157972238Y-120403227D01*
X157948278Y-120462646D01*
X157926989Y-120544773D01*
X157916189Y-120634841D01*
X157916292Y-120725704D01*
X157927708Y-120810216D01*
X157928126Y-120812112D01*
X157958433Y-120907160D01*
X158005202Y-120996161D01*
X158067306Y-121077520D01*
X158143621Y-121149643D01*
X158191387Y-121184893D01*
X158225651Y-121208844D01*
X158254656Y-121230685D01*
X158274754Y-121247577D01*
X158281717Y-121255171D01*
X158284241Y-121259012D01*
X158286175Y-121262720D01*
X158287009Y-121267660D01*
X158286232Y-121275200D01*
X158283335Y-121286704D01*
X158277808Y-121303539D01*
X158269139Y-121327071D01*
X158256819Y-121358665D01*
X158240337Y-121399688D01*
X158219184Y-121451506D01*
X158192849Y-121515484D01*
X158160821Y-121592989D01*
X158122591Y-121685386D01*
X158106349Y-121724643D01*
X158064252Y-121826298D01*
X158028420Y-121912556D01*
X157998251Y-121984809D01*
X157973139Y-122044453D01*
X157952482Y-122092882D01*
X157935675Y-122131489D01*
X157922115Y-122161670D01*
X157911198Y-122184818D01*
X157902320Y-122202328D01*
X157894878Y-122215594D01*
X157891123Y-122221673D01*
X157877813Y-122242452D01*
X157775084Y-122187655D01*
X157735403Y-122166957D01*
X157700911Y-122149840D01*
X157675044Y-122137946D01*
X157661240Y-122132921D01*
X157660551Y-122132857D01*
X157649097Y-122137711D01*
X157625168Y-122151195D01*
X157591262Y-122171693D01*
X157549876Y-122197588D01*
X157503507Y-122227264D01*
X157454654Y-122259104D01*
X157405814Y-122291492D01*
X157359484Y-122322811D01*
X157318161Y-122351446D01*
X157284345Y-122375779D01*
X157278630Y-122380041D01*
X157244456Y-122404031D01*
X157214659Y-122421806D01*
X157193215Y-122431095D01*
X157187916Y-122431926D01*
X157176829Y-122427514D01*
X157157772Y-122413969D01*
X157129877Y-122390520D01*
X157092277Y-122356402D01*
X157044106Y-122310844D01*
X156984498Y-122253081D01*
X156969304Y-122238208D01*
X156919137Y-122188511D01*
X156873795Y-122142599D01*
X156834830Y-122102118D01*
X156803794Y-122068716D01*
X156782238Y-122044041D01*
X156771713Y-122029739D01*
X156770926Y-122027586D01*
X156771677Y-122000355D01*
X156779975Y-121977408D01*
X156796267Y-121953285D01*
X156809953Y-121934468D01*
X156831698Y-121903695D01*
X156859516Y-121863854D01*
X156891419Y-121817834D01*
X156925423Y-121768526D01*
X156959540Y-121718817D01*
X156991785Y-121671598D01*
X157020170Y-121629757D01*
X157042710Y-121596184D01*
X157057418Y-121573768D01*
X157059911Y-121569805D01*
X157079877Y-121537430D01*
X157008202Y-121355281D01*
X156985497Y-121298198D01*
X156963461Y-121243918D01*
X156943479Y-121195773D01*
X156926939Y-121157093D01*
X156915227Y-121131211D01*
X156913302Y-121127299D01*
X156905538Y-121112039D01*
X156898083Y-121099758D01*
X156888862Y-121089734D01*
X156875803Y-121081246D01*
X156856832Y-121073573D01*
X156829874Y-121065995D01*
X156792856Y-121057789D01*
X156743705Y-121048236D01*
X156680346Y-121036613D01*
X156622322Y-121026117D01*
X156561298Y-121014902D01*
X156503536Y-121003973D01*
X156452392Y-120993988D01*
X156411222Y-120985606D01*
X156383384Y-120979488D01*
X156377393Y-120977998D01*
X156332036Y-120965999D01*
X156329647Y-120666172D01*
X156327259Y-120366345D01*
X156420362Y-120347213D01*
X156459648Y-120339357D01*
X156511980Y-120329206D01*
X156572545Y-120317676D01*
X156636532Y-120305684D01*
X156694893Y-120294920D01*
X156751109Y-120284476D01*
X156802100Y-120274683D01*
X156844840Y-120266149D01*
X156876306Y-120259479D01*
X156893472Y-120255281D01*
X156894795Y-120254841D01*
X156901507Y-120250832D01*
X156908993Y-120242644D01*
X156918050Y-120228624D01*
X156929478Y-120207124D01*
X156944074Y-120176492D01*
X156962638Y-120135077D01*
X156985969Y-120081229D01*
X157014864Y-120013298D01*
X157036636Y-119961694D01*
X157055227Y-119916540D01*
X157070957Y-119876434D01*
X157082564Y-119844737D01*
X157088790Y-119824814D01*
X157089500Y-119820587D01*
X157084568Y-119807486D01*
X157071106Y-119783012D01*
X157051122Y-119750562D01*
X157026620Y-119713535D01*
X157024394Y-119710286D01*
X156957531Y-119612566D01*
X156901182Y-119529306D01*
X156855200Y-119460283D01*
X156819442Y-119405275D01*
X156793763Y-119364059D01*
X156778019Y-119336411D01*
X156772064Y-119322110D01*
X156772000Y-119321311D01*
X156778065Y-119310857D01*
X156794977Y-119289559D01*
X156820818Y-119259464D01*
X156853668Y-119222617D01*
X156891606Y-119181065D01*
X156932713Y-119136853D01*
X156975069Y-119092027D01*
X157016755Y-119048634D01*
X157055849Y-119008718D01*
X157090432Y-118974326D01*
X157118585Y-118947505D01*
X157138387Y-118930299D01*
X157140301Y-118928836D01*
X157165029Y-118913404D01*
X157187274Y-118904388D01*
X157193855Y-118903429D01*
X157209673Y-118908711D01*
X157235012Y-118922797D01*
X157265317Y-118943044D01*
X157276866Y-118951561D01*
X157310857Y-118976242D01*
X157354347Y-119006288D01*
X157401340Y-119037622D01*
X157439467Y-119062162D01*
X157483470Y-119090550D01*
X157527838Y-119120271D01*
X157567093Y-119147593D01*
X157593349Y-119166917D01*
X157632309Y-119196112D01*
X157660944Y-119215017D01*
X157682578Y-119225299D01*
X157700534Y-119228620D01*
X157714203Y-119227435D01*
X157729779Y-119222534D01*
X157759837Y-119211172D01*
X157802266Y-119194222D01*
X157854954Y-119172558D01*
X157915789Y-119147053D01*
X157982659Y-119118580D01*
X158053453Y-119088012D01*
X158092482Y-119070982D01*
X158120284Y-119058803D01*
X158171033Y-118776673D01*
X158185286Y-118699318D01*
X158198693Y-118630167D01*
X158210852Y-118571106D01*
X158221357Y-118524020D01*
X158229802Y-118490795D01*
X158235783Y-118473316D01*
X158236422Y-118472200D01*
X158251061Y-118449858D01*
X158535492Y-118449858D01*
X158618237Y-118450003D01*
X158684525Y-118450487D01*
X158736042Y-118451378D01*
X158774470Y-118452746D01*
X158801496Y-118454660D01*
X158818804Y-118457190D01*
X158828077Y-118460406D01*
X158830011Y-118462014D01*
X158836935Y-118477675D01*
X158845963Y-118509722D01*
X158856750Y-118556568D01*
X158868954Y-118616622D01*
X158882228Y-118688296D01*
X158894617Y-118760283D01*
X158904140Y-118815389D01*
X158915081Y-118875546D01*
X158925864Y-118932231D01*
X158932436Y-118965086D01*
X158939445Y-118999996D01*
X158945573Y-119026011D01*
X158953294Y-119045490D01*
X158965082Y-119060792D01*
X158983411Y-119074277D01*
X159010754Y-119088304D01*
X159049586Y-119105231D01*
X159102380Y-119127419D01*
X159102884Y-119127632D01*
X159151039Y-119147994D01*
X159202301Y-119169689D01*
X159249005Y-119189473D01*
X159271179Y-119198876D01*
X159307278Y-119213073D01*
X159339712Y-119223852D01*
X159362944Y-119229436D01*
X159367510Y-119229834D01*
X159387680Y-119223912D01*
X159419618Y-119206536D01*
X159461781Y-119178581D01*
X159476367Y-119168136D01*
X159531113Y-119128984D01*
X159590386Y-119087704D01*
X159650856Y-119046520D01*
X159709194Y-119007657D01*
X159762071Y-118973338D01*
X159806157Y-118945787D01*
X159831815Y-118930698D01*
X159884452Y-118901160D01*
X159908610Y-118922705D01*
X159942475Y-118953508D01*
X159982557Y-118990932D01*
X160026804Y-119032965D01*
X160073165Y-119077591D01*
X160119589Y-119122795D01*
X160164025Y-119166565D01*
X160204419Y-119206885D01*
X160238722Y-119241741D01*
X160264882Y-119269118D01*
X160280847Y-119287003D01*
X160284227Y-119291528D01*
X160292538Y-119307204D01*
X160296087Y-119322418D01*
X160293842Y-119339668D01*
X160284767Y-119361452D01*
X160267828Y-119390269D01*
X160241991Y-119428616D01*
X160207143Y-119477708D01*
X160152431Y-119554076D01*
X160107447Y-119617200D01*
X160071222Y-119668492D01*
X160042789Y-119709363D01*
X160021181Y-119741226D01*
X160005431Y-119765491D01*
X159994571Y-119783571D01*
X159987634Y-119796878D01*
X159986172Y-119800150D01*
X159979828Y-119817548D01*
X159978847Y-119832700D01*
X159984158Y-119851350D01*
X159996689Y-119879242D01*
X160000091Y-119886329D01*
X160013839Y-119916378D01*
X160031910Y-119958037D01*
X160052049Y-120006011D01*
X160072002Y-120055001D01*
X160073798Y-120059495D01*
X160101502Y-120126857D01*
X160124768Y-120178459D01*
X160144484Y-120215881D01*
X160161540Y-120240706D01*
X160176825Y-120254517D01*
X160185460Y-120258161D01*
X160202840Y-120261889D01*
X160234802Y-120268279D01*
X160278086Y-120276713D01*
X160329430Y-120286574D01*
X160385573Y-120297243D01*
X160443255Y-120308104D01*
X160499214Y-120318539D01*
X160550188Y-120327931D01*
X160592916Y-120335662D01*
X160618286Y-120340118D01*
X160656761Y-120347301D01*
X160690897Y-120354694D01*
X160714763Y-120360984D01*
X160718921Y-120362415D01*
X160742448Y-120371472D01*
X160747782Y-120521915D01*
X160749387Y-120588750D01*
X160749993Y-120664819D01*
X160749993Y-120664819D01*
D12*
X130780000Y-69020000D02*
X130230000Y-69020000D01*
X130780000Y-67520000D02*
X130780000Y-69020000D01*
X130230000Y-67520000D02*
X130780000Y-67520000D01*
X134230000Y-64720000D02*
X133430000Y-64720000D01*
X135330000Y-74345000D02*
X135330000Y-61695000D01*
X135330000Y-74345000D02*
X130230000Y-74345000D01*
X130230000Y-74345000D02*
X130230000Y-61695000D01*
X135330000Y-61695000D02*
X130230000Y-61695000D01*
X131280000Y-64720000D02*
X131280000Y-66020000D01*
D13*
X154927500Y-94031500D02*
X154927500Y-93371100D01*
X156832500Y-94031500D02*
X156832500Y-93371100D01*
X155880000Y-95428500D02*
X155880000Y-96088900D01*
X157378600Y-95428500D02*
X154381400Y-95428500D01*
X154381400Y-95428500D02*
X154381400Y-94031500D01*
X154381400Y-94031500D02*
X157378600Y-94031500D01*
X157378600Y-94031500D02*
X157378600Y-95428500D01*
D12*
X131583334Y-92407143D02*
X131535715Y-92454762D01*
X131392858Y-92502381D01*
X131297620Y-92502381D01*
X131154762Y-92454762D01*
X131059524Y-92359524D01*
X131011905Y-92264286D01*
X130964286Y-92073810D01*
X130964286Y-91930952D01*
X131011905Y-91740476D01*
X131059524Y-91645238D01*
X131154762Y-91550000D01*
X131297620Y-91502381D01*
X131392858Y-91502381D01*
X131535715Y-91550000D01*
X131583334Y-91597619D01*
X132535715Y-92502381D02*
X131964286Y-92502381D01*
X132250000Y-92502381D02*
X132250000Y-91502381D01*
X132154762Y-91645238D01*
X132059524Y-91740476D01*
X131964286Y-91788095D01*
X136683334Y-85607143D02*
X136635715Y-85654762D01*
X136492858Y-85702381D01*
X136397620Y-85702381D01*
X136254762Y-85654762D01*
X136159524Y-85559524D01*
X136111905Y-85464286D01*
X136064286Y-85273810D01*
X136064286Y-85130952D01*
X136111905Y-84940476D01*
X136159524Y-84845238D01*
X136254762Y-84750000D01*
X136397620Y-84702381D01*
X136492858Y-84702381D01*
X136635715Y-84750000D01*
X136683334Y-84797619D01*
X137064286Y-84797619D02*
X137111905Y-84750000D01*
X137207143Y-84702381D01*
X137445239Y-84702381D01*
X137540477Y-84750000D01*
X137588096Y-84797619D01*
X137635715Y-84892857D01*
X137635715Y-84988095D01*
X137588096Y-85130952D01*
X137016667Y-85702381D01*
X137635715Y-85702381D01*
X143613334Y-100817143D02*
X143565715Y-100864762D01*
X143422858Y-100912381D01*
X143327620Y-100912381D01*
X143184762Y-100864762D01*
X143089524Y-100769524D01*
X143041905Y-100674286D01*
X142994286Y-100483810D01*
X142994286Y-100340952D01*
X143041905Y-100150476D01*
X143089524Y-100055238D01*
X143184762Y-99960000D01*
X143327620Y-99912381D01*
X143422858Y-99912381D01*
X143565715Y-99960000D01*
X143613334Y-100007619D01*
X143946667Y-99912381D02*
X144565715Y-99912381D01*
X144232381Y-100293333D01*
X144375239Y-100293333D01*
X144470477Y-100340952D01*
X144518096Y-100388571D01*
X144565715Y-100483810D01*
X144565715Y-100721905D01*
X144518096Y-100817143D01*
X144470477Y-100864762D01*
X144375239Y-100912381D01*
X144089524Y-100912381D01*
X143994286Y-100864762D01*
X143946667Y-100817143D01*
X131433334Y-90807143D02*
X131385715Y-90854762D01*
X131242858Y-90902381D01*
X131147620Y-90902381D01*
X131004762Y-90854762D01*
X130909524Y-90759524D01*
X130861905Y-90664286D01*
X130814286Y-90473810D01*
X130814286Y-90330952D01*
X130861905Y-90140476D01*
X130909524Y-90045238D01*
X131004762Y-89950000D01*
X131147620Y-89902381D01*
X131242858Y-89902381D01*
X131385715Y-89950000D01*
X131433334Y-89997619D01*
X132290477Y-90235714D02*
X132290477Y-90902381D01*
X132052381Y-89854762D02*
X131814286Y-90569048D01*
X132433334Y-90569048D01*
X144733334Y-81337143D02*
X144685715Y-81384762D01*
X144542858Y-81432381D01*
X144447620Y-81432381D01*
X144304762Y-81384762D01*
X144209524Y-81289524D01*
X144161905Y-81194286D01*
X144114286Y-81003810D01*
X144114286Y-80860952D01*
X144161905Y-80670476D01*
X144209524Y-80575238D01*
X144304762Y-80480000D01*
X144447620Y-80432381D01*
X144542858Y-80432381D01*
X144685715Y-80480000D01*
X144733334Y-80527619D01*
X145638096Y-80432381D02*
X145161905Y-80432381D01*
X145114286Y-80908571D01*
X145161905Y-80860952D01*
X145257143Y-80813333D01*
X145495239Y-80813333D01*
X145590477Y-80860952D01*
X145638096Y-80908571D01*
X145685715Y-81003810D01*
X145685715Y-81241905D01*
X145638096Y-81337143D01*
X145590477Y-81384762D01*
X145495239Y-81432381D01*
X145257143Y-81432381D01*
X145161905Y-81384762D01*
X145114286Y-81337143D01*
X158473334Y-97577143D02*
X158425715Y-97624762D01*
X158282858Y-97672381D01*
X158187620Y-97672381D01*
X158044762Y-97624762D01*
X157949524Y-97529524D01*
X157901905Y-97434286D01*
X157854286Y-97243810D01*
X157854286Y-97100952D01*
X157901905Y-96910476D01*
X157949524Y-96815238D01*
X158044762Y-96720000D01*
X158187620Y-96672381D01*
X158282858Y-96672381D01*
X158425715Y-96720000D01*
X158473334Y-96767619D01*
X159330477Y-96672381D02*
X159140000Y-96672381D01*
X159044762Y-96720000D01*
X158997143Y-96767619D01*
X158901905Y-96910476D01*
X158854286Y-97100952D01*
X158854286Y-97481905D01*
X158901905Y-97577143D01*
X158949524Y-97624762D01*
X159044762Y-97672381D01*
X159235239Y-97672381D01*
X159330477Y-97624762D01*
X159378096Y-97577143D01*
X159425715Y-97481905D01*
X159425715Y-97243810D01*
X159378096Y-97148571D01*
X159330477Y-97100952D01*
X159235239Y-97053333D01*
X159044762Y-97053333D01*
X158949524Y-97100952D01*
X158901905Y-97148571D01*
X158854286Y-97243810D01*
X139193334Y-119147143D02*
X139145715Y-119194762D01*
X139002858Y-119242381D01*
X138907620Y-119242381D01*
X138764762Y-119194762D01*
X138669524Y-119099524D01*
X138621905Y-119004286D01*
X138574286Y-118813810D01*
X138574286Y-118670952D01*
X138621905Y-118480476D01*
X138669524Y-118385238D01*
X138764762Y-118290000D01*
X138907620Y-118242381D01*
X139002858Y-118242381D01*
X139145715Y-118290000D01*
X139193334Y-118337619D01*
X139526667Y-118242381D02*
X140193334Y-118242381D01*
X139764762Y-119242381D01*
X120593334Y-90147143D02*
X120545715Y-90194762D01*
X120402858Y-90242381D01*
X120307620Y-90242381D01*
X120164762Y-90194762D01*
X120069524Y-90099524D01*
X120021905Y-90004286D01*
X119974286Y-89813810D01*
X119974286Y-89670952D01*
X120021905Y-89480476D01*
X120069524Y-89385238D01*
X120164762Y-89290000D01*
X120307620Y-89242381D01*
X120402858Y-89242381D01*
X120545715Y-89290000D01*
X120593334Y-89337619D01*
X121164762Y-89670952D02*
X121069524Y-89623333D01*
X121021905Y-89575714D01*
X120974286Y-89480476D01*
X120974286Y-89432857D01*
X121021905Y-89337619D01*
X121069524Y-89290000D01*
X121164762Y-89242381D01*
X121355239Y-89242381D01*
X121450477Y-89290000D01*
X121498096Y-89337619D01*
X121545715Y-89432857D01*
X121545715Y-89480476D01*
X121498096Y-89575714D01*
X121450477Y-89623333D01*
X121355239Y-89670952D01*
X121164762Y-89670952D01*
X121069524Y-89718571D01*
X121021905Y-89766190D01*
X120974286Y-89861429D01*
X120974286Y-90051905D01*
X121021905Y-90147143D01*
X121069524Y-90194762D01*
X121164762Y-90242381D01*
X121355239Y-90242381D01*
X121450477Y-90194762D01*
X121498096Y-90147143D01*
X121545715Y-90051905D01*
X121545715Y-89861429D01*
X121498096Y-89766190D01*
X121450477Y-89718571D01*
X121355239Y-89670952D01*
X124883334Y-84967143D02*
X124835715Y-85014762D01*
X124692858Y-85062381D01*
X124597620Y-85062381D01*
X124454762Y-85014762D01*
X124359524Y-84919524D01*
X124311905Y-84824286D01*
X124264286Y-84633810D01*
X124264286Y-84490952D01*
X124311905Y-84300476D01*
X124359524Y-84205238D01*
X124454762Y-84110000D01*
X124597620Y-84062381D01*
X124692858Y-84062381D01*
X124835715Y-84110000D01*
X124883334Y-84157619D01*
X125359524Y-85062381D02*
X125550000Y-85062381D01*
X125645239Y-85014762D01*
X125692858Y-84967143D01*
X125788096Y-84824286D01*
X125835715Y-84633810D01*
X125835715Y-84252857D01*
X125788096Y-84157619D01*
X125740477Y-84110000D01*
X125645239Y-84062381D01*
X125454762Y-84062381D01*
X125359524Y-84110000D01*
X125311905Y-84157619D01*
X125264286Y-84252857D01*
X125264286Y-84490952D01*
X125311905Y-84586190D01*
X125359524Y-84633810D01*
X125454762Y-84681429D01*
X125645239Y-84681429D01*
X125740477Y-84633810D01*
X125788096Y-84586190D01*
X125835715Y-84490952D01*
X131867143Y-119667143D02*
X131819524Y-119714762D01*
X131676667Y-119762381D01*
X131581429Y-119762381D01*
X131438571Y-119714762D01*
X131343333Y-119619524D01*
X131295714Y-119524286D01*
X131248095Y-119333810D01*
X131248095Y-119190952D01*
X131295714Y-119000476D01*
X131343333Y-118905238D01*
X131438571Y-118810000D01*
X131581429Y-118762381D01*
X131676667Y-118762381D01*
X131819524Y-118810000D01*
X131867143Y-118857619D01*
X132819524Y-119762381D02*
X132248095Y-119762381D01*
X132533809Y-119762381D02*
X132533809Y-118762381D01*
X132438571Y-118905238D01*
X132343333Y-119000476D01*
X132248095Y-119048095D01*
X133438571Y-118762381D02*
X133533810Y-118762381D01*
X133629048Y-118810000D01*
X133676667Y-118857619D01*
X133724286Y-118952857D01*
X133771905Y-119143333D01*
X133771905Y-119381429D01*
X133724286Y-119571905D01*
X133676667Y-119667143D01*
X133629048Y-119714762D01*
X133533810Y-119762381D01*
X133438571Y-119762381D01*
X133343333Y-119714762D01*
X133295714Y-119667143D01*
X133248095Y-119571905D01*
X133200476Y-119381429D01*
X133200476Y-119143333D01*
X133248095Y-118952857D01*
X133295714Y-118857619D01*
X133343333Y-118810000D01*
X133438571Y-118762381D01*
X141437143Y-81397143D02*
X141389524Y-81444762D01*
X141246667Y-81492381D01*
X141151429Y-81492381D01*
X141008571Y-81444762D01*
X140913333Y-81349524D01*
X140865714Y-81254286D01*
X140818095Y-81063810D01*
X140818095Y-80920952D01*
X140865714Y-80730476D01*
X140913333Y-80635238D01*
X141008571Y-80540000D01*
X141151429Y-80492381D01*
X141246667Y-80492381D01*
X141389524Y-80540000D01*
X141437143Y-80587619D01*
X142389524Y-81492381D02*
X141818095Y-81492381D01*
X142103809Y-81492381D02*
X142103809Y-80492381D01*
X142008571Y-80635238D01*
X141913333Y-80730476D01*
X141818095Y-80778095D01*
X143341905Y-81492381D02*
X142770476Y-81492381D01*
X143056190Y-81492381D02*
X143056190Y-80492381D01*
X142960952Y-80635238D01*
X142865714Y-80730476D01*
X142770476Y-80778095D01*
X150967143Y-83677143D02*
X150919524Y-83724762D01*
X150776667Y-83772381D01*
X150681429Y-83772381D01*
X150538571Y-83724762D01*
X150443333Y-83629524D01*
X150395714Y-83534286D01*
X150348095Y-83343810D01*
X150348095Y-83200952D01*
X150395714Y-83010476D01*
X150443333Y-82915238D01*
X150538571Y-82820000D01*
X150681429Y-82772381D01*
X150776667Y-82772381D01*
X150919524Y-82820000D01*
X150967143Y-82867619D01*
X151919524Y-83772381D02*
X151348095Y-83772381D01*
X151633809Y-83772381D02*
X151633809Y-82772381D01*
X151538571Y-82915238D01*
X151443333Y-83010476D01*
X151348095Y-83058095D01*
X152300476Y-82867619D02*
X152348095Y-82820000D01*
X152443333Y-82772381D01*
X152681429Y-82772381D01*
X152776667Y-82820000D01*
X152824286Y-82867619D01*
X152871905Y-82962857D01*
X152871905Y-83058095D01*
X152824286Y-83200952D01*
X152252857Y-83772381D01*
X152871905Y-83772381D01*
X142377143Y-113777143D02*
X142329524Y-113824762D01*
X142186667Y-113872381D01*
X142091429Y-113872381D01*
X141948571Y-113824762D01*
X141853333Y-113729524D01*
X141805714Y-113634286D01*
X141758095Y-113443810D01*
X141758095Y-113300952D01*
X141805714Y-113110476D01*
X141853333Y-113015238D01*
X141948571Y-112920000D01*
X142091429Y-112872381D01*
X142186667Y-112872381D01*
X142329524Y-112920000D01*
X142377143Y-112967619D01*
X143329524Y-113872381D02*
X142758095Y-113872381D01*
X143043809Y-113872381D02*
X143043809Y-112872381D01*
X142948571Y-113015238D01*
X142853333Y-113110476D01*
X142758095Y-113158095D01*
X143662857Y-112872381D02*
X144281905Y-112872381D01*
X143948571Y-113253333D01*
X144091429Y-113253333D01*
X144186667Y-113300952D01*
X144234286Y-113348571D01*
X144281905Y-113443810D01*
X144281905Y-113681905D01*
X144234286Y-113777143D01*
X144186667Y-113824762D01*
X144091429Y-113872381D01*
X143805714Y-113872381D01*
X143710476Y-113824762D01*
X143662857Y-113777143D01*
X142387143Y-112337143D02*
X142339524Y-112384762D01*
X142196667Y-112432381D01*
X142101429Y-112432381D01*
X141958571Y-112384762D01*
X141863333Y-112289524D01*
X141815714Y-112194286D01*
X141768095Y-112003810D01*
X141768095Y-111860952D01*
X141815714Y-111670476D01*
X141863333Y-111575238D01*
X141958571Y-111480000D01*
X142101429Y-111432381D01*
X142196667Y-111432381D01*
X142339524Y-111480000D01*
X142387143Y-111527619D01*
X143339524Y-112432381D02*
X142768095Y-112432381D01*
X143053809Y-112432381D02*
X143053809Y-111432381D01*
X142958571Y-111575238D01*
X142863333Y-111670476D01*
X142768095Y-111718095D01*
X144196667Y-111765714D02*
X144196667Y-112432381D01*
X143958571Y-111384762D02*
X143720476Y-112099048D01*
X144339524Y-112099048D01*
X140367143Y-103587143D02*
X140319524Y-103634762D01*
X140176667Y-103682381D01*
X140081429Y-103682381D01*
X139938571Y-103634762D01*
X139843333Y-103539524D01*
X139795714Y-103444286D01*
X139748095Y-103253810D01*
X139748095Y-103110952D01*
X139795714Y-102920476D01*
X139843333Y-102825238D01*
X139938571Y-102730000D01*
X140081429Y-102682381D01*
X140176667Y-102682381D01*
X140319524Y-102730000D01*
X140367143Y-102777619D01*
X141319524Y-103682381D02*
X140748095Y-103682381D01*
X141033809Y-103682381D02*
X141033809Y-102682381D01*
X140938571Y-102825238D01*
X140843333Y-102920476D01*
X140748095Y-102968095D01*
X142224286Y-102682381D02*
X141748095Y-102682381D01*
X141700476Y-103158571D01*
X141748095Y-103110952D01*
X141843333Y-103063333D01*
X142081429Y-103063333D01*
X142176667Y-103110952D01*
X142224286Y-103158571D01*
X142271905Y-103253810D01*
X142271905Y-103491905D01*
X142224286Y-103587143D01*
X142176667Y-103634762D01*
X142081429Y-103682381D01*
X141843333Y-103682381D01*
X141748095Y-103634762D01*
X141700476Y-103587143D01*
X135052605Y-122392381D02*
X135052605Y-121392381D01*
X135290700Y-121392381D01*
X135433558Y-121440000D01*
X135528796Y-121535238D01*
X135576415Y-121630476D01*
X135624034Y-121820952D01*
X135624034Y-121963810D01*
X135576415Y-122154286D01*
X135528796Y-122249524D01*
X135433558Y-122344762D01*
X135290700Y-122392381D01*
X135052605Y-122392381D01*
X135957367Y-121392381D02*
X136576415Y-121392381D01*
X136243081Y-121773333D01*
X136385939Y-121773333D01*
X136481177Y-121820952D01*
X136528796Y-121868571D01*
X136576415Y-121963810D01*
X136576415Y-122201905D01*
X136528796Y-122297143D01*
X136481177Y-122344762D01*
X136385939Y-122392381D01*
X136100224Y-122392381D01*
X136004986Y-122344762D01*
X135957367Y-122297143D01*
D15*
X134430953Y-79376190D02*
X134430953Y-78876190D01*
X134550000Y-78876190D01*
X134621429Y-78900000D01*
X134669048Y-78947619D01*
X134692857Y-78995238D01*
X134716667Y-79090476D01*
X134716667Y-79161905D01*
X134692857Y-79257143D01*
X134669048Y-79304762D01*
X134621429Y-79352381D01*
X134550000Y-79376190D01*
X134430953Y-79376190D01*
X135145238Y-78876190D02*
X135050000Y-78876190D01*
X135002381Y-78900000D01*
X134978572Y-78923810D01*
X134930953Y-78995238D01*
X134907143Y-79090476D01*
X134907143Y-79280952D01*
X134930953Y-79328571D01*
X134954762Y-79352381D01*
X135002381Y-79376190D01*
X135097619Y-79376190D01*
X135145238Y-79352381D01*
X135169048Y-79328571D01*
X135192857Y-79280952D01*
X135192857Y-79161905D01*
X135169048Y-79114286D01*
X135145238Y-79090476D01*
X135097619Y-79066667D01*
X135002381Y-79066667D01*
X134954762Y-79090476D01*
X134930953Y-79114286D01*
X134907143Y-79161905D01*
D16*
X133530000Y-77897143D02*
X133230000Y-77468571D01*
X133015715Y-77897143D02*
X133015715Y-76997143D01*
X133358572Y-76997143D01*
X133444286Y-77040000D01*
X133487143Y-77082857D01*
X133530000Y-77168571D01*
X133530000Y-77297143D01*
X133487143Y-77382857D01*
X133444286Y-77425714D01*
X133358572Y-77468571D01*
X133015715Y-77468571D01*
X133830000Y-76997143D02*
X134430000Y-77897143D01*
X134430000Y-76997143D02*
X133830000Y-77897143D01*
X157794286Y-76207143D02*
X158308572Y-76207143D01*
X158051429Y-77107143D02*
X158051429Y-76207143D01*
X158522857Y-76207143D02*
X159122857Y-77107143D01*
X159122857Y-76207143D02*
X158522857Y-77107143D01*
D17*
X160673207Y-96994259D02*
X160506414Y-96994259D01*
X160506414Y-97256362D02*
X160506414Y-96755982D01*
X160744690Y-96755982D01*
X161197415Y-97256362D02*
X160911483Y-97256362D01*
X161054449Y-97256362D02*
X161054449Y-96755982D01*
X161006794Y-96827465D01*
X160959139Y-96875120D01*
X160911483Y-96898948D01*
D18*
X133773800Y-93879810D02*
X133556086Y-93879810D01*
X133556086Y-93371810D01*
X134165686Y-93879810D02*
X133904429Y-93879810D01*
X134035057Y-93879810D02*
X134035057Y-93371810D01*
X133991514Y-93444381D01*
X133947972Y-93492762D01*
X133904429Y-93516952D01*
D12*
X161480518Y-89571110D02*
X162420210Y-89229090D01*
X162550504Y-89587069D01*
X162538330Y-89692850D01*
X162509869Y-89753884D01*
X162436662Y-89831204D01*
X162302420Y-89880064D01*
X162196639Y-89867890D01*
X162135605Y-89839430D01*
X162058284Y-89766222D01*
X161927991Y-89408243D01*
X162001691Y-91003023D02*
X161806251Y-90466055D01*
X161903971Y-90734539D02*
X162843664Y-90392519D01*
X162676849Y-90351884D01*
X162554781Y-90294963D01*
X162477460Y-90221755D01*
X152911905Y-70002381D02*
X152911905Y-69002381D01*
X153292858Y-69002381D01*
X153388096Y-69050000D01*
X153435715Y-69097619D01*
X153483334Y-69192857D01*
X153483334Y-69335714D01*
X153435715Y-69430952D01*
X153388096Y-69478571D01*
X153292858Y-69526190D01*
X152911905Y-69526190D01*
X153816667Y-69002381D02*
X154435715Y-69002381D01*
X154102381Y-69383333D01*
X154245239Y-69383333D01*
X154340477Y-69430952D01*
X154388096Y-69478571D01*
X154435715Y-69573810D01*
X154435715Y-69811905D01*
X154388096Y-69907143D01*
X154340477Y-69954762D01*
X154245239Y-70002381D01*
X153959524Y-70002381D01*
X153864286Y-69954762D01*
X153816667Y-69907143D01*
D15*
X153507595Y-118826128D02*
X153459976Y-118802318D01*
X153412357Y-118754699D01*
X153340928Y-118683270D01*
X153293309Y-118659461D01*
X153245690Y-118659461D01*
X153269500Y-118778508D02*
X153221881Y-118754699D01*
X153174262Y-118707080D01*
X153150452Y-118611842D01*
X153150452Y-118445175D01*
X153174262Y-118349937D01*
X153221881Y-118302318D01*
X153269500Y-118278508D01*
X153364738Y-118278508D01*
X153412357Y-118302318D01*
X153459976Y-118349937D01*
X153483785Y-118445175D01*
X153483785Y-118611842D01*
X153459976Y-118707080D01*
X153412357Y-118754699D01*
X153364738Y-118778508D01*
X153269500Y-118778508D01*
X153674262Y-118326128D02*
X153698072Y-118302318D01*
X153745691Y-118278508D01*
X153864738Y-118278508D01*
X153912357Y-118302318D01*
X153936167Y-118326128D01*
X153959976Y-118373747D01*
X153959976Y-118421366D01*
X153936167Y-118492794D01*
X153650453Y-118778508D01*
X153959976Y-118778508D01*
D12*
X153493334Y-85162381D02*
X153160000Y-84686190D01*
X152921905Y-85162381D02*
X152921905Y-84162381D01*
X153302858Y-84162381D01*
X153398096Y-84210000D01*
X153445715Y-84257619D01*
X153493334Y-84352857D01*
X153493334Y-84495714D01*
X153445715Y-84590952D01*
X153398096Y-84638571D01*
X153302858Y-84686190D01*
X152921905Y-84686190D01*
X154445715Y-85162381D02*
X153874286Y-85162381D01*
X154160000Y-85162381D02*
X154160000Y-84162381D01*
X154064762Y-84305238D01*
X153969524Y-84400476D01*
X153874286Y-84448095D01*
X155253334Y-84042381D02*
X154920000Y-83566190D01*
X154681905Y-84042381D02*
X154681905Y-83042381D01*
X155062858Y-83042381D01*
X155158096Y-83090000D01*
X155205715Y-83137619D01*
X155253334Y-83232857D01*
X155253334Y-83375714D01*
X155205715Y-83470952D01*
X155158096Y-83518571D01*
X155062858Y-83566190D01*
X154681905Y-83566190D01*
X155634286Y-83137619D02*
X155681905Y-83090000D01*
X155777143Y-83042381D01*
X156015239Y-83042381D01*
X156110477Y-83090000D01*
X156158096Y-83137619D01*
X156205715Y-83232857D01*
X156205715Y-83328095D01*
X156158096Y-83470952D01*
X155586667Y-84042381D01*
X156205715Y-84042381D01*
X131483334Y-76952381D02*
X131150000Y-76476190D01*
X130911905Y-76952381D02*
X130911905Y-75952381D01*
X131292858Y-75952381D01*
X131388096Y-76000000D01*
X131435715Y-76047619D01*
X131483334Y-76142857D01*
X131483334Y-76285714D01*
X131435715Y-76380952D01*
X131388096Y-76428571D01*
X131292858Y-76476190D01*
X130911905Y-76476190D01*
X131816667Y-75952381D02*
X132435715Y-75952381D01*
X132102381Y-76333333D01*
X132245239Y-76333333D01*
X132340477Y-76380952D01*
X132388096Y-76428571D01*
X132435715Y-76523810D01*
X132435715Y-76761905D01*
X132388096Y-76857143D01*
X132340477Y-76904762D01*
X132245239Y-76952381D01*
X131959524Y-76952381D01*
X131864286Y-76904762D01*
X131816667Y-76857143D01*
X155713334Y-90832381D02*
X155380000Y-90356190D01*
X155141905Y-90832381D02*
X155141905Y-89832381D01*
X155522858Y-89832381D01*
X155618096Y-89880000D01*
X155665715Y-89927619D01*
X155713334Y-90022857D01*
X155713334Y-90165714D01*
X155665715Y-90260952D01*
X155618096Y-90308571D01*
X155522858Y-90356190D01*
X155141905Y-90356190D01*
X156570477Y-90165714D02*
X156570477Y-90832381D01*
X156332381Y-89784762D02*
X156094286Y-90499048D01*
X156713334Y-90499048D01*
X150163334Y-115162381D02*
X149830000Y-114686190D01*
X149591905Y-115162381D02*
X149591905Y-114162381D01*
X149972858Y-114162381D01*
X150068096Y-114210000D01*
X150115715Y-114257619D01*
X150163334Y-114352857D01*
X150163334Y-114495714D01*
X150115715Y-114590952D01*
X150068096Y-114638571D01*
X149972858Y-114686190D01*
X149591905Y-114686190D01*
X151068096Y-114162381D02*
X150591905Y-114162381D01*
X150544286Y-114638571D01*
X150591905Y-114590952D01*
X150687143Y-114543333D01*
X150925239Y-114543333D01*
X151020477Y-114590952D01*
X151068096Y-114638571D01*
X151115715Y-114733810D01*
X151115715Y-114971905D01*
X151068096Y-115067143D01*
X151020477Y-115114762D01*
X150925239Y-115162381D01*
X150687143Y-115162381D01*
X150591905Y-115114762D01*
X150544286Y-115067143D01*
X150302381Y-50936666D02*
X149826190Y-51270000D01*
X150302381Y-51508095D02*
X149302381Y-51508095D01*
X149302381Y-51127142D01*
X149350000Y-51031904D01*
X149397619Y-50984285D01*
X149492857Y-50936666D01*
X149635714Y-50936666D01*
X149730952Y-50984285D01*
X149778571Y-51031904D01*
X149826190Y-51127142D01*
X149826190Y-51508095D01*
X149302381Y-50079523D02*
X149302381Y-50270000D01*
X149350000Y-50365238D01*
X149397619Y-50412857D01*
X149540476Y-50508095D01*
X149730952Y-50555714D01*
X150111905Y-50555714D01*
X150207143Y-50508095D01*
X150254762Y-50460476D01*
X150302381Y-50365238D01*
X150302381Y-50174761D01*
X150254762Y-50079523D01*
X150207143Y-50031904D01*
X150111905Y-49984285D01*
X149873810Y-49984285D01*
X149778571Y-50031904D01*
X149730952Y-50079523D01*
X149683333Y-50174761D01*
X149683333Y-50365238D01*
X149730952Y-50460476D01*
X149778571Y-50508095D01*
X149873810Y-50555714D01*
X138188095Y-50402381D02*
X138188095Y-49402381D01*
X138569048Y-49402381D01*
X138664286Y-49450000D01*
X138711905Y-49497619D01*
X138759524Y-49592857D01*
X138759524Y-49735714D01*
X138711905Y-49830952D01*
X138664286Y-49878571D01*
X138569048Y-49926190D01*
X138188095Y-49926190D01*
X139188095Y-50402381D02*
X139188095Y-49402381D01*
X139188095Y-49878571D02*
X139759524Y-49878571D01*
X139759524Y-50402381D02*
X139759524Y-49402381D01*
X140759524Y-50402381D02*
X140188095Y-50402381D01*
X140473809Y-50402381D02*
X140473809Y-49402381D01*
X140378571Y-49545238D01*
X140283333Y-49640476D01*
X140188095Y-49688095D01*
X123759474Y-77543502D02*
X124101494Y-76603810D01*
X124459473Y-76734103D01*
X124532680Y-76811424D01*
X124561141Y-76872458D01*
X124573315Y-76978239D01*
X124524455Y-77112480D01*
X124447134Y-77185688D01*
X124386101Y-77214149D01*
X124280319Y-77226323D01*
X123922341Y-77096029D01*
X124699166Y-77885522D02*
X125041187Y-76945830D01*
X124878320Y-77393302D02*
X125415288Y-77588742D01*
X125236134Y-78080963D02*
X125578154Y-77141270D01*
X125948306Y-77377344D02*
X126009340Y-77348884D01*
X126115121Y-77336710D01*
X126338858Y-77418143D01*
X126412066Y-77495464D01*
X126440526Y-77556498D01*
X126452700Y-77662279D01*
X126420127Y-77751773D01*
X126326520Y-77869728D01*
X125594112Y-78211256D01*
X126175827Y-78422983D01*
X128033334Y-69202381D02*
X127700000Y-68726190D01*
X127461905Y-69202381D02*
X127461905Y-68202381D01*
X127842858Y-68202381D01*
X127938096Y-68250000D01*
X127985715Y-68297619D01*
X128033334Y-68392857D01*
X128033334Y-68535714D01*
X127985715Y-68630952D01*
X127938096Y-68678571D01*
X127842858Y-68726190D01*
X127461905Y-68726190D01*
X128509524Y-69202381D02*
X128700000Y-69202381D01*
X128795239Y-69154762D01*
X128842858Y-69107143D01*
X128938096Y-68964286D01*
X128985715Y-68773810D01*
X128985715Y-68392857D01*
X128938096Y-68297619D01*
X128890477Y-68250000D01*
X128795239Y-68202381D01*
X128604762Y-68202381D01*
X128509524Y-68250000D01*
X128461905Y-68297619D01*
X128414286Y-68392857D01*
X128414286Y-68630952D01*
X128461905Y-68726190D01*
X128509524Y-68773810D01*
X128604762Y-68821429D01*
X128795239Y-68821429D01*
X128890477Y-68773810D01*
X128938096Y-68726190D01*
X128985715Y-68630952D01*
X162166383Y-78406696D02*
X161824362Y-77467003D01*
X162182341Y-77336710D01*
X162288122Y-77348884D01*
X162349156Y-77377344D01*
X162426477Y-77450552D01*
X162475337Y-77584794D01*
X162463163Y-77690575D01*
X162434702Y-77751609D01*
X162361494Y-77828929D01*
X162003516Y-77959223D01*
X163106075Y-78064676D02*
X162764055Y-77124983D01*
X162926922Y-77572455D02*
X163463889Y-77377015D01*
X163643043Y-77869236D02*
X163301023Y-76929543D01*
X163659000Y-76799250D02*
X164240715Y-76587523D01*
X164057777Y-77059508D01*
X164192020Y-77010647D01*
X164297801Y-77022821D01*
X164358835Y-77051282D01*
X164436156Y-77124490D01*
X164517589Y-77348227D01*
X164505415Y-77454008D01*
X164476954Y-77515042D01*
X164403747Y-77592362D01*
X164135262Y-77690082D01*
X164029481Y-77677909D01*
X163968447Y-77649448D01*
X159607143Y-69802381D02*
X159273809Y-69326190D01*
X159035714Y-69802381D02*
X159035714Y-68802381D01*
X159416667Y-68802381D01*
X159511905Y-68850000D01*
X159559524Y-68897619D01*
X159607143Y-68992857D01*
X159607143Y-69135714D01*
X159559524Y-69230952D01*
X159511905Y-69278571D01*
X159416667Y-69326190D01*
X159035714Y-69326190D01*
X160559524Y-69802381D02*
X159988095Y-69802381D01*
X160273809Y-69802381D02*
X160273809Y-68802381D01*
X160178571Y-68945238D01*
X160083333Y-69040476D01*
X159988095Y-69088095D01*
X161511905Y-69802381D02*
X160940476Y-69802381D01*
X161226190Y-69802381D02*
X161226190Y-68802381D01*
X161130952Y-68945238D01*
X161035714Y-69040476D01*
X160940476Y-69088095D01*
X138718095Y-122712381D02*
X138718095Y-121712381D01*
X139099048Y-121712381D01*
X139194286Y-121760000D01*
X139241905Y-121807619D01*
X139289524Y-121902857D01*
X139289524Y-122045714D01*
X139241905Y-122140952D01*
X139194286Y-122188571D01*
X139099048Y-122236190D01*
X138718095Y-122236190D01*
X139718095Y-122712381D02*
X139718095Y-121712381D01*
X139718095Y-122188571D02*
X140289524Y-122188571D01*
X140289524Y-122712381D02*
X140289524Y-121712381D01*
X141194286Y-122045714D02*
X141194286Y-122712381D01*
X140956190Y-121664762D02*
X140718095Y-122379048D01*
X141337143Y-122379048D01*
X133857143Y-84002381D02*
X133523809Y-83526190D01*
X133285714Y-84002381D02*
X133285714Y-83002381D01*
X133666667Y-83002381D01*
X133761905Y-83050000D01*
X133809524Y-83097619D01*
X133857143Y-83192857D01*
X133857143Y-83335714D01*
X133809524Y-83430952D01*
X133761905Y-83478571D01*
X133666667Y-83526190D01*
X133285714Y-83526190D01*
X134809524Y-84002381D02*
X134238095Y-84002381D01*
X134523809Y-84002381D02*
X134523809Y-83002381D01*
X134428571Y-83145238D01*
X134333333Y-83240476D01*
X134238095Y-83288095D01*
X135142857Y-83002381D02*
X135761905Y-83002381D01*
X135428571Y-83383333D01*
X135571429Y-83383333D01*
X135666667Y-83430952D01*
X135714286Y-83478571D01*
X135761905Y-83573810D01*
X135761905Y-83811905D01*
X135714286Y-83907143D01*
X135666667Y-83954762D01*
X135571429Y-84002381D01*
X135285714Y-84002381D01*
X135190476Y-83954762D01*
X135142857Y-83907143D01*
X157907143Y-83502381D02*
X157573809Y-83026190D01*
X157335714Y-83502381D02*
X157335714Y-82502381D01*
X157716667Y-82502381D01*
X157811905Y-82550000D01*
X157859524Y-82597619D01*
X157907143Y-82692857D01*
X157907143Y-82835714D01*
X157859524Y-82930952D01*
X157811905Y-82978571D01*
X157716667Y-83026190D01*
X157335714Y-83026190D01*
X158859524Y-83502381D02*
X158288095Y-83502381D01*
X158573809Y-83502381D02*
X158573809Y-82502381D01*
X158478571Y-82645238D01*
X158383333Y-82740476D01*
X158288095Y-82788095D01*
X159716667Y-82835714D02*
X159716667Y-83502381D01*
X159478571Y-82454762D02*
X159240476Y-83169048D01*
X159859524Y-83169048D01*
X149967143Y-122602381D02*
X149633809Y-122126190D01*
X149395714Y-122602381D02*
X149395714Y-121602381D01*
X149776667Y-121602381D01*
X149871905Y-121650000D01*
X149919524Y-121697619D01*
X149967143Y-121792857D01*
X149967143Y-121935714D01*
X149919524Y-122030952D01*
X149871905Y-122078571D01*
X149776667Y-122126190D01*
X149395714Y-122126190D01*
X150919524Y-122602381D02*
X150348095Y-122602381D01*
X150633809Y-122602381D02*
X150633809Y-121602381D01*
X150538571Y-121745238D01*
X150443333Y-121840476D01*
X150348095Y-121888095D01*
X151824286Y-121602381D02*
X151348095Y-121602381D01*
X151300476Y-122078571D01*
X151348095Y-122030952D01*
X151443333Y-121983333D01*
X151681429Y-121983333D01*
X151776667Y-122030952D01*
X151824286Y-122078571D01*
X151871905Y-122173810D01*
X151871905Y-122411905D01*
X151824286Y-122507143D01*
X151776667Y-122554762D01*
X151681429Y-122602381D01*
X151443333Y-122602381D01*
X151348095Y-122554762D01*
X151300476Y-122507143D01*
X136922381Y-118762857D02*
X136446190Y-119096191D01*
X136922381Y-119334286D02*
X135922381Y-119334286D01*
X135922381Y-118953333D01*
X135970000Y-118858095D01*
X136017619Y-118810476D01*
X136112857Y-118762857D01*
X136255714Y-118762857D01*
X136350952Y-118810476D01*
X136398571Y-118858095D01*
X136446190Y-118953333D01*
X136446190Y-119334286D01*
X136922381Y-117810476D02*
X136922381Y-118381905D01*
X136922381Y-118096191D02*
X135922381Y-118096191D01*
X136065238Y-118191429D01*
X136160476Y-118286667D01*
X136208095Y-118381905D01*
X136922381Y-117334286D02*
X136922381Y-117143810D01*
X136874762Y-117048571D01*
X136827143Y-117000952D01*
X136684286Y-116905714D01*
X136493810Y-116858095D01*
X136112857Y-116858095D01*
X136017619Y-116905714D01*
X135970000Y-116953333D01*
X135922381Y-117048571D01*
X135922381Y-117239048D01*
X135970000Y-117334286D01*
X136017619Y-117381905D01*
X136112857Y-117429524D01*
X136350952Y-117429524D01*
X136446190Y-117381905D01*
X136493810Y-117334286D01*
X136541429Y-117239048D01*
X136541429Y-117048571D01*
X136493810Y-116953333D01*
X136446190Y-116905714D01*
X136350952Y-116858095D01*
X166268874Y-99801800D02*
X166602340Y-99325702D01*
X166073434Y-99264833D02*
X167013127Y-98922812D01*
X167143420Y-99280791D01*
X167131246Y-99386572D01*
X167102786Y-99447606D01*
X167029578Y-99524927D01*
X166895336Y-99573787D01*
X166789555Y-99561613D01*
X166728521Y-99533152D01*
X166651201Y-99459944D01*
X166520907Y-99101966D01*
X166415454Y-100204525D02*
X167355147Y-99862505D01*
X167652420Y-100818484D02*
X167664594Y-100712703D01*
X167615734Y-100578462D01*
X167522126Y-100460506D01*
X167400058Y-100403585D01*
X167294277Y-100391411D01*
X167099002Y-100411810D01*
X166964759Y-100460670D01*
X166802057Y-100570564D01*
X166728849Y-100647885D01*
X166671928Y-100769952D01*
X166676041Y-100920482D01*
X166708614Y-101009976D01*
X166802221Y-101127931D01*
X166863255Y-101156392D01*
X167176486Y-101042385D01*
X167111339Y-100863396D01*
X166920341Y-101591690D02*
X167860033Y-101249670D01*
X167412561Y-101412537D02*
X167608001Y-101949504D01*
X167115781Y-102128658D02*
X168055474Y-101786638D01*
X168169480Y-102099868D02*
X168364920Y-102636836D01*
X167327508Y-102710372D02*
X168267200Y-102368351D01*
X120499366Y-102799669D02*
X120336499Y-103247142D01*
X119396806Y-102905122D01*
X120121152Y-102307285D02*
X120235159Y-101994053D01*
X120776239Y-102038965D02*
X120613372Y-102486438D01*
X119673680Y-102144418D01*
X119836546Y-101696945D01*
X120544606Y-101143855D02*
X120430599Y-101457087D01*
X120922819Y-101636240D02*
X119983126Y-101294220D01*
X120145993Y-100846747D01*
X120227427Y-100623011D02*
X120422867Y-100086043D01*
X121264839Y-100696547D02*
X120325147Y-100354527D01*
X128902381Y-89602381D02*
X128426190Y-89935715D01*
X128902381Y-90173810D02*
X127902381Y-90173810D01*
X127902381Y-89792857D01*
X127950000Y-89697619D01*
X127997619Y-89650000D01*
X128092857Y-89602381D01*
X128235714Y-89602381D01*
X128330952Y-89650000D01*
X128378571Y-89697619D01*
X128426190Y-89792857D01*
X128426190Y-90173810D01*
X128378571Y-89173810D02*
X128378571Y-88840476D01*
X128902381Y-88697619D02*
X128902381Y-89173810D01*
X127902381Y-89173810D01*
X127902381Y-88697619D01*
X128854762Y-88316667D02*
X128902381Y-88173810D01*
X128902381Y-87935714D01*
X128854762Y-87840476D01*
X128807143Y-87792857D01*
X128711905Y-87745238D01*
X128616667Y-87745238D01*
X128521429Y-87792857D01*
X128473810Y-87840476D01*
X128426190Y-87935714D01*
X128378571Y-88126191D01*
X128330952Y-88221429D01*
X128283333Y-88269048D01*
X128188095Y-88316667D01*
X128092857Y-88316667D01*
X127997619Y-88269048D01*
X127950000Y-88221429D01*
X127902381Y-88126191D01*
X127902381Y-87888095D01*
X127950000Y-87745238D01*
X128378571Y-87316667D02*
X128378571Y-86983333D01*
X128902381Y-86840476D02*
X128902381Y-87316667D01*
X127902381Y-87316667D01*
X127902381Y-86840476D01*
X127902381Y-86554762D02*
X127902381Y-85983333D01*
X128902381Y-86269048D02*
X127902381Y-86269048D01*
D15*
X155989048Y-84486190D02*
X155989048Y-84890952D01*
X156012857Y-84938571D01*
X156036667Y-84962381D01*
X156084286Y-84986190D01*
X156179524Y-84986190D01*
X156227143Y-84962381D01*
X156250952Y-84938571D01*
X156274762Y-84890952D01*
X156274762Y-84486190D01*
X156774762Y-84986190D02*
X156489048Y-84986190D01*
X156631905Y-84986190D02*
X156631905Y-84486190D01*
X156584286Y-84557619D01*
X156536667Y-84605238D01*
X156489048Y-84629048D01*
D12*
X145688095Y-87812381D02*
X145688095Y-88621905D01*
X145735714Y-88717143D01*
X145783333Y-88764762D01*
X145878571Y-88812381D01*
X146069048Y-88812381D01*
X146164286Y-88764762D01*
X146211905Y-88717143D01*
X146259524Y-88621905D01*
X146259524Y-87812381D01*
X146688095Y-87907619D02*
X146735714Y-87860000D01*
X146830952Y-87812381D01*
X147069048Y-87812381D01*
X147164286Y-87860000D01*
X147211905Y-87907619D01*
X147259524Y-88002857D01*
X147259524Y-88098095D01*
X147211905Y-88240952D01*
X146640476Y-88812381D01*
X147259524Y-88812381D01*
X124188095Y-91052381D02*
X124188095Y-91861905D01*
X124235714Y-91957143D01*
X124283333Y-92004762D01*
X124378571Y-92052381D01*
X124569048Y-92052381D01*
X124664286Y-92004762D01*
X124711905Y-91957143D01*
X124759524Y-91861905D01*
X124759524Y-91052381D01*
X125140476Y-91052381D02*
X125759524Y-91052381D01*
X125426190Y-91433333D01*
X125569048Y-91433333D01*
X125664286Y-91480952D01*
X125711905Y-91528571D01*
X125759524Y-91623810D01*
X125759524Y-91861905D01*
X125711905Y-91957143D01*
X125664286Y-92004762D01*
X125569048Y-92052381D01*
X125283333Y-92052381D01*
X125188095Y-92004762D01*
X125140476Y-91957143D01*
D15*
X136009048Y-114226190D02*
X136009048Y-114630952D01*
X136032857Y-114678571D01*
X136056667Y-114702381D01*
X136104286Y-114726190D01*
X136199524Y-114726190D01*
X136247143Y-114702381D01*
X136270952Y-114678571D01*
X136294762Y-114630952D01*
X136294762Y-114226190D01*
X136747143Y-114392857D02*
X136747143Y-114726190D01*
X136628096Y-114202381D02*
X136509048Y-114559524D01*
X136818572Y-114559524D01*
D12*
X145296667Y-107326667D02*
X145296667Y-107893333D01*
X145330000Y-107960000D01*
X145363333Y-107993333D01*
X145430000Y-108026667D01*
X145563333Y-108026667D01*
X145630000Y-107993333D01*
X145663333Y-107960000D01*
X145696667Y-107893333D01*
X145696667Y-107326667D01*
X146363333Y-107326667D02*
X146030000Y-107326667D01*
X145996666Y-107660000D01*
X146030000Y-107626667D01*
X146096666Y-107593333D01*
X146263333Y-107593333D01*
X146330000Y-107626667D01*
X146363333Y-107660000D01*
X146396666Y-107726667D01*
X146396666Y-107893333D01*
X146363333Y-107960000D01*
X146330000Y-107993333D01*
X146263333Y-108026667D01*
X146096666Y-108026667D01*
X146030000Y-107993333D01*
X145996666Y-107960000D01*
D15*
X134181906Y-87928095D02*
X134181906Y-88166190D01*
X134015239Y-87666190D02*
X134181906Y-87928095D01*
X134348572Y-87666190D01*
X134777143Y-88166190D02*
X134491429Y-88166190D01*
X134634286Y-88166190D02*
X134634286Y-87666190D01*
X134586667Y-87737619D01*
X134539048Y-87785238D01*
X134491429Y-87809048D01*
X121466190Y-94079047D02*
X120966190Y-94079047D01*
X120966190Y-93960000D01*
X120990000Y-93888571D01*
X121037619Y-93840952D01*
X121085238Y-93817143D01*
X121180476Y-93793333D01*
X121251905Y-93793333D01*
X121347143Y-93817143D01*
X121394762Y-93840952D01*
X121442381Y-93888571D01*
X121466190Y-93960000D01*
X121466190Y-94079047D01*
X121466190Y-93317143D02*
X121466190Y-93602857D01*
X121466190Y-93460000D02*
X120966190Y-93460000D01*
X121037619Y-93507619D01*
X121085238Y-93555238D01*
X121109048Y-93602857D01*
D12*
X114790476Y-112952381D02*
X114790476Y-111952381D01*
X115171429Y-111952381D01*
X115266667Y-112000000D01*
X115314286Y-112047619D01*
X115361905Y-112142857D01*
X115361905Y-112285714D01*
X115314286Y-112380952D01*
X115266667Y-112428571D01*
X115171429Y-112476190D01*
X114790476Y-112476190D01*
X115695238Y-111952381D02*
X115933333Y-112952381D01*
X116123810Y-112238095D01*
X116314286Y-112952381D01*
X116552381Y-111952381D01*
X117504762Y-112952381D02*
X117171428Y-112476190D01*
X116933333Y-112952381D02*
X116933333Y-111952381D01*
X117314286Y-111952381D01*
X117409524Y-112000000D01*
X117457143Y-112047619D01*
X117504762Y-112142857D01*
X117504762Y-112285714D01*
X117457143Y-112380952D01*
X117409524Y-112428571D01*
X117314286Y-112476190D01*
X116933333Y-112476190D01*
X118457143Y-112952381D02*
X117885714Y-112952381D01*
X118171428Y-112952381D02*
X118171428Y-111952381D01*
X118076190Y-112095238D01*
X117980952Y-112190476D01*
X117885714Y-112238095D01*
X135667143Y-110482381D02*
X135333809Y-110006190D01*
X135095714Y-110482381D02*
X135095714Y-109482381D01*
X135476667Y-109482381D01*
X135571905Y-109530000D01*
X135619524Y-109577619D01*
X135667143Y-109672857D01*
X135667143Y-109815714D01*
X135619524Y-109910952D01*
X135571905Y-109958571D01*
X135476667Y-110006190D01*
X135095714Y-110006190D01*
X136619524Y-110482381D02*
X136048095Y-110482381D01*
X136333809Y-110482381D02*
X136333809Y-109482381D01*
X136238571Y-109625238D01*
X136143333Y-109720476D01*
X136048095Y-109768095D01*
X137190952Y-109910952D02*
X137095714Y-109863333D01*
X137048095Y-109815714D01*
X137000476Y-109720476D01*
X137000476Y-109672857D01*
X137048095Y-109577619D01*
X137095714Y-109530000D01*
X137190952Y-109482381D01*
X137381429Y-109482381D01*
X137476667Y-109530000D01*
X137524286Y-109577619D01*
X137571905Y-109672857D01*
X137571905Y-109720476D01*
X137524286Y-109815714D01*
X137476667Y-109863333D01*
X137381429Y-109910952D01*
X137190952Y-109910952D01*
X137095714Y-109958571D01*
X137048095Y-110006190D01*
X137000476Y-110101429D01*
X137000476Y-110291905D01*
X137048095Y-110387143D01*
X137095714Y-110434762D01*
X137190952Y-110482381D01*
X137381429Y-110482381D01*
X137476667Y-110434762D01*
X137524286Y-110387143D01*
X137571905Y-110291905D01*
X137571905Y-110101429D01*
X137524286Y-110006190D01*
X137476667Y-109958571D01*
X137381429Y-109910952D01*
X125861905Y-97452381D02*
X125861905Y-96452381D01*
X126242858Y-96452381D01*
X126338096Y-96500000D01*
X126385715Y-96547619D01*
X126433334Y-96642857D01*
X126433334Y-96785714D01*
X126385715Y-96880952D01*
X126338096Y-96928571D01*
X126242858Y-96976190D01*
X125861905Y-96976190D01*
X126814286Y-96547619D02*
X126861905Y-96500000D01*
X126957143Y-96452381D01*
X127195239Y-96452381D01*
X127290477Y-96500000D01*
X127338096Y-96547619D01*
X127385715Y-96642857D01*
X127385715Y-96738095D01*
X127338096Y-96880952D01*
X126766667Y-97452381D01*
X127385715Y-97452381D01*
X131465714Y-64272381D02*
X131465714Y-63272381D01*
X131846667Y-63272381D01*
X131941905Y-63320000D01*
X131989524Y-63367619D01*
X132037143Y-63462857D01*
X132037143Y-63605714D01*
X131989524Y-63700952D01*
X131941905Y-63748571D01*
X131846667Y-63796190D01*
X131465714Y-63796190D01*
X132989524Y-64272381D02*
X132418095Y-64272381D01*
X132703809Y-64272381D02*
X132703809Y-63272381D01*
X132608571Y-63415238D01*
X132513333Y-63510476D01*
X132418095Y-63558095D01*
X133322857Y-63272381D02*
X133989524Y-63272381D01*
X133560952Y-64272381D01*
D15*
X156642381Y-96193810D02*
X156594762Y-96170000D01*
X156547143Y-96122381D01*
X156475714Y-96050952D01*
X156428095Y-96027143D01*
X156380476Y-96027143D01*
X156404286Y-96146190D02*
X156356667Y-96122381D01*
X156309048Y-96074762D01*
X156285238Y-95979524D01*
X156285238Y-95812857D01*
X156309048Y-95717619D01*
X156356667Y-95670000D01*
X156404286Y-95646190D01*
X156499524Y-95646190D01*
X156547143Y-95670000D01*
X156594762Y-95717619D01*
X156618571Y-95812857D01*
X156618571Y-95979524D01*
X156594762Y-96074762D01*
X156547143Y-96122381D01*
X156499524Y-96146190D01*
X156404286Y-96146190D01*
X157094762Y-96146190D02*
X156809048Y-96146190D01*
X156951905Y-96146190D02*
X156951905Y-95646190D01*
X156904286Y-95717619D01*
X156856667Y-95765238D01*
X156809048Y-95789048D01*
M02*
