G04 #@! TF.FileFunction,Copper,L2,Bot,Signal*
%FSLAX46Y46*%
G04 Gerber Fmt 4.6, Leading zero omitted, Abs format (unit mm)*
G04 Created by KiCad (PCBNEW 4.0.4-stable) date 10/29/17 10:31:43*
%MOMM*%
%LPD*%
G01*
G04 APERTURE LIST*
%ADD10C,0.100000*%
%ADD11C,3.000000*%
%ADD12C,1.150000*%
%ADD13C,1.550000*%
%ADD14R,1.727200X2.032000*%
%ADD15O,1.727200X2.032000*%
%ADD16R,1.000000X1.600000*%
%ADD17R,2.032000X2.032000*%
%ADD18O,2.032000X2.032000*%
%ADD19C,2.032000*%
%ADD20C,2.400000*%
%ADD21R,2.032000X1.727200*%
%ADD22O,2.032000X1.727200*%
%ADD23R,1.200000X1.700000*%
%ADD24O,1.200000X1.700000*%
%ADD25R,1.050000X1.050000*%
%ADD26C,1.050000*%
%ADD27C,0.600000*%
%ADD28C,0.200000*%
%ADD29C,0.400000*%
%ADD30C,0.600000*%
%ADD31C,0.254000*%
G04 APERTURE END LIST*
D10*
D11*
X159590000Y-111000000D03*
X167210000Y-110800000D03*
D12*
X164787051Y-91814497D02*
X164787051Y-91814497D01*
X163076950Y-87116034D02*
X163076950Y-87116034D01*
D13*
X167666241Y-91830736D02*
X167666241Y-91830736D01*
X165272100Y-85252887D02*
X165272100Y-85252887D01*
D14*
X152190000Y-66930000D03*
D15*
X149650000Y-66930000D03*
X147110000Y-66930000D03*
X144570000Y-66930000D03*
X142030000Y-66930000D03*
X139490000Y-66930000D03*
X136950000Y-66930000D03*
D16*
X132450000Y-103800000D03*
X135450000Y-103800000D03*
X153600000Y-104550000D03*
X156600000Y-104550000D03*
D17*
X142810000Y-50710000D03*
D18*
X145220000Y-50710000D03*
D10*
G36*
X126883489Y-74392765D02*
X126188504Y-76302220D01*
X124279049Y-75607235D01*
X124974034Y-73697780D01*
X126883489Y-74392765D01*
X126883489Y-74392765D01*
G37*
D19*
X126450000Y-72613181D02*
X126450000Y-72613181D01*
D10*
G36*
X163375966Y-73697780D02*
X164070951Y-75607235D01*
X162161496Y-76302220D01*
X161466511Y-74392765D01*
X163375966Y-73697780D01*
X163375966Y-73697780D01*
G37*
D19*
X161900000Y-72613181D02*
X161900000Y-72613181D01*
D17*
X143240000Y-121110000D03*
D18*
X145780000Y-121110000D03*
D20*
X137770000Y-59490000D03*
X151230000Y-59490000D03*
D21*
X116650000Y-115110000D03*
D22*
X116650000Y-117650000D03*
X116650000Y-120190000D03*
D11*
X123780000Y-111000000D03*
X131400000Y-110800000D03*
D23*
X126600000Y-99500000D03*
D24*
X128600000Y-99500000D03*
D25*
X132130000Y-65520000D03*
D26*
X132130000Y-66790000D03*
X132130000Y-68060000D03*
X132130000Y-69330000D03*
X132130000Y-70600000D03*
X133400000Y-66790000D03*
X133400000Y-68060000D03*
X133400000Y-69330000D03*
X133400000Y-70600000D03*
X133400000Y-65520000D03*
D27*
X141200000Y-77050000D03*
X147750000Y-81150000D03*
X144249990Y-85015152D03*
X132575728Y-90774272D03*
X152300000Y-90450000D03*
X147450000Y-97150000D03*
X139100000Y-97250000D03*
X148000000Y-52500000D03*
X129200000Y-70150000D03*
X125150000Y-88700000D03*
X126880000Y-85970000D03*
X122700000Y-87050000D03*
X149800000Y-120600000D03*
X168850000Y-102850000D03*
X141200000Y-81050000D03*
X146850000Y-82150000D03*
X138000000Y-90000000D03*
X144150000Y-97200000D03*
X144150000Y-97200000D03*
X139200000Y-104650000D03*
X138500000Y-112750000D03*
X138400000Y-111500000D03*
X134400000Y-111900000D03*
X134000000Y-114550000D03*
X130550000Y-119400000D03*
X140600000Y-117500000D03*
X118650000Y-95450000D03*
X132750000Y-91349990D03*
X150050000Y-85500000D03*
X132650000Y-85250000D03*
X129750000Y-86250000D03*
X143939584Y-87941873D03*
X146150000Y-107600000D03*
X146150000Y-107600000D03*
X140650000Y-107800000D03*
X140650000Y-107800000D03*
X149700000Y-88500000D03*
X158650000Y-85750000D03*
X162000000Y-88500000D03*
X164900000Y-87750000D03*
X158650000Y-93150000D03*
X125150000Y-91100000D03*
X156000000Y-100850000D03*
X135300000Y-100200000D03*
X125550000Y-92650000D03*
X140600000Y-115900000D03*
X154150000Y-92500000D03*
X146349978Y-91349990D03*
X146249989Y-89056605D03*
X145880364Y-89766109D03*
X141982293Y-89926508D03*
X142566409Y-89379857D03*
X142400000Y-113500000D03*
X142400000Y-112700000D03*
X142400000Y-112100000D03*
X143550000Y-113150000D03*
X143550000Y-112200000D03*
X143550000Y-111350000D03*
X144700000Y-113100000D03*
X144700000Y-112300000D03*
X144650000Y-111600000D03*
X145750000Y-113150000D03*
X145750000Y-112350000D03*
X145750000Y-111700000D03*
X135270000Y-71740000D03*
X131300000Y-78900000D03*
X131350000Y-81650000D03*
X148300000Y-99950000D03*
X145650000Y-97850000D03*
X142650000Y-59350000D03*
X141000000Y-90700000D03*
X126750000Y-77700000D03*
X137550000Y-91650000D03*
X144850000Y-74100000D03*
X141350000Y-91550000D03*
X156600000Y-98550000D03*
X137550000Y-93150000D03*
X151187291Y-83572890D03*
X156900000Y-80700000D03*
X150400000Y-97200000D03*
X149450000Y-96150000D03*
X121500000Y-102250000D03*
X151450000Y-91650000D03*
D28*
X141200000Y-81050000D02*
X141200000Y-77050000D01*
X147750000Y-81150000D02*
X147750000Y-81200000D01*
X147750000Y-81200000D02*
X147550000Y-81400000D01*
X149700000Y-88500000D02*
X150350000Y-88500000D01*
X150350000Y-88500000D02*
X152300000Y-90450000D01*
X144150000Y-97200000D02*
X147400000Y-97200000D01*
X147400000Y-97200000D02*
X147450000Y-97150000D01*
X144150000Y-97200000D02*
X139150000Y-97200000D01*
X139150000Y-97200000D02*
X139100000Y-97250000D01*
X129750000Y-86250000D02*
X129700000Y-86250000D01*
X129700000Y-86250000D02*
X129500000Y-86450000D01*
D29*
X136050000Y-100950000D02*
X155900000Y-100950000D01*
X155900000Y-100950000D02*
X156000000Y-100850000D01*
X135300000Y-100200000D02*
X136050000Y-100950000D01*
X125550000Y-95250000D02*
X125550000Y-92650000D01*
X124950000Y-100250000D02*
X124950000Y-95850000D01*
X124950000Y-95850000D02*
X125550000Y-95250000D01*
X140600000Y-115900000D02*
X125700000Y-101000000D01*
X125700000Y-101000000D02*
X124950000Y-100250000D01*
X147320002Y-115850000D02*
X140650000Y-115850000D01*
X140650000Y-115850000D02*
X140600000Y-115900000D01*
X157500000Y-95850000D02*
X157500001Y-105670001D01*
X157500001Y-105670001D02*
X147320002Y-115850000D01*
X154150000Y-92500000D02*
X157500000Y-95850000D01*
D28*
X152190000Y-66930000D02*
X152190000Y-80160000D01*
X146649977Y-91049991D02*
X146349978Y-91349990D01*
X152190000Y-80160000D02*
X146849999Y-85500001D01*
X146849999Y-85500001D02*
X146849999Y-90849969D01*
X146849999Y-90849969D02*
X146649977Y-91049991D01*
X149650000Y-66930000D02*
X149650000Y-82134300D01*
X149650000Y-82134300D02*
X146249989Y-85534311D01*
X146249989Y-85534311D02*
X146249989Y-88632341D01*
X146249989Y-88632341D02*
X146249989Y-89056605D01*
X145880364Y-89766109D02*
X145580365Y-89466110D01*
X145580365Y-89466110D02*
X145580365Y-68612035D01*
X145580365Y-68612035D02*
X147110000Y-67082400D01*
X147110000Y-67082400D02*
X147110000Y-66930000D01*
X142200000Y-69600000D02*
X142200000Y-88800012D01*
X142200000Y-69600000D02*
X142200000Y-69452400D01*
X142200000Y-69452400D02*
X144570000Y-67082400D01*
X144570000Y-67082400D02*
X144570000Y-66930000D01*
X142200000Y-88800012D02*
X141682294Y-89317718D01*
X141682294Y-89317718D02*
X141682294Y-89626509D01*
X141682294Y-89626509D02*
X141982293Y-89926508D01*
X142566409Y-89379857D02*
X142889451Y-89056815D01*
X142889451Y-89056815D02*
X142889451Y-70408542D01*
X142889451Y-70408542D02*
X145733610Y-67564383D01*
X145733610Y-67564383D02*
X145733610Y-66295617D01*
X145733610Y-66295617D02*
X144967983Y-65529990D01*
X144967983Y-65529990D02*
X144172017Y-65529990D01*
X144172017Y-65529990D02*
X142772007Y-66930000D01*
X142772007Y-66930000D02*
X142030000Y-66930000D01*
D30*
X142400000Y-112700000D02*
X142400000Y-113500000D01*
X140450000Y-112100000D02*
X142400000Y-112100000D01*
X132450000Y-103800000D02*
X132450000Y-104100000D01*
X132450000Y-104100000D02*
X140450000Y-112100000D01*
X143550000Y-112200000D02*
X143550000Y-113150000D01*
X142650000Y-111300000D02*
X143500000Y-111300000D01*
X143500000Y-111300000D02*
X143550000Y-111350000D01*
X135450000Y-103800000D02*
X135450000Y-104100000D01*
X135450000Y-104100000D02*
X142650000Y-111300000D01*
X144700000Y-112300000D02*
X144700000Y-113100000D01*
X153600000Y-104550000D02*
X151700000Y-104550000D01*
X151700000Y-104550000D02*
X144650000Y-111600000D01*
X145750000Y-112350000D02*
X145750000Y-113150000D01*
X155200000Y-106250000D02*
X151200000Y-106250000D01*
X151200000Y-106250000D02*
X145750000Y-111700000D01*
X156600000Y-104550000D02*
X156600000Y-104850000D01*
X156600000Y-104850000D02*
X155200000Y-106250000D01*
D28*
X133400000Y-66790000D02*
X135270000Y-68660000D01*
X135270000Y-68660000D02*
X135270000Y-71740000D01*
X131350000Y-81650000D02*
X131350000Y-78950000D01*
X131350000Y-78950000D02*
X131300000Y-78900000D01*
X145650000Y-97850000D02*
X146200000Y-97850000D01*
X146200000Y-97850000D02*
X148300000Y-99950000D01*
D29*
X158700000Y-70750000D02*
X158700000Y-72112473D01*
X158700000Y-72112473D02*
X161587527Y-75000000D01*
X161587527Y-75000000D02*
X162768731Y-75000000D01*
X156050000Y-68100000D02*
X158700000Y-70750000D01*
X156050000Y-61850000D02*
X156050000Y-68100000D01*
X151250000Y-57050000D02*
X156050000Y-61850000D01*
X147734000Y-57050000D02*
X151250000Y-57050000D01*
X142810000Y-50710000D02*
X142810000Y-52126000D01*
X142810000Y-52126000D02*
X147734000Y-57050000D01*
X133750000Y-58450000D02*
X133750000Y-58354000D01*
X133750000Y-58354000D02*
X141394000Y-50710000D01*
X141394000Y-50710000D02*
X142810000Y-50710000D01*
X130100000Y-62100000D02*
X133750000Y-58450000D01*
X130100000Y-72250000D02*
X130100000Y-62100000D01*
X127350000Y-75000000D02*
X130100000Y-72250000D01*
X125581269Y-75000000D02*
X127350000Y-75000000D01*
X120550000Y-88200000D02*
X125581269Y-83168731D01*
X125581269Y-83168731D02*
X125581269Y-75000000D01*
X120550000Y-113300000D02*
X120550000Y-88200000D01*
X125450000Y-118200000D02*
X120550000Y-113300000D01*
X138914000Y-118200000D02*
X125450000Y-118200000D01*
X143240000Y-121110000D02*
X141824000Y-121110000D01*
X141824000Y-121110000D02*
X138914000Y-118200000D01*
D28*
X140550000Y-89825736D02*
X140550000Y-67667993D01*
X140550000Y-67667993D02*
X140653610Y-67564383D01*
X140653610Y-67564383D02*
X140653610Y-61346390D01*
X140653610Y-61346390D02*
X142650000Y-59350000D01*
X141000000Y-90700000D02*
X141000000Y-90275736D01*
X141000000Y-90275736D02*
X140550000Y-89825736D01*
X127150000Y-84665698D02*
X127150000Y-79550000D01*
X126750000Y-77700000D02*
X126750000Y-78124264D01*
X126750000Y-78124264D02*
X127150000Y-78524264D01*
X127150000Y-78524264D02*
X127150000Y-79550000D01*
X134000001Y-91350001D02*
X129500008Y-86850008D01*
X129500008Y-86850008D02*
X129334310Y-86850008D01*
X129334310Y-86850008D02*
X127150000Y-84665698D01*
X137550000Y-91650000D02*
X137250001Y-91350001D01*
X137250001Y-91350001D02*
X134000001Y-91350001D01*
X144850000Y-74450000D02*
X144850000Y-74100000D01*
X144850000Y-88474264D02*
X144850000Y-74450000D01*
X141350000Y-91550000D02*
X141774264Y-91550000D01*
X141774264Y-91550000D02*
X144850000Y-88474264D01*
X152250000Y-93150000D02*
X156600000Y-97500000D01*
X156600000Y-97500000D02*
X156600000Y-98550000D01*
X137550000Y-93150000D02*
X152250000Y-93150000D01*
X156900000Y-80700000D02*
X154060181Y-80700000D01*
X154060181Y-80700000D02*
X151487290Y-83272891D01*
X151487290Y-83272891D02*
X151187291Y-83572890D01*
X149450000Y-96150000D02*
X149450000Y-96250000D01*
X149450000Y-96250000D02*
X150400000Y-97200000D01*
X121500000Y-101825736D02*
X121500000Y-102250000D01*
X121500000Y-94900000D02*
X121500000Y-101825736D01*
X124450000Y-91950000D02*
X121500000Y-94900000D01*
X137261999Y-92250001D02*
X136961998Y-91950000D01*
X136961998Y-91950000D02*
X124450000Y-91950000D01*
X150849999Y-92250001D02*
X137261999Y-92250001D01*
X151450000Y-91650000D02*
X150849999Y-92250001D01*
D31*
G36*
X141460594Y-51726000D02*
X141483395Y-51847179D01*
X141555012Y-51958474D01*
X141664286Y-52033138D01*
X141794000Y-52059406D01*
X142283000Y-52059406D01*
X142283000Y-52126000D01*
X142323115Y-52327675D01*
X142437355Y-52498645D01*
X147361355Y-57422646D01*
X147532326Y-57536885D01*
X147734000Y-57577000D01*
X151031710Y-57577000D01*
X151417873Y-57963163D01*
X150927593Y-57962735D01*
X150366154Y-58194717D01*
X149936227Y-58623894D01*
X149703265Y-59184928D01*
X149702735Y-59792407D01*
X149934717Y-60353846D01*
X150363894Y-60783773D01*
X150924928Y-61016735D01*
X151532407Y-61017265D01*
X152093846Y-60785283D01*
X152523773Y-60356106D01*
X152756735Y-59795072D01*
X152757165Y-59302455D01*
X155523000Y-62068290D01*
X155523000Y-68100000D01*
X155563115Y-68301675D01*
X155677355Y-68472645D01*
X158173000Y-70968290D01*
X158173000Y-72112473D01*
X158213115Y-72314148D01*
X158327355Y-72485118D01*
X161214882Y-75372645D01*
X161385852Y-75486885D01*
X161519619Y-75513493D01*
X161848197Y-76416252D01*
X161911069Y-76522324D01*
X162016432Y-76602413D01*
X162144653Y-76635200D01*
X162275528Y-76615519D01*
X164178986Y-75922717D01*
X173813000Y-103142726D01*
X173813000Y-122059764D01*
X173754692Y-122352898D01*
X173605772Y-122575772D01*
X173382898Y-122724692D01*
X173089764Y-122783000D01*
X115150236Y-122783000D01*
X114857102Y-122724692D01*
X114634228Y-122575772D01*
X114485308Y-122352898D01*
X114427000Y-122059764D01*
X114427000Y-120190000D01*
X115280689Y-120190000D01*
X115371318Y-120645623D01*
X115629408Y-121031881D01*
X116015666Y-121289971D01*
X116471289Y-121380600D01*
X116828711Y-121380600D01*
X117284334Y-121289971D01*
X117670592Y-121031881D01*
X117928682Y-120645623D01*
X118019311Y-120190000D01*
X117928682Y-119734377D01*
X117670592Y-119348119D01*
X117284334Y-119090029D01*
X116828711Y-118999400D01*
X116471289Y-118999400D01*
X116015666Y-119090029D01*
X115629408Y-119348119D01*
X115371318Y-119734377D01*
X115280689Y-120190000D01*
X114427000Y-120190000D01*
X114427000Y-117650000D01*
X115280689Y-117650000D01*
X115371318Y-118105623D01*
X115629408Y-118491881D01*
X116015666Y-118749971D01*
X116471289Y-118840600D01*
X116828711Y-118840600D01*
X117284334Y-118749971D01*
X117670592Y-118491881D01*
X117928682Y-118105623D01*
X118019311Y-117650000D01*
X117928682Y-117194377D01*
X117670592Y-116808119D01*
X117284334Y-116550029D01*
X116828711Y-116459400D01*
X116471289Y-116459400D01*
X116015666Y-116550029D01*
X115629408Y-116808119D01*
X115371318Y-117194377D01*
X115280689Y-117650000D01*
X114427000Y-117650000D01*
X114427000Y-114246400D01*
X115300594Y-114246400D01*
X115300594Y-115973600D01*
X115323395Y-116094779D01*
X115395012Y-116206074D01*
X115504286Y-116280738D01*
X115634000Y-116307006D01*
X117666000Y-116307006D01*
X117787179Y-116284205D01*
X117898474Y-116212588D01*
X117973138Y-116103314D01*
X117999406Y-115973600D01*
X117999406Y-114246400D01*
X117976605Y-114125221D01*
X117904988Y-114013926D01*
X117795714Y-113939262D01*
X117666000Y-113912994D01*
X115634000Y-113912994D01*
X115512821Y-113935795D01*
X115401526Y-114007412D01*
X115326862Y-114116686D01*
X115300594Y-114246400D01*
X114427000Y-114246400D01*
X114427000Y-103142726D01*
X124080155Y-75868637D01*
X124165017Y-75920534D01*
X125054269Y-76244195D01*
X125054269Y-82950441D01*
X120177355Y-87827355D01*
X120063115Y-87998325D01*
X120028504Y-88172329D01*
X120023000Y-88200000D01*
X120023000Y-113300000D01*
X120063115Y-113501675D01*
X120177355Y-113672645D01*
X125077354Y-118572645D01*
X125191594Y-118648978D01*
X125248326Y-118686885D01*
X125450000Y-118727000D01*
X138695710Y-118727000D01*
X141451354Y-121482645D01*
X141565594Y-121558978D01*
X141622326Y-121596885D01*
X141824000Y-121637000D01*
X141890594Y-121637000D01*
X141890594Y-122126000D01*
X141913395Y-122247179D01*
X141985012Y-122358474D01*
X142094286Y-122433138D01*
X142224000Y-122459406D01*
X144256000Y-122459406D01*
X144377179Y-122436605D01*
X144488474Y-122364988D01*
X144563138Y-122255714D01*
X144589406Y-122126000D01*
X144589406Y-121725349D01*
X144830356Y-122085955D01*
X145266056Y-122377081D01*
X145780000Y-122479311D01*
X146293944Y-122377081D01*
X146729644Y-122085955D01*
X147020770Y-121650255D01*
X147123000Y-121136311D01*
X147123000Y-121083689D01*
X147020770Y-120569745D01*
X146729644Y-120134045D01*
X146293944Y-119842919D01*
X145780000Y-119740689D01*
X145266056Y-119842919D01*
X144830356Y-120134045D01*
X144589406Y-120494651D01*
X144589406Y-120094000D01*
X144566605Y-119972821D01*
X144494988Y-119861526D01*
X144385714Y-119786862D01*
X144256000Y-119760594D01*
X142224000Y-119760594D01*
X142102821Y-119783395D01*
X141991526Y-119855012D01*
X141916862Y-119964286D01*
X141890594Y-120094000D01*
X141890594Y-120431303D01*
X139286645Y-117827355D01*
X139115675Y-117713115D01*
X138914000Y-117673000D01*
X125668291Y-117673000D01*
X121077000Y-113081710D01*
X121077000Y-111361818D01*
X121952684Y-111361818D01*
X122230242Y-112033560D01*
X122743736Y-112547952D01*
X123414993Y-112826682D01*
X124141818Y-112827316D01*
X124813560Y-112549758D01*
X125327952Y-112036264D01*
X125606682Y-111365007D01*
X125606859Y-111161818D01*
X129572684Y-111161818D01*
X129850242Y-111833560D01*
X130363736Y-112347952D01*
X131034993Y-112626682D01*
X131761818Y-112627316D01*
X132433560Y-112349758D01*
X132947952Y-111836264D01*
X133226682Y-111165007D01*
X133227316Y-110438182D01*
X132949758Y-109766440D01*
X132436264Y-109252048D01*
X131765007Y-108973318D01*
X131038182Y-108972684D01*
X130366440Y-109250242D01*
X129852048Y-109763736D01*
X129573318Y-110434993D01*
X129572684Y-111161818D01*
X125606859Y-111161818D01*
X125607316Y-110638182D01*
X125329758Y-109966440D01*
X124816264Y-109452048D01*
X124145007Y-109173318D01*
X123418182Y-109172684D01*
X122746440Y-109450242D01*
X122232048Y-109963736D01*
X121953318Y-110634993D01*
X121952684Y-111361818D01*
X121077000Y-111361818D01*
X121077000Y-102713748D01*
X121144369Y-102781235D01*
X121374735Y-102876891D01*
X121624171Y-102877109D01*
X121854703Y-102781855D01*
X122031235Y-102605631D01*
X122126891Y-102375265D01*
X122127109Y-102125829D01*
X122031855Y-101895297D01*
X121927000Y-101790259D01*
X121927000Y-95076870D01*
X124626870Y-92377000D01*
X124984454Y-92377000D01*
X124923109Y-92524735D01*
X124922891Y-92774171D01*
X125018145Y-93004703D01*
X125023000Y-93009566D01*
X125023000Y-95031710D01*
X124577355Y-95477355D01*
X124463115Y-95648325D01*
X124445500Y-95736885D01*
X124423000Y-95850000D01*
X124423000Y-100250000D01*
X124463115Y-100451675D01*
X124577355Y-100622645D01*
X139972896Y-116018186D01*
X139972891Y-116024171D01*
X140068145Y-116254703D01*
X140244369Y-116431235D01*
X140474735Y-116526891D01*
X140724171Y-116527109D01*
X140954703Y-116431855D01*
X141009654Y-116377000D01*
X147320002Y-116377000D01*
X147521677Y-116336885D01*
X147692647Y-116222645D01*
X152553474Y-111361818D01*
X157762684Y-111361818D01*
X158040242Y-112033560D01*
X158553736Y-112547952D01*
X159224993Y-112826682D01*
X159951818Y-112827316D01*
X160623560Y-112549758D01*
X161137952Y-112036264D01*
X161416682Y-111365007D01*
X161416859Y-111161818D01*
X165382684Y-111161818D01*
X165660242Y-111833560D01*
X166173736Y-112347952D01*
X166844993Y-112626682D01*
X167571818Y-112627316D01*
X168243560Y-112349758D01*
X168757952Y-111836264D01*
X169036682Y-111165007D01*
X169037316Y-110438182D01*
X168759758Y-109766440D01*
X168246264Y-109252048D01*
X167575007Y-108973318D01*
X166848182Y-108972684D01*
X166176440Y-109250242D01*
X165662048Y-109763736D01*
X165383318Y-110434993D01*
X165382684Y-111161818D01*
X161416859Y-111161818D01*
X161417316Y-110638182D01*
X161139758Y-109966440D01*
X160626264Y-109452048D01*
X159955007Y-109173318D01*
X159228182Y-109172684D01*
X158556440Y-109450242D01*
X158042048Y-109963736D01*
X157763318Y-110634993D01*
X157762684Y-111361818D01*
X152553474Y-111361818D01*
X157872647Y-106042646D01*
X157986886Y-105871675D01*
X158027001Y-105670001D01*
X158027000Y-95850000D01*
X157986885Y-95648326D01*
X157903217Y-95523109D01*
X157872645Y-95477354D01*
X154777104Y-92381814D01*
X154777109Y-92375829D01*
X154681855Y-92145297D01*
X154505631Y-91968765D01*
X154275265Y-91873109D01*
X154025829Y-91872891D01*
X153795297Y-91968145D01*
X153618765Y-92144369D01*
X153523109Y-92374735D01*
X153522891Y-92624171D01*
X153618145Y-92854703D01*
X153794369Y-93031235D01*
X154024735Y-93126891D01*
X154031607Y-93126897D01*
X156973000Y-96068291D01*
X156973000Y-97304422D01*
X156901935Y-97198065D01*
X152551935Y-92848065D01*
X152413406Y-92755503D01*
X152250000Y-92722999D01*
X152249995Y-92723000D01*
X138009684Y-92723000D01*
X137963765Y-92677001D01*
X150849994Y-92677001D01*
X150849999Y-92677002D01*
X151013405Y-92644498D01*
X151151934Y-92551936D01*
X151426889Y-92276980D01*
X151574171Y-92277109D01*
X151804703Y-92181855D01*
X151981235Y-92005631D01*
X152074422Y-91781210D01*
X163869304Y-91781210D01*
X163922848Y-92129056D01*
X164105431Y-92429933D01*
X164389256Y-92638036D01*
X164731115Y-92721683D01*
X165078961Y-92668139D01*
X165112171Y-92656051D01*
X165413048Y-92473468D01*
X165621151Y-92189642D01*
X165704798Y-91847784D01*
X165695913Y-91790058D01*
X166545003Y-91790058D01*
X166610415Y-92215032D01*
X166833479Y-92582625D01*
X167180234Y-92836874D01*
X167597892Y-92939071D01*
X168022866Y-92873659D01*
X168063440Y-92858891D01*
X168431033Y-92635827D01*
X168685282Y-92289072D01*
X168787479Y-91871414D01*
X168722067Y-91446440D01*
X168499003Y-91078847D01*
X168152248Y-90824598D01*
X167734590Y-90722401D01*
X167309616Y-90787813D01*
X167269042Y-90802581D01*
X166901449Y-91025645D01*
X166647200Y-91372400D01*
X166545003Y-91790058D01*
X165695913Y-91790058D01*
X165651255Y-91499938D01*
X165468672Y-91199061D01*
X165184846Y-90990958D01*
X164842988Y-90907311D01*
X164495142Y-90960855D01*
X164461931Y-90972943D01*
X164161054Y-91155526D01*
X163952951Y-91439351D01*
X163869304Y-91781210D01*
X152074422Y-91781210D01*
X152076891Y-91775265D01*
X152077109Y-91525829D01*
X151981855Y-91295297D01*
X151805631Y-91118765D01*
X151575265Y-91023109D01*
X151325829Y-91022891D01*
X151095297Y-91118145D01*
X150918765Y-91294369D01*
X150823109Y-91524735D01*
X150822979Y-91673151D01*
X150673129Y-91823001D01*
X146763628Y-91823001D01*
X146881213Y-91705621D01*
X146976869Y-91475255D01*
X146976999Y-91326839D01*
X147151931Y-91151906D01*
X147151934Y-91151904D01*
X147244496Y-91013375D01*
X147248094Y-90995287D01*
X147277000Y-90849969D01*
X147276999Y-90849964D01*
X147276999Y-87082747D01*
X162159203Y-87082747D01*
X162212747Y-87430593D01*
X162395330Y-87731470D01*
X162679155Y-87939573D01*
X163021014Y-88023220D01*
X163368860Y-87969676D01*
X163402070Y-87957588D01*
X163702947Y-87775005D01*
X163911050Y-87491179D01*
X163994697Y-87149321D01*
X163941154Y-86801475D01*
X163758571Y-86500598D01*
X163474745Y-86292495D01*
X163132887Y-86208848D01*
X162785041Y-86262392D01*
X162751830Y-86274480D01*
X162450953Y-86457063D01*
X162242850Y-86740888D01*
X162159203Y-87082747D01*
X147276999Y-87082747D01*
X147276999Y-85676871D01*
X147741660Y-85212209D01*
X164150862Y-85212209D01*
X164216274Y-85637183D01*
X164439338Y-86004776D01*
X164786093Y-86259025D01*
X165203751Y-86361222D01*
X165628725Y-86295810D01*
X165669299Y-86281042D01*
X166036892Y-86057978D01*
X166291141Y-85711223D01*
X166393338Y-85293565D01*
X166327926Y-84868591D01*
X166104862Y-84500998D01*
X165758107Y-84246749D01*
X165340449Y-84144552D01*
X164915475Y-84209964D01*
X164874901Y-84224732D01*
X164507308Y-84447796D01*
X164253059Y-84794551D01*
X164150862Y-85212209D01*
X147741660Y-85212209D01*
X149256808Y-83697061D01*
X150560182Y-83697061D01*
X150655436Y-83927593D01*
X150831660Y-84104125D01*
X151062026Y-84199781D01*
X151311462Y-84199999D01*
X151541994Y-84104745D01*
X151718526Y-83928521D01*
X151814182Y-83698155D01*
X151814312Y-83549739D01*
X154237050Y-81127000D01*
X156440316Y-81127000D01*
X156544369Y-81231235D01*
X156774735Y-81326891D01*
X157024171Y-81327109D01*
X157254703Y-81231855D01*
X157431235Y-81055631D01*
X157526891Y-80825265D01*
X157527109Y-80575829D01*
X157431855Y-80345297D01*
X157255631Y-80168765D01*
X157025265Y-80073109D01*
X156775829Y-80072891D01*
X156545297Y-80168145D01*
X156440259Y-80273000D01*
X154060181Y-80273000D01*
X153896775Y-80305503D01*
X153758246Y-80398065D01*
X153758244Y-80398068D01*
X151210401Y-82945910D01*
X151063120Y-82945781D01*
X150832588Y-83041035D01*
X150656056Y-83217259D01*
X150560400Y-83447625D01*
X150560182Y-83697061D01*
X149256808Y-83697061D01*
X152491932Y-80461937D01*
X152491935Y-80461935D01*
X152584497Y-80323406D01*
X152588058Y-80305503D01*
X152617001Y-80160000D01*
X152617000Y-80159995D01*
X152617000Y-68279406D01*
X153053600Y-68279406D01*
X153174779Y-68256605D01*
X153286074Y-68184988D01*
X153360738Y-68075714D01*
X153387006Y-67946000D01*
X153387006Y-65914000D01*
X153364205Y-65792821D01*
X153292588Y-65681526D01*
X153183314Y-65606862D01*
X153053600Y-65580594D01*
X151326400Y-65580594D01*
X151205221Y-65603395D01*
X151093926Y-65675012D01*
X151019262Y-65784286D01*
X150992994Y-65914000D01*
X150992994Y-67946000D01*
X151015795Y-68067179D01*
X151087412Y-68178474D01*
X151196686Y-68253138D01*
X151326400Y-68279406D01*
X151763000Y-68279406D01*
X151763000Y-79983131D01*
X150077000Y-81669131D01*
X150077000Y-68214375D01*
X150105623Y-68208682D01*
X150491881Y-67950592D01*
X150749971Y-67564334D01*
X150840600Y-67108711D01*
X150840600Y-66751289D01*
X150749971Y-66295666D01*
X150491881Y-65909408D01*
X150105623Y-65651318D01*
X149650000Y-65560689D01*
X149194377Y-65651318D01*
X148808119Y-65909408D01*
X148550029Y-66295666D01*
X148459400Y-66751289D01*
X148459400Y-67108711D01*
X148550029Y-67564334D01*
X148808119Y-67950592D01*
X149194377Y-68208682D01*
X149223000Y-68214375D01*
X149223000Y-81957431D01*
X146007365Y-85173065D01*
X146007365Y-68788905D01*
X146614340Y-68181930D01*
X146654377Y-68208682D01*
X147110000Y-68299311D01*
X147565623Y-68208682D01*
X147951881Y-67950592D01*
X148209971Y-67564334D01*
X148300600Y-67108711D01*
X148300600Y-66751289D01*
X148209971Y-66295666D01*
X147951881Y-65909408D01*
X147565623Y-65651318D01*
X147110000Y-65560689D01*
X146654377Y-65651318D01*
X146268119Y-65909408D01*
X146123677Y-66125581D01*
X146035545Y-65993682D01*
X145269918Y-65228055D01*
X145131389Y-65135493D01*
X144967983Y-65102989D01*
X144967978Y-65102990D01*
X144172017Y-65102990D01*
X144008611Y-65135493D01*
X143870082Y-65228055D01*
X142998793Y-66099344D01*
X142871881Y-65909408D01*
X142485623Y-65651318D01*
X142030000Y-65560689D01*
X141574377Y-65651318D01*
X141188119Y-65909408D01*
X141080610Y-66070306D01*
X141080610Y-61523260D01*
X142626889Y-59976980D01*
X142774171Y-59977109D01*
X143004703Y-59881855D01*
X143181235Y-59705631D01*
X143276891Y-59475265D01*
X143277109Y-59225829D01*
X143181855Y-58995297D01*
X143005631Y-58818765D01*
X142775265Y-58723109D01*
X142525829Y-58722891D01*
X142295297Y-58818145D01*
X142118765Y-58994369D01*
X142023109Y-59224735D01*
X142022979Y-59373152D01*
X140351675Y-61044455D01*
X140259113Y-61182984D01*
X140226609Y-61346390D01*
X140226610Y-61346395D01*
X140226610Y-65839068D01*
X139945623Y-65651318D01*
X139490000Y-65560689D01*
X139034377Y-65651318D01*
X138648119Y-65909408D01*
X138390029Y-66295666D01*
X138371854Y-66387039D01*
X138241954Y-66015680D01*
X137852036Y-65579268D01*
X137324791Y-65325291D01*
X137309026Y-65322642D01*
X137077000Y-65443783D01*
X137077000Y-66803000D01*
X137097000Y-66803000D01*
X137097000Y-67057000D01*
X137077000Y-67057000D01*
X137077000Y-68416217D01*
X137309026Y-68537358D01*
X137324791Y-68534709D01*
X137852036Y-68280732D01*
X138241954Y-67844320D01*
X138371854Y-67472961D01*
X138390029Y-67564334D01*
X138648119Y-67950592D01*
X139034377Y-68208682D01*
X139490000Y-68299311D01*
X139945623Y-68208682D01*
X140123000Y-68090162D01*
X140123000Y-89825731D01*
X140122999Y-89825736D01*
X140155503Y-89989142D01*
X140248065Y-90127671D01*
X140467591Y-90347197D01*
X140373109Y-90574735D01*
X140372891Y-90824171D01*
X140468145Y-91054703D01*
X140644369Y-91231235D01*
X140780061Y-91287579D01*
X140723109Y-91424735D01*
X140722891Y-91674171D01*
X140784386Y-91823001D01*
X138157069Y-91823001D01*
X138176891Y-91775265D01*
X138177109Y-91525829D01*
X138081855Y-91295297D01*
X137905631Y-91118765D01*
X137675265Y-91023109D01*
X137514375Y-91022968D01*
X137413407Y-90955504D01*
X137250001Y-90923000D01*
X137249996Y-90923001D01*
X134176871Y-90923001D01*
X129801943Y-86548073D01*
X129663414Y-86455511D01*
X129513952Y-86425781D01*
X127577000Y-84488828D01*
X127577000Y-79024171D01*
X130672891Y-79024171D01*
X130768145Y-79254703D01*
X130923000Y-79409829D01*
X130923000Y-81190316D01*
X130818765Y-81294369D01*
X130723109Y-81524735D01*
X130722891Y-81774171D01*
X130818145Y-82004703D01*
X130994369Y-82181235D01*
X131224735Y-82276891D01*
X131474171Y-82277109D01*
X131704703Y-82181855D01*
X131881235Y-82005631D01*
X131976891Y-81775265D01*
X131977109Y-81525829D01*
X131881855Y-81295297D01*
X131777000Y-81190259D01*
X131777000Y-79309771D01*
X131831235Y-79255631D01*
X131926891Y-79025265D01*
X131927109Y-78775829D01*
X131831855Y-78545297D01*
X131655631Y-78368765D01*
X131425265Y-78273109D01*
X131175829Y-78272891D01*
X130945297Y-78368145D01*
X130768765Y-78544369D01*
X130673109Y-78774735D01*
X130672891Y-79024171D01*
X127577000Y-79024171D01*
X127577000Y-78524264D01*
X127544497Y-78360858D01*
X127451935Y-78222329D01*
X127451932Y-78222327D01*
X127282409Y-78052804D01*
X127376891Y-77825265D01*
X127377109Y-77575829D01*
X127281855Y-77345297D01*
X127105631Y-77168765D01*
X126875265Y-77073109D01*
X126625829Y-77072891D01*
X126395297Y-77168145D01*
X126218765Y-77344369D01*
X126123109Y-77574735D01*
X126122891Y-77824171D01*
X126218145Y-78054703D01*
X126331812Y-78168569D01*
X126355503Y-78287670D01*
X126448065Y-78426199D01*
X126723000Y-78701133D01*
X126723000Y-84665693D01*
X126722999Y-84665698D01*
X126755503Y-84829104D01*
X126848065Y-84967633D01*
X129032373Y-87151940D01*
X129032375Y-87151943D01*
X129170904Y-87244505D01*
X129320365Y-87274235D01*
X133569130Y-91523000D01*
X124450005Y-91523000D01*
X124450000Y-91522999D01*
X124286594Y-91555503D01*
X124148065Y-91648065D01*
X121198065Y-94598065D01*
X121105503Y-94736594D01*
X121077000Y-94879886D01*
X121077000Y-88418290D01*
X125953914Y-83541376D01*
X126068154Y-83370406D01*
X126108269Y-83168731D01*
X126108269Y-76621080D01*
X126196142Y-76635539D01*
X126325220Y-76606306D01*
X126432755Y-76529158D01*
X126501803Y-76416252D01*
X126825464Y-75527000D01*
X127350000Y-75527000D01*
X127551675Y-75486885D01*
X127722645Y-75372645D01*
X130472645Y-72622645D01*
X130586885Y-72451675D01*
X130614240Y-72314148D01*
X130627000Y-72250000D01*
X130627000Y-66638985D01*
X130956954Y-66638985D01*
X130988457Y-67099386D01*
X131104038Y-67378425D01*
X131306186Y-67415794D01*
X131315392Y-67425000D01*
X131306186Y-67434206D01*
X131104038Y-67471575D01*
X130956954Y-67908985D01*
X130988457Y-68369386D01*
X131104038Y-68648425D01*
X131321727Y-68688667D01*
X131950395Y-68060000D01*
X131936253Y-68045858D01*
X132022008Y-67960102D01*
X132224160Y-67946270D01*
X132323748Y-68045858D01*
X132309605Y-68060000D01*
X132323748Y-68074142D01*
X132144143Y-68253748D01*
X132130000Y-68239605D01*
X131842805Y-68526801D01*
X131648011Y-68607288D01*
X131408130Y-68846750D01*
X131278148Y-69159783D01*
X131277852Y-69498730D01*
X131407288Y-69811989D01*
X131560089Y-69965057D01*
X131408130Y-70116750D01*
X131278148Y-70429783D01*
X131277852Y-70768730D01*
X131407288Y-71081989D01*
X131646750Y-71321870D01*
X131959783Y-71451852D01*
X132298730Y-71452148D01*
X132611989Y-71322712D01*
X132765057Y-71169911D01*
X132916750Y-71321870D01*
X133229783Y-71451852D01*
X133568730Y-71452148D01*
X133881989Y-71322712D01*
X134121870Y-71083250D01*
X134251852Y-70770217D01*
X134252148Y-70431270D01*
X134122712Y-70118011D01*
X133969911Y-69964943D01*
X134121870Y-69813250D01*
X134251852Y-69500217D01*
X134252148Y-69161270D01*
X134122712Y-68848011D01*
X133969911Y-68694943D01*
X134121870Y-68543250D01*
X134247303Y-68241172D01*
X134843000Y-68836869D01*
X134843000Y-71280316D01*
X134738765Y-71384369D01*
X134643109Y-71614735D01*
X134642891Y-71864171D01*
X134738145Y-72094703D01*
X134914369Y-72271235D01*
X135144735Y-72366891D01*
X135394171Y-72367109D01*
X135624703Y-72271855D01*
X135801235Y-72095631D01*
X135896891Y-71865265D01*
X135897109Y-71615829D01*
X135801855Y-71385297D01*
X135697000Y-71280259D01*
X135697000Y-68660000D01*
X135664497Y-68496594D01*
X135571935Y-68358065D01*
X135571932Y-68358063D01*
X134505782Y-67291913D01*
X135464816Y-67291913D01*
X135658046Y-67844320D01*
X136047964Y-68280732D01*
X136575209Y-68534709D01*
X136590974Y-68537358D01*
X136823000Y-68416217D01*
X136823000Y-67057000D01*
X135609076Y-67057000D01*
X135464816Y-67291913D01*
X134505782Y-67291913D01*
X134229035Y-67015166D01*
X134251852Y-66960217D01*
X134252148Y-66621270D01*
X134230174Y-66568087D01*
X135464816Y-66568087D01*
X135609076Y-66803000D01*
X136823000Y-66803000D01*
X136823000Y-65443783D01*
X136590974Y-65322642D01*
X136575209Y-65325291D01*
X136047964Y-65579268D01*
X135658046Y-66015680D01*
X135464816Y-66568087D01*
X134230174Y-66568087D01*
X134122712Y-66308011D01*
X133969911Y-66154943D01*
X134121870Y-66003250D01*
X134251852Y-65690217D01*
X134252148Y-65351270D01*
X134122712Y-65038011D01*
X133883250Y-64798130D01*
X133570217Y-64668148D01*
X133231270Y-64667852D01*
X132918011Y-64797288D01*
X132917004Y-64798293D01*
X132893988Y-64762526D01*
X132784714Y-64687862D01*
X132655000Y-64661594D01*
X131605000Y-64661594D01*
X131483821Y-64684395D01*
X131372526Y-64756012D01*
X131297862Y-64865286D01*
X131271594Y-64995000D01*
X131271594Y-65979298D01*
X131205642Y-66045250D01*
X131286938Y-66126546D01*
X131294395Y-66166179D01*
X131294514Y-66166364D01*
X131104038Y-66201575D01*
X130956954Y-66638985D01*
X130627000Y-66638985D01*
X130627000Y-62318290D01*
X133152883Y-59792407D01*
X136242735Y-59792407D01*
X136474717Y-60353846D01*
X136903894Y-60783773D01*
X137464928Y-61016735D01*
X138072407Y-61017265D01*
X138633846Y-60785283D01*
X139063773Y-60356106D01*
X139296735Y-59795072D01*
X139297265Y-59187593D01*
X139065283Y-58626154D01*
X138636106Y-58196227D01*
X138075072Y-57963265D01*
X137467593Y-57962735D01*
X136906154Y-58194717D01*
X136476227Y-58623894D01*
X136243265Y-59184928D01*
X136242735Y-59792407D01*
X133152883Y-59792407D01*
X134122646Y-58822645D01*
X134236885Y-58651674D01*
X134246635Y-58602655D01*
X141460594Y-51388697D01*
X141460594Y-51726000D01*
X141460594Y-51726000D01*
G37*
X141460594Y-51726000D02*
X141483395Y-51847179D01*
X141555012Y-51958474D01*
X141664286Y-52033138D01*
X141794000Y-52059406D01*
X142283000Y-52059406D01*
X142283000Y-52126000D01*
X142323115Y-52327675D01*
X142437355Y-52498645D01*
X147361355Y-57422646D01*
X147532326Y-57536885D01*
X147734000Y-57577000D01*
X151031710Y-57577000D01*
X151417873Y-57963163D01*
X150927593Y-57962735D01*
X150366154Y-58194717D01*
X149936227Y-58623894D01*
X149703265Y-59184928D01*
X149702735Y-59792407D01*
X149934717Y-60353846D01*
X150363894Y-60783773D01*
X150924928Y-61016735D01*
X151532407Y-61017265D01*
X152093846Y-60785283D01*
X152523773Y-60356106D01*
X152756735Y-59795072D01*
X152757165Y-59302455D01*
X155523000Y-62068290D01*
X155523000Y-68100000D01*
X155563115Y-68301675D01*
X155677355Y-68472645D01*
X158173000Y-70968290D01*
X158173000Y-72112473D01*
X158213115Y-72314148D01*
X158327355Y-72485118D01*
X161214882Y-75372645D01*
X161385852Y-75486885D01*
X161519619Y-75513493D01*
X161848197Y-76416252D01*
X161911069Y-76522324D01*
X162016432Y-76602413D01*
X162144653Y-76635200D01*
X162275528Y-76615519D01*
X164178986Y-75922717D01*
X173813000Y-103142726D01*
X173813000Y-122059764D01*
X173754692Y-122352898D01*
X173605772Y-122575772D01*
X173382898Y-122724692D01*
X173089764Y-122783000D01*
X115150236Y-122783000D01*
X114857102Y-122724692D01*
X114634228Y-122575772D01*
X114485308Y-122352898D01*
X114427000Y-122059764D01*
X114427000Y-120190000D01*
X115280689Y-120190000D01*
X115371318Y-120645623D01*
X115629408Y-121031881D01*
X116015666Y-121289971D01*
X116471289Y-121380600D01*
X116828711Y-121380600D01*
X117284334Y-121289971D01*
X117670592Y-121031881D01*
X117928682Y-120645623D01*
X118019311Y-120190000D01*
X117928682Y-119734377D01*
X117670592Y-119348119D01*
X117284334Y-119090029D01*
X116828711Y-118999400D01*
X116471289Y-118999400D01*
X116015666Y-119090029D01*
X115629408Y-119348119D01*
X115371318Y-119734377D01*
X115280689Y-120190000D01*
X114427000Y-120190000D01*
X114427000Y-117650000D01*
X115280689Y-117650000D01*
X115371318Y-118105623D01*
X115629408Y-118491881D01*
X116015666Y-118749971D01*
X116471289Y-118840600D01*
X116828711Y-118840600D01*
X117284334Y-118749971D01*
X117670592Y-118491881D01*
X117928682Y-118105623D01*
X118019311Y-117650000D01*
X117928682Y-117194377D01*
X117670592Y-116808119D01*
X117284334Y-116550029D01*
X116828711Y-116459400D01*
X116471289Y-116459400D01*
X116015666Y-116550029D01*
X115629408Y-116808119D01*
X115371318Y-117194377D01*
X115280689Y-117650000D01*
X114427000Y-117650000D01*
X114427000Y-114246400D01*
X115300594Y-114246400D01*
X115300594Y-115973600D01*
X115323395Y-116094779D01*
X115395012Y-116206074D01*
X115504286Y-116280738D01*
X115634000Y-116307006D01*
X117666000Y-116307006D01*
X117787179Y-116284205D01*
X117898474Y-116212588D01*
X117973138Y-116103314D01*
X117999406Y-115973600D01*
X117999406Y-114246400D01*
X117976605Y-114125221D01*
X117904988Y-114013926D01*
X117795714Y-113939262D01*
X117666000Y-113912994D01*
X115634000Y-113912994D01*
X115512821Y-113935795D01*
X115401526Y-114007412D01*
X115326862Y-114116686D01*
X115300594Y-114246400D01*
X114427000Y-114246400D01*
X114427000Y-103142726D01*
X124080155Y-75868637D01*
X124165017Y-75920534D01*
X125054269Y-76244195D01*
X125054269Y-82950441D01*
X120177355Y-87827355D01*
X120063115Y-87998325D01*
X120028504Y-88172329D01*
X120023000Y-88200000D01*
X120023000Y-113300000D01*
X120063115Y-113501675D01*
X120177355Y-113672645D01*
X125077354Y-118572645D01*
X125191594Y-118648978D01*
X125248326Y-118686885D01*
X125450000Y-118727000D01*
X138695710Y-118727000D01*
X141451354Y-121482645D01*
X141565594Y-121558978D01*
X141622326Y-121596885D01*
X141824000Y-121637000D01*
X141890594Y-121637000D01*
X141890594Y-122126000D01*
X141913395Y-122247179D01*
X141985012Y-122358474D01*
X142094286Y-122433138D01*
X142224000Y-122459406D01*
X144256000Y-122459406D01*
X144377179Y-122436605D01*
X144488474Y-122364988D01*
X144563138Y-122255714D01*
X144589406Y-122126000D01*
X144589406Y-121725349D01*
X144830356Y-122085955D01*
X145266056Y-122377081D01*
X145780000Y-122479311D01*
X146293944Y-122377081D01*
X146729644Y-122085955D01*
X147020770Y-121650255D01*
X147123000Y-121136311D01*
X147123000Y-121083689D01*
X147020770Y-120569745D01*
X146729644Y-120134045D01*
X146293944Y-119842919D01*
X145780000Y-119740689D01*
X145266056Y-119842919D01*
X144830356Y-120134045D01*
X144589406Y-120494651D01*
X144589406Y-120094000D01*
X144566605Y-119972821D01*
X144494988Y-119861526D01*
X144385714Y-119786862D01*
X144256000Y-119760594D01*
X142224000Y-119760594D01*
X142102821Y-119783395D01*
X141991526Y-119855012D01*
X141916862Y-119964286D01*
X141890594Y-120094000D01*
X141890594Y-120431303D01*
X139286645Y-117827355D01*
X139115675Y-117713115D01*
X138914000Y-117673000D01*
X125668291Y-117673000D01*
X121077000Y-113081710D01*
X121077000Y-111361818D01*
X121952684Y-111361818D01*
X122230242Y-112033560D01*
X122743736Y-112547952D01*
X123414993Y-112826682D01*
X124141818Y-112827316D01*
X124813560Y-112549758D01*
X125327952Y-112036264D01*
X125606682Y-111365007D01*
X125606859Y-111161818D01*
X129572684Y-111161818D01*
X129850242Y-111833560D01*
X130363736Y-112347952D01*
X131034993Y-112626682D01*
X131761818Y-112627316D01*
X132433560Y-112349758D01*
X132947952Y-111836264D01*
X133226682Y-111165007D01*
X133227316Y-110438182D01*
X132949758Y-109766440D01*
X132436264Y-109252048D01*
X131765007Y-108973318D01*
X131038182Y-108972684D01*
X130366440Y-109250242D01*
X129852048Y-109763736D01*
X129573318Y-110434993D01*
X129572684Y-111161818D01*
X125606859Y-111161818D01*
X125607316Y-110638182D01*
X125329758Y-109966440D01*
X124816264Y-109452048D01*
X124145007Y-109173318D01*
X123418182Y-109172684D01*
X122746440Y-109450242D01*
X122232048Y-109963736D01*
X121953318Y-110634993D01*
X121952684Y-111361818D01*
X121077000Y-111361818D01*
X121077000Y-102713748D01*
X121144369Y-102781235D01*
X121374735Y-102876891D01*
X121624171Y-102877109D01*
X121854703Y-102781855D01*
X122031235Y-102605631D01*
X122126891Y-102375265D01*
X122127109Y-102125829D01*
X122031855Y-101895297D01*
X121927000Y-101790259D01*
X121927000Y-95076870D01*
X124626870Y-92377000D01*
X124984454Y-92377000D01*
X124923109Y-92524735D01*
X124922891Y-92774171D01*
X125018145Y-93004703D01*
X125023000Y-93009566D01*
X125023000Y-95031710D01*
X124577355Y-95477355D01*
X124463115Y-95648325D01*
X124445500Y-95736885D01*
X124423000Y-95850000D01*
X124423000Y-100250000D01*
X124463115Y-100451675D01*
X124577355Y-100622645D01*
X139972896Y-116018186D01*
X139972891Y-116024171D01*
X140068145Y-116254703D01*
X140244369Y-116431235D01*
X140474735Y-116526891D01*
X140724171Y-116527109D01*
X140954703Y-116431855D01*
X141009654Y-116377000D01*
X147320002Y-116377000D01*
X147521677Y-116336885D01*
X147692647Y-116222645D01*
X152553474Y-111361818D01*
X157762684Y-111361818D01*
X158040242Y-112033560D01*
X158553736Y-112547952D01*
X159224993Y-112826682D01*
X159951818Y-112827316D01*
X160623560Y-112549758D01*
X161137952Y-112036264D01*
X161416682Y-111365007D01*
X161416859Y-111161818D01*
X165382684Y-111161818D01*
X165660242Y-111833560D01*
X166173736Y-112347952D01*
X166844993Y-112626682D01*
X167571818Y-112627316D01*
X168243560Y-112349758D01*
X168757952Y-111836264D01*
X169036682Y-111165007D01*
X169037316Y-110438182D01*
X168759758Y-109766440D01*
X168246264Y-109252048D01*
X167575007Y-108973318D01*
X166848182Y-108972684D01*
X166176440Y-109250242D01*
X165662048Y-109763736D01*
X165383318Y-110434993D01*
X165382684Y-111161818D01*
X161416859Y-111161818D01*
X161417316Y-110638182D01*
X161139758Y-109966440D01*
X160626264Y-109452048D01*
X159955007Y-109173318D01*
X159228182Y-109172684D01*
X158556440Y-109450242D01*
X158042048Y-109963736D01*
X157763318Y-110634993D01*
X157762684Y-111361818D01*
X152553474Y-111361818D01*
X157872647Y-106042646D01*
X157986886Y-105871675D01*
X158027001Y-105670001D01*
X158027000Y-95850000D01*
X157986885Y-95648326D01*
X157903217Y-95523109D01*
X157872645Y-95477354D01*
X154777104Y-92381814D01*
X154777109Y-92375829D01*
X154681855Y-92145297D01*
X154505631Y-91968765D01*
X154275265Y-91873109D01*
X154025829Y-91872891D01*
X153795297Y-91968145D01*
X153618765Y-92144369D01*
X153523109Y-92374735D01*
X153522891Y-92624171D01*
X153618145Y-92854703D01*
X153794369Y-93031235D01*
X154024735Y-93126891D01*
X154031607Y-93126897D01*
X156973000Y-96068291D01*
X156973000Y-97304422D01*
X156901935Y-97198065D01*
X152551935Y-92848065D01*
X152413406Y-92755503D01*
X152250000Y-92722999D01*
X152249995Y-92723000D01*
X138009684Y-92723000D01*
X137963765Y-92677001D01*
X150849994Y-92677001D01*
X150849999Y-92677002D01*
X151013405Y-92644498D01*
X151151934Y-92551936D01*
X151426889Y-92276980D01*
X151574171Y-92277109D01*
X151804703Y-92181855D01*
X151981235Y-92005631D01*
X152074422Y-91781210D01*
X163869304Y-91781210D01*
X163922848Y-92129056D01*
X164105431Y-92429933D01*
X164389256Y-92638036D01*
X164731115Y-92721683D01*
X165078961Y-92668139D01*
X165112171Y-92656051D01*
X165413048Y-92473468D01*
X165621151Y-92189642D01*
X165704798Y-91847784D01*
X165695913Y-91790058D01*
X166545003Y-91790058D01*
X166610415Y-92215032D01*
X166833479Y-92582625D01*
X167180234Y-92836874D01*
X167597892Y-92939071D01*
X168022866Y-92873659D01*
X168063440Y-92858891D01*
X168431033Y-92635827D01*
X168685282Y-92289072D01*
X168787479Y-91871414D01*
X168722067Y-91446440D01*
X168499003Y-91078847D01*
X168152248Y-90824598D01*
X167734590Y-90722401D01*
X167309616Y-90787813D01*
X167269042Y-90802581D01*
X166901449Y-91025645D01*
X166647200Y-91372400D01*
X166545003Y-91790058D01*
X165695913Y-91790058D01*
X165651255Y-91499938D01*
X165468672Y-91199061D01*
X165184846Y-90990958D01*
X164842988Y-90907311D01*
X164495142Y-90960855D01*
X164461931Y-90972943D01*
X164161054Y-91155526D01*
X163952951Y-91439351D01*
X163869304Y-91781210D01*
X152074422Y-91781210D01*
X152076891Y-91775265D01*
X152077109Y-91525829D01*
X151981855Y-91295297D01*
X151805631Y-91118765D01*
X151575265Y-91023109D01*
X151325829Y-91022891D01*
X151095297Y-91118145D01*
X150918765Y-91294369D01*
X150823109Y-91524735D01*
X150822979Y-91673151D01*
X150673129Y-91823001D01*
X146763628Y-91823001D01*
X146881213Y-91705621D01*
X146976869Y-91475255D01*
X146976999Y-91326839D01*
X147151931Y-91151906D01*
X147151934Y-91151904D01*
X147244496Y-91013375D01*
X147248094Y-90995287D01*
X147277000Y-90849969D01*
X147276999Y-90849964D01*
X147276999Y-87082747D01*
X162159203Y-87082747D01*
X162212747Y-87430593D01*
X162395330Y-87731470D01*
X162679155Y-87939573D01*
X163021014Y-88023220D01*
X163368860Y-87969676D01*
X163402070Y-87957588D01*
X163702947Y-87775005D01*
X163911050Y-87491179D01*
X163994697Y-87149321D01*
X163941154Y-86801475D01*
X163758571Y-86500598D01*
X163474745Y-86292495D01*
X163132887Y-86208848D01*
X162785041Y-86262392D01*
X162751830Y-86274480D01*
X162450953Y-86457063D01*
X162242850Y-86740888D01*
X162159203Y-87082747D01*
X147276999Y-87082747D01*
X147276999Y-85676871D01*
X147741660Y-85212209D01*
X164150862Y-85212209D01*
X164216274Y-85637183D01*
X164439338Y-86004776D01*
X164786093Y-86259025D01*
X165203751Y-86361222D01*
X165628725Y-86295810D01*
X165669299Y-86281042D01*
X166036892Y-86057978D01*
X166291141Y-85711223D01*
X166393338Y-85293565D01*
X166327926Y-84868591D01*
X166104862Y-84500998D01*
X165758107Y-84246749D01*
X165340449Y-84144552D01*
X164915475Y-84209964D01*
X164874901Y-84224732D01*
X164507308Y-84447796D01*
X164253059Y-84794551D01*
X164150862Y-85212209D01*
X147741660Y-85212209D01*
X149256808Y-83697061D01*
X150560182Y-83697061D01*
X150655436Y-83927593D01*
X150831660Y-84104125D01*
X151062026Y-84199781D01*
X151311462Y-84199999D01*
X151541994Y-84104745D01*
X151718526Y-83928521D01*
X151814182Y-83698155D01*
X151814312Y-83549739D01*
X154237050Y-81127000D01*
X156440316Y-81127000D01*
X156544369Y-81231235D01*
X156774735Y-81326891D01*
X157024171Y-81327109D01*
X157254703Y-81231855D01*
X157431235Y-81055631D01*
X157526891Y-80825265D01*
X157527109Y-80575829D01*
X157431855Y-80345297D01*
X157255631Y-80168765D01*
X157025265Y-80073109D01*
X156775829Y-80072891D01*
X156545297Y-80168145D01*
X156440259Y-80273000D01*
X154060181Y-80273000D01*
X153896775Y-80305503D01*
X153758246Y-80398065D01*
X153758244Y-80398068D01*
X151210401Y-82945910D01*
X151063120Y-82945781D01*
X150832588Y-83041035D01*
X150656056Y-83217259D01*
X150560400Y-83447625D01*
X150560182Y-83697061D01*
X149256808Y-83697061D01*
X152491932Y-80461937D01*
X152491935Y-80461935D01*
X152584497Y-80323406D01*
X152588058Y-80305503D01*
X152617001Y-80160000D01*
X152617000Y-80159995D01*
X152617000Y-68279406D01*
X153053600Y-68279406D01*
X153174779Y-68256605D01*
X153286074Y-68184988D01*
X153360738Y-68075714D01*
X153387006Y-67946000D01*
X153387006Y-65914000D01*
X153364205Y-65792821D01*
X153292588Y-65681526D01*
X153183314Y-65606862D01*
X153053600Y-65580594D01*
X151326400Y-65580594D01*
X151205221Y-65603395D01*
X151093926Y-65675012D01*
X151019262Y-65784286D01*
X150992994Y-65914000D01*
X150992994Y-67946000D01*
X151015795Y-68067179D01*
X151087412Y-68178474D01*
X151196686Y-68253138D01*
X151326400Y-68279406D01*
X151763000Y-68279406D01*
X151763000Y-79983131D01*
X150077000Y-81669131D01*
X150077000Y-68214375D01*
X150105623Y-68208682D01*
X150491881Y-67950592D01*
X150749971Y-67564334D01*
X150840600Y-67108711D01*
X150840600Y-66751289D01*
X150749971Y-66295666D01*
X150491881Y-65909408D01*
X150105623Y-65651318D01*
X149650000Y-65560689D01*
X149194377Y-65651318D01*
X148808119Y-65909408D01*
X148550029Y-66295666D01*
X148459400Y-66751289D01*
X148459400Y-67108711D01*
X148550029Y-67564334D01*
X148808119Y-67950592D01*
X149194377Y-68208682D01*
X149223000Y-68214375D01*
X149223000Y-81957431D01*
X146007365Y-85173065D01*
X146007365Y-68788905D01*
X146614340Y-68181930D01*
X146654377Y-68208682D01*
X147110000Y-68299311D01*
X147565623Y-68208682D01*
X147951881Y-67950592D01*
X148209971Y-67564334D01*
X148300600Y-67108711D01*
X148300600Y-66751289D01*
X148209971Y-66295666D01*
X147951881Y-65909408D01*
X147565623Y-65651318D01*
X147110000Y-65560689D01*
X146654377Y-65651318D01*
X146268119Y-65909408D01*
X146123677Y-66125581D01*
X146035545Y-65993682D01*
X145269918Y-65228055D01*
X145131389Y-65135493D01*
X144967983Y-65102989D01*
X144967978Y-65102990D01*
X144172017Y-65102990D01*
X144008611Y-65135493D01*
X143870082Y-65228055D01*
X142998793Y-66099344D01*
X142871881Y-65909408D01*
X142485623Y-65651318D01*
X142030000Y-65560689D01*
X141574377Y-65651318D01*
X141188119Y-65909408D01*
X141080610Y-66070306D01*
X141080610Y-61523260D01*
X142626889Y-59976980D01*
X142774171Y-59977109D01*
X143004703Y-59881855D01*
X143181235Y-59705631D01*
X143276891Y-59475265D01*
X143277109Y-59225829D01*
X143181855Y-58995297D01*
X143005631Y-58818765D01*
X142775265Y-58723109D01*
X142525829Y-58722891D01*
X142295297Y-58818145D01*
X142118765Y-58994369D01*
X142023109Y-59224735D01*
X142022979Y-59373152D01*
X140351675Y-61044455D01*
X140259113Y-61182984D01*
X140226609Y-61346390D01*
X140226610Y-61346395D01*
X140226610Y-65839068D01*
X139945623Y-65651318D01*
X139490000Y-65560689D01*
X139034377Y-65651318D01*
X138648119Y-65909408D01*
X138390029Y-66295666D01*
X138371854Y-66387039D01*
X138241954Y-66015680D01*
X137852036Y-65579268D01*
X137324791Y-65325291D01*
X137309026Y-65322642D01*
X137077000Y-65443783D01*
X137077000Y-66803000D01*
X137097000Y-66803000D01*
X137097000Y-67057000D01*
X137077000Y-67057000D01*
X137077000Y-68416217D01*
X137309026Y-68537358D01*
X137324791Y-68534709D01*
X137852036Y-68280732D01*
X138241954Y-67844320D01*
X138371854Y-67472961D01*
X138390029Y-67564334D01*
X138648119Y-67950592D01*
X139034377Y-68208682D01*
X139490000Y-68299311D01*
X139945623Y-68208682D01*
X140123000Y-68090162D01*
X140123000Y-89825731D01*
X140122999Y-89825736D01*
X140155503Y-89989142D01*
X140248065Y-90127671D01*
X140467591Y-90347197D01*
X140373109Y-90574735D01*
X140372891Y-90824171D01*
X140468145Y-91054703D01*
X140644369Y-91231235D01*
X140780061Y-91287579D01*
X140723109Y-91424735D01*
X140722891Y-91674171D01*
X140784386Y-91823001D01*
X138157069Y-91823001D01*
X138176891Y-91775265D01*
X138177109Y-91525829D01*
X138081855Y-91295297D01*
X137905631Y-91118765D01*
X137675265Y-91023109D01*
X137514375Y-91022968D01*
X137413407Y-90955504D01*
X137250001Y-90923000D01*
X137249996Y-90923001D01*
X134176871Y-90923001D01*
X129801943Y-86548073D01*
X129663414Y-86455511D01*
X129513952Y-86425781D01*
X127577000Y-84488828D01*
X127577000Y-79024171D01*
X130672891Y-79024171D01*
X130768145Y-79254703D01*
X130923000Y-79409829D01*
X130923000Y-81190316D01*
X130818765Y-81294369D01*
X130723109Y-81524735D01*
X130722891Y-81774171D01*
X130818145Y-82004703D01*
X130994369Y-82181235D01*
X131224735Y-82276891D01*
X131474171Y-82277109D01*
X131704703Y-82181855D01*
X131881235Y-82005631D01*
X131976891Y-81775265D01*
X131977109Y-81525829D01*
X131881855Y-81295297D01*
X131777000Y-81190259D01*
X131777000Y-79309771D01*
X131831235Y-79255631D01*
X131926891Y-79025265D01*
X131927109Y-78775829D01*
X131831855Y-78545297D01*
X131655631Y-78368765D01*
X131425265Y-78273109D01*
X131175829Y-78272891D01*
X130945297Y-78368145D01*
X130768765Y-78544369D01*
X130673109Y-78774735D01*
X130672891Y-79024171D01*
X127577000Y-79024171D01*
X127577000Y-78524264D01*
X127544497Y-78360858D01*
X127451935Y-78222329D01*
X127451932Y-78222327D01*
X127282409Y-78052804D01*
X127376891Y-77825265D01*
X127377109Y-77575829D01*
X127281855Y-77345297D01*
X127105631Y-77168765D01*
X126875265Y-77073109D01*
X126625829Y-77072891D01*
X126395297Y-77168145D01*
X126218765Y-77344369D01*
X126123109Y-77574735D01*
X126122891Y-77824171D01*
X126218145Y-78054703D01*
X126331812Y-78168569D01*
X126355503Y-78287670D01*
X126448065Y-78426199D01*
X126723000Y-78701133D01*
X126723000Y-84665693D01*
X126722999Y-84665698D01*
X126755503Y-84829104D01*
X126848065Y-84967633D01*
X129032373Y-87151940D01*
X129032375Y-87151943D01*
X129170904Y-87244505D01*
X129320365Y-87274235D01*
X133569130Y-91523000D01*
X124450005Y-91523000D01*
X124450000Y-91522999D01*
X124286594Y-91555503D01*
X124148065Y-91648065D01*
X121198065Y-94598065D01*
X121105503Y-94736594D01*
X121077000Y-94879886D01*
X121077000Y-88418290D01*
X125953914Y-83541376D01*
X126068154Y-83370406D01*
X126108269Y-83168731D01*
X126108269Y-76621080D01*
X126196142Y-76635539D01*
X126325220Y-76606306D01*
X126432755Y-76529158D01*
X126501803Y-76416252D01*
X126825464Y-75527000D01*
X127350000Y-75527000D01*
X127551675Y-75486885D01*
X127722645Y-75372645D01*
X130472645Y-72622645D01*
X130586885Y-72451675D01*
X130614240Y-72314148D01*
X130627000Y-72250000D01*
X130627000Y-66638985D01*
X130956954Y-66638985D01*
X130988457Y-67099386D01*
X131104038Y-67378425D01*
X131306186Y-67415794D01*
X131315392Y-67425000D01*
X131306186Y-67434206D01*
X131104038Y-67471575D01*
X130956954Y-67908985D01*
X130988457Y-68369386D01*
X131104038Y-68648425D01*
X131321727Y-68688667D01*
X131950395Y-68060000D01*
X131936253Y-68045858D01*
X132022008Y-67960102D01*
X132224160Y-67946270D01*
X132323748Y-68045858D01*
X132309605Y-68060000D01*
X132323748Y-68074142D01*
X132144143Y-68253748D01*
X132130000Y-68239605D01*
X131842805Y-68526801D01*
X131648011Y-68607288D01*
X131408130Y-68846750D01*
X131278148Y-69159783D01*
X131277852Y-69498730D01*
X131407288Y-69811989D01*
X131560089Y-69965057D01*
X131408130Y-70116750D01*
X131278148Y-70429783D01*
X131277852Y-70768730D01*
X131407288Y-71081989D01*
X131646750Y-71321870D01*
X131959783Y-71451852D01*
X132298730Y-71452148D01*
X132611989Y-71322712D01*
X132765057Y-71169911D01*
X132916750Y-71321870D01*
X133229783Y-71451852D01*
X133568730Y-71452148D01*
X133881989Y-71322712D01*
X134121870Y-71083250D01*
X134251852Y-70770217D01*
X134252148Y-70431270D01*
X134122712Y-70118011D01*
X133969911Y-69964943D01*
X134121870Y-69813250D01*
X134251852Y-69500217D01*
X134252148Y-69161270D01*
X134122712Y-68848011D01*
X133969911Y-68694943D01*
X134121870Y-68543250D01*
X134247303Y-68241172D01*
X134843000Y-68836869D01*
X134843000Y-71280316D01*
X134738765Y-71384369D01*
X134643109Y-71614735D01*
X134642891Y-71864171D01*
X134738145Y-72094703D01*
X134914369Y-72271235D01*
X135144735Y-72366891D01*
X135394171Y-72367109D01*
X135624703Y-72271855D01*
X135801235Y-72095631D01*
X135896891Y-71865265D01*
X135897109Y-71615829D01*
X135801855Y-71385297D01*
X135697000Y-71280259D01*
X135697000Y-68660000D01*
X135664497Y-68496594D01*
X135571935Y-68358065D01*
X135571932Y-68358063D01*
X134505782Y-67291913D01*
X135464816Y-67291913D01*
X135658046Y-67844320D01*
X136047964Y-68280732D01*
X136575209Y-68534709D01*
X136590974Y-68537358D01*
X136823000Y-68416217D01*
X136823000Y-67057000D01*
X135609076Y-67057000D01*
X135464816Y-67291913D01*
X134505782Y-67291913D01*
X134229035Y-67015166D01*
X134251852Y-66960217D01*
X134252148Y-66621270D01*
X134230174Y-66568087D01*
X135464816Y-66568087D01*
X135609076Y-66803000D01*
X136823000Y-66803000D01*
X136823000Y-65443783D01*
X136590974Y-65322642D01*
X136575209Y-65325291D01*
X136047964Y-65579268D01*
X135658046Y-66015680D01*
X135464816Y-66568087D01*
X134230174Y-66568087D01*
X134122712Y-66308011D01*
X133969911Y-66154943D01*
X134121870Y-66003250D01*
X134251852Y-65690217D01*
X134252148Y-65351270D01*
X134122712Y-65038011D01*
X133883250Y-64798130D01*
X133570217Y-64668148D01*
X133231270Y-64667852D01*
X132918011Y-64797288D01*
X132917004Y-64798293D01*
X132893988Y-64762526D01*
X132784714Y-64687862D01*
X132655000Y-64661594D01*
X131605000Y-64661594D01*
X131483821Y-64684395D01*
X131372526Y-64756012D01*
X131297862Y-64865286D01*
X131271594Y-64995000D01*
X131271594Y-65979298D01*
X131205642Y-66045250D01*
X131286938Y-66126546D01*
X131294395Y-66166179D01*
X131294514Y-66166364D01*
X131104038Y-66201575D01*
X130956954Y-66638985D01*
X130627000Y-66638985D01*
X130627000Y-62318290D01*
X133152883Y-59792407D01*
X136242735Y-59792407D01*
X136474717Y-60353846D01*
X136903894Y-60783773D01*
X137464928Y-61016735D01*
X138072407Y-61017265D01*
X138633846Y-60785283D01*
X139063773Y-60356106D01*
X139296735Y-59795072D01*
X139297265Y-59187593D01*
X139065283Y-58626154D01*
X138636106Y-58196227D01*
X138075072Y-57963265D01*
X137467593Y-57962735D01*
X136906154Y-58194717D01*
X136476227Y-58623894D01*
X136243265Y-59184928D01*
X136242735Y-59792407D01*
X133152883Y-59792407D01*
X134122646Y-58822645D01*
X134236885Y-58651674D01*
X134246635Y-58602655D01*
X141460594Y-51388697D01*
X141460594Y-51726000D01*
G36*
X132323748Y-66775858D02*
X132309605Y-66790000D01*
X132323748Y-66804143D01*
X132237992Y-66889898D01*
X132035840Y-66903730D01*
X131936253Y-66804143D01*
X131950395Y-66790000D01*
X131936252Y-66775858D01*
X132115858Y-66596253D01*
X132130000Y-66610395D01*
X132144143Y-66596253D01*
X132323748Y-66775858D01*
X132323748Y-66775858D01*
G37*
X132323748Y-66775858D02*
X132309605Y-66790000D01*
X132323748Y-66804143D01*
X132237992Y-66889898D01*
X132035840Y-66903730D01*
X131936253Y-66804143D01*
X131950395Y-66790000D01*
X131936252Y-66775858D01*
X132115858Y-66596253D01*
X132130000Y-66610395D01*
X132144143Y-66596253D01*
X132323748Y-66775858D01*
G36*
X136960062Y-92551933D02*
X136960064Y-92551936D01*
X137069809Y-92625265D01*
X137098593Y-92644498D01*
X137157217Y-92656159D01*
X137018765Y-92794369D01*
X136923109Y-93024735D01*
X136922891Y-93274171D01*
X137018145Y-93504703D01*
X137194369Y-93681235D01*
X137424735Y-93776891D01*
X137674171Y-93777109D01*
X137904703Y-93681855D01*
X138009741Y-93577000D01*
X152073130Y-93577000D01*
X156173000Y-97676870D01*
X156173000Y-98090316D01*
X156068765Y-98194369D01*
X155973109Y-98424735D01*
X155972891Y-98674171D01*
X156068145Y-98904703D01*
X156244369Y-99081235D01*
X156474735Y-99176891D01*
X156724171Y-99177109D01*
X156954703Y-99081855D01*
X156973000Y-99063590D01*
X156973001Y-103416594D01*
X156100000Y-103416594D01*
X155978821Y-103439395D01*
X155867526Y-103511012D01*
X155792862Y-103620286D01*
X155766594Y-103750000D01*
X155766594Y-104796694D01*
X154940288Y-105623000D01*
X154279618Y-105623000D01*
X154332474Y-105588988D01*
X154407138Y-105479714D01*
X154433406Y-105350000D01*
X154433406Y-103750000D01*
X154410605Y-103628821D01*
X154338988Y-103517526D01*
X154229714Y-103442862D01*
X154100000Y-103416594D01*
X153100000Y-103416594D01*
X152978821Y-103439395D01*
X152867526Y-103511012D01*
X152792862Y-103620286D01*
X152766594Y-103750000D01*
X152766594Y-103923000D01*
X151700000Y-103923000D01*
X151460058Y-103970727D01*
X151256644Y-104106644D01*
X144207031Y-111156257D01*
X144165495Y-111197721D01*
X144081855Y-110995297D01*
X143905631Y-110818765D01*
X143855533Y-110797962D01*
X143739943Y-110720728D01*
X143500000Y-110673000D01*
X142909712Y-110673000D01*
X136283406Y-104046694D01*
X136283406Y-103000000D01*
X136260605Y-102878821D01*
X136188988Y-102767526D01*
X136079714Y-102692862D01*
X135950000Y-102666594D01*
X134950000Y-102666594D01*
X134828821Y-102689395D01*
X134717526Y-102761012D01*
X134642862Y-102870286D01*
X134616594Y-103000000D01*
X134616594Y-104600000D01*
X134639395Y-104721179D01*
X134711012Y-104832474D01*
X134820286Y-104907138D01*
X134950000Y-104933406D01*
X135396694Y-104933406D01*
X141936288Y-111473000D01*
X140709712Y-111473000D01*
X133283406Y-104046694D01*
X133283406Y-103000000D01*
X133260605Y-102878821D01*
X133188988Y-102767526D01*
X133079714Y-102692862D01*
X132950000Y-102666594D01*
X131950000Y-102666594D01*
X131828821Y-102689395D01*
X131717526Y-102761012D01*
X131642862Y-102870286D01*
X131616594Y-103000000D01*
X131616594Y-104600000D01*
X131639395Y-104721179D01*
X131711012Y-104832474D01*
X131820286Y-104907138D01*
X131950000Y-104933406D01*
X132396694Y-104933406D01*
X140006644Y-112543356D01*
X140210057Y-112679272D01*
X140450000Y-112727000D01*
X141772976Y-112727000D01*
X141772891Y-112824171D01*
X141773000Y-112824435D01*
X141773000Y-113499453D01*
X141772891Y-113624171D01*
X141868145Y-113854703D01*
X142044369Y-114031235D01*
X142274735Y-114126891D01*
X142524171Y-114127109D01*
X142754703Y-114031855D01*
X142931235Y-113855631D01*
X143026891Y-113625265D01*
X143026989Y-113513562D01*
X143194369Y-113681235D01*
X143424735Y-113776891D01*
X143674171Y-113777109D01*
X143904703Y-113681855D01*
X144081235Y-113505631D01*
X144135345Y-113375320D01*
X144168145Y-113454703D01*
X144344369Y-113631235D01*
X144574735Y-113726891D01*
X144824171Y-113727109D01*
X145054703Y-113631855D01*
X145207612Y-113479212D01*
X145218145Y-113504703D01*
X145394369Y-113681235D01*
X145624735Y-113776891D01*
X145874171Y-113777109D01*
X146104703Y-113681855D01*
X146281235Y-113505631D01*
X146376891Y-113275265D01*
X146377109Y-113025829D01*
X146377000Y-113025565D01*
X146377000Y-112350000D01*
X146377109Y-112225829D01*
X146299269Y-112037443D01*
X151459712Y-106877000D01*
X155200000Y-106877000D01*
X155439943Y-106829272D01*
X155643356Y-106693356D01*
X156653306Y-105683406D01*
X156741305Y-105683406D01*
X147101712Y-115323000D01*
X140845416Y-115323000D01*
X140725265Y-115273109D01*
X140718393Y-115273103D01*
X126128696Y-100683406D01*
X127200000Y-100683406D01*
X127321179Y-100660605D01*
X127432474Y-100588988D01*
X127507138Y-100479714D01*
X127530556Y-100364071D01*
X127770875Y-100681933D01*
X128190624Y-100928286D01*
X128282391Y-100943462D01*
X128473000Y-100818731D01*
X128473000Y-99627000D01*
X128727000Y-99627000D01*
X128727000Y-100818731D01*
X128917609Y-100943462D01*
X129009376Y-100928286D01*
X129429125Y-100681933D01*
X129699610Y-100324171D01*
X134672891Y-100324171D01*
X134768145Y-100554703D01*
X134944369Y-100731235D01*
X135174735Y-100826891D01*
X135181607Y-100826897D01*
X135677355Y-101322645D01*
X135848325Y-101436885D01*
X135881785Y-101443540D01*
X136050000Y-101477000D01*
X155900000Y-101477000D01*
X155900435Y-101476913D01*
X156124171Y-101477109D01*
X156354703Y-101381855D01*
X156531235Y-101205631D01*
X156626891Y-100975265D01*
X156627109Y-100725829D01*
X156531855Y-100495297D01*
X156355631Y-100318765D01*
X156125265Y-100223109D01*
X155875829Y-100222891D01*
X155645297Y-100318145D01*
X155540259Y-100423000D01*
X148713661Y-100423000D01*
X148831235Y-100305631D01*
X148926891Y-100075265D01*
X148927109Y-99825829D01*
X148831855Y-99595297D01*
X148655631Y-99418765D01*
X148425265Y-99323109D01*
X148276848Y-99322979D01*
X146501935Y-97548065D01*
X146363406Y-97455503D01*
X146200000Y-97422999D01*
X146199995Y-97423000D01*
X146109684Y-97423000D01*
X146005631Y-97318765D01*
X145775265Y-97223109D01*
X145525829Y-97222891D01*
X145295297Y-97318145D01*
X145118765Y-97494369D01*
X145023109Y-97724735D01*
X145022891Y-97974171D01*
X145118145Y-98204703D01*
X145294369Y-98381235D01*
X145524735Y-98476891D01*
X145774171Y-98477109D01*
X146004703Y-98381855D01*
X146066398Y-98320268D01*
X147673020Y-99926889D01*
X147672891Y-100074171D01*
X147768145Y-100304703D01*
X147886236Y-100423000D01*
X136268290Y-100423000D01*
X135927104Y-100081814D01*
X135927109Y-100075829D01*
X135831855Y-99845297D01*
X135655631Y-99668765D01*
X135425265Y-99573109D01*
X135175829Y-99572891D01*
X134945297Y-99668145D01*
X134768765Y-99844369D01*
X134673109Y-100074735D01*
X134672891Y-100324171D01*
X129699610Y-100324171D01*
X129722647Y-100293701D01*
X129845256Y-99822696D01*
X129682547Y-99627000D01*
X128727000Y-99627000D01*
X128473000Y-99627000D01*
X128453000Y-99627000D01*
X128453000Y-99373000D01*
X128473000Y-99373000D01*
X128473000Y-98181269D01*
X128727000Y-98181269D01*
X128727000Y-99373000D01*
X129682547Y-99373000D01*
X129845256Y-99177304D01*
X129722647Y-98706299D01*
X129429125Y-98318067D01*
X129009376Y-98071714D01*
X128917609Y-98056538D01*
X128727000Y-98181269D01*
X128473000Y-98181269D01*
X128282391Y-98056538D01*
X128190624Y-98071714D01*
X127770875Y-98318067D01*
X127530718Y-98635715D01*
X127510605Y-98528821D01*
X127438988Y-98417526D01*
X127329714Y-98342862D01*
X127200000Y-98316594D01*
X126000000Y-98316594D01*
X125878821Y-98339395D01*
X125767526Y-98411012D01*
X125692862Y-98520286D01*
X125666594Y-98650000D01*
X125666594Y-100221304D01*
X125477000Y-100031710D01*
X125477000Y-96274171D01*
X148822891Y-96274171D01*
X148918145Y-96504703D01*
X149094369Y-96681235D01*
X149324735Y-96776891D01*
X149373063Y-96776933D01*
X149773020Y-97176890D01*
X149772891Y-97324171D01*
X149868145Y-97554703D01*
X150044369Y-97731235D01*
X150274735Y-97826891D01*
X150524171Y-97827109D01*
X150754703Y-97731855D01*
X150931235Y-97555631D01*
X151026891Y-97325265D01*
X151027109Y-97075829D01*
X150931855Y-96845297D01*
X150755631Y-96668765D01*
X150525265Y-96573109D01*
X150376849Y-96572979D01*
X150076893Y-96273023D01*
X150077109Y-96025829D01*
X149981855Y-95795297D01*
X149805631Y-95618765D01*
X149575265Y-95523109D01*
X149325829Y-95522891D01*
X149095297Y-95618145D01*
X148918765Y-95794369D01*
X148823109Y-96024735D01*
X148822891Y-96274171D01*
X125477000Y-96274171D01*
X125477000Y-96068290D01*
X125922645Y-95622645D01*
X126036885Y-95451675D01*
X126077000Y-95250000D01*
X126077000Y-93009859D01*
X126081235Y-93005631D01*
X126176891Y-92775265D01*
X126177109Y-92525829D01*
X126115614Y-92377000D01*
X136785128Y-92377000D01*
X136960062Y-92551933D01*
X136960062Y-92551933D01*
G37*
X136960062Y-92551933D02*
X136960064Y-92551936D01*
X137069809Y-92625265D01*
X137098593Y-92644498D01*
X137157217Y-92656159D01*
X137018765Y-92794369D01*
X136923109Y-93024735D01*
X136922891Y-93274171D01*
X137018145Y-93504703D01*
X137194369Y-93681235D01*
X137424735Y-93776891D01*
X137674171Y-93777109D01*
X137904703Y-93681855D01*
X138009741Y-93577000D01*
X152073130Y-93577000D01*
X156173000Y-97676870D01*
X156173000Y-98090316D01*
X156068765Y-98194369D01*
X155973109Y-98424735D01*
X155972891Y-98674171D01*
X156068145Y-98904703D01*
X156244369Y-99081235D01*
X156474735Y-99176891D01*
X156724171Y-99177109D01*
X156954703Y-99081855D01*
X156973000Y-99063590D01*
X156973001Y-103416594D01*
X156100000Y-103416594D01*
X155978821Y-103439395D01*
X155867526Y-103511012D01*
X155792862Y-103620286D01*
X155766594Y-103750000D01*
X155766594Y-104796694D01*
X154940288Y-105623000D01*
X154279618Y-105623000D01*
X154332474Y-105588988D01*
X154407138Y-105479714D01*
X154433406Y-105350000D01*
X154433406Y-103750000D01*
X154410605Y-103628821D01*
X154338988Y-103517526D01*
X154229714Y-103442862D01*
X154100000Y-103416594D01*
X153100000Y-103416594D01*
X152978821Y-103439395D01*
X152867526Y-103511012D01*
X152792862Y-103620286D01*
X152766594Y-103750000D01*
X152766594Y-103923000D01*
X151700000Y-103923000D01*
X151460058Y-103970727D01*
X151256644Y-104106644D01*
X144207031Y-111156257D01*
X144165495Y-111197721D01*
X144081855Y-110995297D01*
X143905631Y-110818765D01*
X143855533Y-110797962D01*
X143739943Y-110720728D01*
X143500000Y-110673000D01*
X142909712Y-110673000D01*
X136283406Y-104046694D01*
X136283406Y-103000000D01*
X136260605Y-102878821D01*
X136188988Y-102767526D01*
X136079714Y-102692862D01*
X135950000Y-102666594D01*
X134950000Y-102666594D01*
X134828821Y-102689395D01*
X134717526Y-102761012D01*
X134642862Y-102870286D01*
X134616594Y-103000000D01*
X134616594Y-104600000D01*
X134639395Y-104721179D01*
X134711012Y-104832474D01*
X134820286Y-104907138D01*
X134950000Y-104933406D01*
X135396694Y-104933406D01*
X141936288Y-111473000D01*
X140709712Y-111473000D01*
X133283406Y-104046694D01*
X133283406Y-103000000D01*
X133260605Y-102878821D01*
X133188988Y-102767526D01*
X133079714Y-102692862D01*
X132950000Y-102666594D01*
X131950000Y-102666594D01*
X131828821Y-102689395D01*
X131717526Y-102761012D01*
X131642862Y-102870286D01*
X131616594Y-103000000D01*
X131616594Y-104600000D01*
X131639395Y-104721179D01*
X131711012Y-104832474D01*
X131820286Y-104907138D01*
X131950000Y-104933406D01*
X132396694Y-104933406D01*
X140006644Y-112543356D01*
X140210057Y-112679272D01*
X140450000Y-112727000D01*
X141772976Y-112727000D01*
X141772891Y-112824171D01*
X141773000Y-112824435D01*
X141773000Y-113499453D01*
X141772891Y-113624171D01*
X141868145Y-113854703D01*
X142044369Y-114031235D01*
X142274735Y-114126891D01*
X142524171Y-114127109D01*
X142754703Y-114031855D01*
X142931235Y-113855631D01*
X143026891Y-113625265D01*
X143026989Y-113513562D01*
X143194369Y-113681235D01*
X143424735Y-113776891D01*
X143674171Y-113777109D01*
X143904703Y-113681855D01*
X144081235Y-113505631D01*
X144135345Y-113375320D01*
X144168145Y-113454703D01*
X144344369Y-113631235D01*
X144574735Y-113726891D01*
X144824171Y-113727109D01*
X145054703Y-113631855D01*
X145207612Y-113479212D01*
X145218145Y-113504703D01*
X145394369Y-113681235D01*
X145624735Y-113776891D01*
X145874171Y-113777109D01*
X146104703Y-113681855D01*
X146281235Y-113505631D01*
X146376891Y-113275265D01*
X146377109Y-113025829D01*
X146377000Y-113025565D01*
X146377000Y-112350000D01*
X146377109Y-112225829D01*
X146299269Y-112037443D01*
X151459712Y-106877000D01*
X155200000Y-106877000D01*
X155439943Y-106829272D01*
X155643356Y-106693356D01*
X156653306Y-105683406D01*
X156741305Y-105683406D01*
X147101712Y-115323000D01*
X140845416Y-115323000D01*
X140725265Y-115273109D01*
X140718393Y-115273103D01*
X126128696Y-100683406D01*
X127200000Y-100683406D01*
X127321179Y-100660605D01*
X127432474Y-100588988D01*
X127507138Y-100479714D01*
X127530556Y-100364071D01*
X127770875Y-100681933D01*
X128190624Y-100928286D01*
X128282391Y-100943462D01*
X128473000Y-100818731D01*
X128473000Y-99627000D01*
X128727000Y-99627000D01*
X128727000Y-100818731D01*
X128917609Y-100943462D01*
X129009376Y-100928286D01*
X129429125Y-100681933D01*
X129699610Y-100324171D01*
X134672891Y-100324171D01*
X134768145Y-100554703D01*
X134944369Y-100731235D01*
X135174735Y-100826891D01*
X135181607Y-100826897D01*
X135677355Y-101322645D01*
X135848325Y-101436885D01*
X135881785Y-101443540D01*
X136050000Y-101477000D01*
X155900000Y-101477000D01*
X155900435Y-101476913D01*
X156124171Y-101477109D01*
X156354703Y-101381855D01*
X156531235Y-101205631D01*
X156626891Y-100975265D01*
X156627109Y-100725829D01*
X156531855Y-100495297D01*
X156355631Y-100318765D01*
X156125265Y-100223109D01*
X155875829Y-100222891D01*
X155645297Y-100318145D01*
X155540259Y-100423000D01*
X148713661Y-100423000D01*
X148831235Y-100305631D01*
X148926891Y-100075265D01*
X148927109Y-99825829D01*
X148831855Y-99595297D01*
X148655631Y-99418765D01*
X148425265Y-99323109D01*
X148276848Y-99322979D01*
X146501935Y-97548065D01*
X146363406Y-97455503D01*
X146200000Y-97422999D01*
X146199995Y-97423000D01*
X146109684Y-97423000D01*
X146005631Y-97318765D01*
X145775265Y-97223109D01*
X145525829Y-97222891D01*
X145295297Y-97318145D01*
X145118765Y-97494369D01*
X145023109Y-97724735D01*
X145022891Y-97974171D01*
X145118145Y-98204703D01*
X145294369Y-98381235D01*
X145524735Y-98476891D01*
X145774171Y-98477109D01*
X146004703Y-98381855D01*
X146066398Y-98320268D01*
X147673020Y-99926889D01*
X147672891Y-100074171D01*
X147768145Y-100304703D01*
X147886236Y-100423000D01*
X136268290Y-100423000D01*
X135927104Y-100081814D01*
X135927109Y-100075829D01*
X135831855Y-99845297D01*
X135655631Y-99668765D01*
X135425265Y-99573109D01*
X135175829Y-99572891D01*
X134945297Y-99668145D01*
X134768765Y-99844369D01*
X134673109Y-100074735D01*
X134672891Y-100324171D01*
X129699610Y-100324171D01*
X129722647Y-100293701D01*
X129845256Y-99822696D01*
X129682547Y-99627000D01*
X128727000Y-99627000D01*
X128473000Y-99627000D01*
X128453000Y-99627000D01*
X128453000Y-99373000D01*
X128473000Y-99373000D01*
X128473000Y-98181269D01*
X128727000Y-98181269D01*
X128727000Y-99373000D01*
X129682547Y-99373000D01*
X129845256Y-99177304D01*
X129722647Y-98706299D01*
X129429125Y-98318067D01*
X129009376Y-98071714D01*
X128917609Y-98056538D01*
X128727000Y-98181269D01*
X128473000Y-98181269D01*
X128282391Y-98056538D01*
X128190624Y-98071714D01*
X127770875Y-98318067D01*
X127530718Y-98635715D01*
X127510605Y-98528821D01*
X127438988Y-98417526D01*
X127329714Y-98342862D01*
X127200000Y-98316594D01*
X126000000Y-98316594D01*
X125878821Y-98339395D01*
X125767526Y-98411012D01*
X125692862Y-98520286D01*
X125666594Y-98650000D01*
X125666594Y-100221304D01*
X125477000Y-100031710D01*
X125477000Y-96274171D01*
X148822891Y-96274171D01*
X148918145Y-96504703D01*
X149094369Y-96681235D01*
X149324735Y-96776891D01*
X149373063Y-96776933D01*
X149773020Y-97176890D01*
X149772891Y-97324171D01*
X149868145Y-97554703D01*
X150044369Y-97731235D01*
X150274735Y-97826891D01*
X150524171Y-97827109D01*
X150754703Y-97731855D01*
X150931235Y-97555631D01*
X151026891Y-97325265D01*
X151027109Y-97075829D01*
X150931855Y-96845297D01*
X150755631Y-96668765D01*
X150525265Y-96573109D01*
X150376849Y-96572979D01*
X150076893Y-96273023D01*
X150077109Y-96025829D01*
X149981855Y-95795297D01*
X149805631Y-95618765D01*
X149575265Y-95523109D01*
X149325829Y-95522891D01*
X149095297Y-95618145D01*
X148918765Y-95794369D01*
X148823109Y-96024735D01*
X148822891Y-96274171D01*
X125477000Y-96274171D01*
X125477000Y-96068290D01*
X125922645Y-95622645D01*
X126036885Y-95451675D01*
X126077000Y-95250000D01*
X126077000Y-93009859D01*
X126081235Y-93005631D01*
X126176891Y-92775265D01*
X126177109Y-92525829D01*
X126115614Y-92377000D01*
X136785128Y-92377000D01*
X136960062Y-92551933D01*
G36*
X143379400Y-67108711D02*
X143470029Y-67564334D01*
X143475704Y-67572827D01*
X141898065Y-69150465D01*
X141805503Y-69288994D01*
X141772999Y-69452400D01*
X141773000Y-69452405D01*
X141773000Y-88623143D01*
X141380359Y-89015783D01*
X141287797Y-89154312D01*
X141255293Y-89317718D01*
X141255294Y-89317723D01*
X141255294Y-89626504D01*
X141255293Y-89626509D01*
X141287797Y-89789915D01*
X141355324Y-89890976D01*
X141355184Y-90050679D01*
X141358232Y-90058055D01*
X141301935Y-89973801D01*
X140977000Y-89648866D01*
X140977000Y-67834208D01*
X141043677Y-67734419D01*
X141188119Y-67950592D01*
X141574377Y-68208682D01*
X142030000Y-68299311D01*
X142485623Y-68208682D01*
X142871881Y-67950592D01*
X143129971Y-67564334D01*
X143220600Y-67108711D01*
X143220600Y-67085277D01*
X143379400Y-66926477D01*
X143379400Y-67108711D01*
X143379400Y-67108711D01*
G37*
X143379400Y-67108711D02*
X143470029Y-67564334D01*
X143475704Y-67572827D01*
X141898065Y-69150465D01*
X141805503Y-69288994D01*
X141772999Y-69452400D01*
X141773000Y-69452405D01*
X141773000Y-88623143D01*
X141380359Y-89015783D01*
X141287797Y-89154312D01*
X141255293Y-89317718D01*
X141255294Y-89317723D01*
X141255294Y-89626504D01*
X141255293Y-89626509D01*
X141287797Y-89789915D01*
X141355324Y-89890976D01*
X141355184Y-90050679D01*
X141358232Y-90058055D01*
X141301935Y-89973801D01*
X140977000Y-89648866D01*
X140977000Y-67834208D01*
X141043677Y-67734419D01*
X141188119Y-67950592D01*
X141574377Y-68208682D01*
X142030000Y-68299311D01*
X142485623Y-68208682D01*
X142871881Y-67950592D01*
X143129971Y-67564334D01*
X143220600Y-67108711D01*
X143220600Y-67085277D01*
X143379400Y-66926477D01*
X143379400Y-67108711D01*
G36*
X145153365Y-73547062D02*
X144975265Y-73473109D01*
X144725829Y-73472891D01*
X144495297Y-73568145D01*
X144318765Y-73744369D01*
X144223109Y-73974735D01*
X144222891Y-74224171D01*
X144318145Y-74454703D01*
X144423000Y-74559741D01*
X144423000Y-88297395D01*
X143177698Y-89542697D01*
X143193300Y-89505122D01*
X143193431Y-89355690D01*
X143283948Y-89220221D01*
X143316451Y-89056815D01*
X143316451Y-70585412D01*
X145153365Y-68748497D01*
X145153365Y-73547062D01*
X145153365Y-73547062D01*
G37*
X145153365Y-73547062D02*
X144975265Y-73473109D01*
X144725829Y-73472891D01*
X144495297Y-73568145D01*
X144318765Y-73744369D01*
X144223109Y-73974735D01*
X144222891Y-74224171D01*
X144318145Y-74454703D01*
X144423000Y-74559741D01*
X144423000Y-88297395D01*
X143177698Y-89542697D01*
X143193300Y-89505122D01*
X143193431Y-89355690D01*
X143283948Y-89220221D01*
X143316451Y-89056815D01*
X143316451Y-70585412D01*
X145153365Y-68748497D01*
X145153365Y-73547062D01*
G36*
X151292281Y-49140392D02*
X154434965Y-51240266D01*
X156549704Y-54405196D01*
X156724065Y-54859535D01*
X162602170Y-71467572D01*
X162492292Y-71387007D01*
X161983296Y-71262460D01*
X161465382Y-71342178D01*
X161415934Y-71360176D01*
X160967951Y-71632023D01*
X160658101Y-72054613D01*
X160533554Y-72563609D01*
X160613272Y-73081522D01*
X160885119Y-73529505D01*
X161307709Y-73839355D01*
X161728971Y-73942434D01*
X161396325Y-74063508D01*
X159227000Y-71894183D01*
X159227000Y-70750000D01*
X159186885Y-70548325D01*
X159072645Y-70377355D01*
X156577000Y-67881710D01*
X156577000Y-61850000D01*
X156536885Y-61648326D01*
X156536885Y-61648325D01*
X156422645Y-61477355D01*
X151622645Y-56677355D01*
X151451675Y-56563115D01*
X151250000Y-56523000D01*
X147952291Y-56523000D01*
X143488696Y-52059406D01*
X143826000Y-52059406D01*
X143947179Y-52036605D01*
X144058474Y-51964988D01*
X144133138Y-51855714D01*
X144159406Y-51726000D01*
X144159406Y-51519907D01*
X144270356Y-51685955D01*
X144706056Y-51977081D01*
X145220000Y-52079311D01*
X145733944Y-51977081D01*
X146169644Y-51685955D01*
X146460770Y-51250255D01*
X146563000Y-50736311D01*
X146563000Y-50683689D01*
X146460770Y-50169745D01*
X146169644Y-49734045D01*
X145733944Y-49442919D01*
X145220000Y-49340689D01*
X144706056Y-49442919D01*
X144270356Y-49734045D01*
X144159406Y-49900093D01*
X144159406Y-49694000D01*
X144136605Y-49572821D01*
X144064988Y-49461526D01*
X143955714Y-49386862D01*
X143826000Y-49360594D01*
X141794000Y-49360594D01*
X141672821Y-49383395D01*
X141561526Y-49455012D01*
X141486862Y-49564286D01*
X141460594Y-49694000D01*
X141460594Y-50183000D01*
X141394000Y-50183000D01*
X141192326Y-50223115D01*
X141192324Y-50223116D01*
X141192325Y-50223116D01*
X141021354Y-50337355D01*
X133377355Y-57981355D01*
X133263115Y-58152325D01*
X133253365Y-58201344D01*
X129727355Y-61727355D01*
X129613115Y-61898325D01*
X129613115Y-61898326D01*
X129573000Y-62100000D01*
X129573000Y-72031710D01*
X127216261Y-74388449D01*
X127216808Y-74385127D01*
X127187575Y-74256049D01*
X127110427Y-74148514D01*
X126997521Y-74079466D01*
X126621030Y-73942434D01*
X127042292Y-73839355D01*
X127464881Y-73529505D01*
X127736728Y-73081522D01*
X127816446Y-72563609D01*
X127691899Y-72054613D01*
X127382049Y-71632023D01*
X126934066Y-71360176D01*
X126884618Y-71342178D01*
X126366705Y-71262460D01*
X125857709Y-71387007D01*
X125599280Y-71576492D01*
X131507130Y-54884413D01*
X133454854Y-51609341D01*
X136482956Y-49347365D01*
X140172106Y-48409785D01*
X140658793Y-48397000D01*
X147554995Y-48397000D01*
X151292281Y-49140392D01*
X151292281Y-49140392D01*
G37*
X151292281Y-49140392D02*
X154434965Y-51240266D01*
X156549704Y-54405196D01*
X156724065Y-54859535D01*
X162602170Y-71467572D01*
X162492292Y-71387007D01*
X161983296Y-71262460D01*
X161465382Y-71342178D01*
X161415934Y-71360176D01*
X160967951Y-71632023D01*
X160658101Y-72054613D01*
X160533554Y-72563609D01*
X160613272Y-73081522D01*
X160885119Y-73529505D01*
X161307709Y-73839355D01*
X161728971Y-73942434D01*
X161396325Y-74063508D01*
X159227000Y-71894183D01*
X159227000Y-70750000D01*
X159186885Y-70548325D01*
X159072645Y-70377355D01*
X156577000Y-67881710D01*
X156577000Y-61850000D01*
X156536885Y-61648326D01*
X156536885Y-61648325D01*
X156422645Y-61477355D01*
X151622645Y-56677355D01*
X151451675Y-56563115D01*
X151250000Y-56523000D01*
X147952291Y-56523000D01*
X143488696Y-52059406D01*
X143826000Y-52059406D01*
X143947179Y-52036605D01*
X144058474Y-51964988D01*
X144133138Y-51855714D01*
X144159406Y-51726000D01*
X144159406Y-51519907D01*
X144270356Y-51685955D01*
X144706056Y-51977081D01*
X145220000Y-52079311D01*
X145733944Y-51977081D01*
X146169644Y-51685955D01*
X146460770Y-51250255D01*
X146563000Y-50736311D01*
X146563000Y-50683689D01*
X146460770Y-50169745D01*
X146169644Y-49734045D01*
X145733944Y-49442919D01*
X145220000Y-49340689D01*
X144706056Y-49442919D01*
X144270356Y-49734045D01*
X144159406Y-49900093D01*
X144159406Y-49694000D01*
X144136605Y-49572821D01*
X144064988Y-49461526D01*
X143955714Y-49386862D01*
X143826000Y-49360594D01*
X141794000Y-49360594D01*
X141672821Y-49383395D01*
X141561526Y-49455012D01*
X141486862Y-49564286D01*
X141460594Y-49694000D01*
X141460594Y-50183000D01*
X141394000Y-50183000D01*
X141192326Y-50223115D01*
X141192324Y-50223116D01*
X141192325Y-50223116D01*
X141021354Y-50337355D01*
X133377355Y-57981355D01*
X133263115Y-58152325D01*
X133253365Y-58201344D01*
X129727355Y-61727355D01*
X129613115Y-61898325D01*
X129613115Y-61898326D01*
X129573000Y-62100000D01*
X129573000Y-72031710D01*
X127216261Y-74388449D01*
X127216808Y-74385127D01*
X127187575Y-74256049D01*
X127110427Y-74148514D01*
X126997521Y-74079466D01*
X126621030Y-73942434D01*
X127042292Y-73839355D01*
X127464881Y-73529505D01*
X127736728Y-73081522D01*
X127816446Y-72563609D01*
X127691899Y-72054613D01*
X127382049Y-71632023D01*
X126934066Y-71360176D01*
X126884618Y-71342178D01*
X126366705Y-71262460D01*
X125857709Y-71387007D01*
X125599280Y-71576492D01*
X131507130Y-54884413D01*
X133454854Y-51609341D01*
X136482956Y-49347365D01*
X140172106Y-48409785D01*
X140658793Y-48397000D01*
X147554995Y-48397000D01*
X151292281Y-49140392D01*
M02*
