M48
;DRILL file {KiCad 4.0.4-stable} date 10/27/17 11:41:06
;FORMAT={-:-/ absolute / inch / decimal}
FMAT,2
INCH,TZ
T1C0.016
T2C0.026
T3C0.028
T4C0.033
T5C0.040
T6C0.045
T7C0.094
T8C0.100
%
G90
G05
M72
T1
X4.6713Y-3.7579
X4.7835Y-4.0256
X4.8307Y-3.4272
X4.9272Y-3.4921
X4.9272Y-3.5866
X4.9429Y-3.6476
X4.9902Y-3.0591
X4.9953Y-3.3846
X5.0866Y-2.7618
X5.1083Y-3.3957
X5.1398Y-4.7008
X5.1693Y-3.1063
X5.1713Y-3.2146
X5.2195Y-3.5738
X5.2224Y-3.3563
X5.2264Y-3.5965
X5.2756Y-4.5098
X5.2913Y-4.4055
X5.3256Y-2.8244
X5.3268Y-3.9449
X5.4154Y-3.6083
X5.4154Y-3.6673
X5.4331Y-3.5433
X5.4488Y-4.3898
X5.4528Y-4.439
X5.4764Y-3.8287
X5.4803Y-4.1201
X5.5354Y-4.563
X5.5354Y-4.626
X5.5374Y-4.2441
X5.5374Y-4.2441
X5.5512Y-3.5709
X5.5591Y-3.0335
X5.5591Y-3.1909
X5.565Y-3.6043
X5.5899Y-3.5404
X5.6063Y-4.4134
X5.6063Y-4.437
X5.6063Y-4.4685
X5.6129Y-3.5189
X5.6161Y-2.3366
X5.6516Y-4.3839
X5.6516Y-4.4173
X5.6516Y-4.4547
X5.6669Y-3.4623
X5.6752Y-3.8268
X5.6752Y-3.8268
X5.6791Y-3.3471
X5.6949Y-4.3937
X5.6969Y-4.4213
X5.6969Y-4.4528
X5.7028Y-2.9173
X5.7343Y-3.8524
X5.7382Y-4.3976
X5.7382Y-4.4232
X5.7382Y-4.4547
X5.7433Y-3.5341
X5.7539Y-4.2362
X5.7539Y-4.2362
X5.7579Y-3.5062
X5.7618Y-3.5965
X5.7815Y-3.2343
X5.8051Y-3.8248
X5.8169Y-3.1949
X5.8268Y-2.0669
X5.8386Y-3.935
X5.8839Y-3.7854
X5.8937Y-3.4843
X5.8976Y-4.748
X5.9075Y-3.3661
X5.9213Y-3.8268
X5.9523Y-3.2903
X5.9626Y-3.6083
X5.9961Y-3.561
X6.0689Y-3.6417
X6.1417Y-3.9705
X6.1654Y-3.8799
X6.1772Y-3.1772
X6.2461Y-3.376
X6.2461Y-3.6673
X6.378Y-3.4843
X6.4921Y-3.4547
X6.6476Y-4.0492
T2
X5.202Y-2.5795
X5.202Y-2.6295
X5.202Y-2.6795
X5.202Y-2.7295
X5.202Y-2.7795
X5.252Y-2.5795
X5.252Y-2.6295
X5.252Y-2.6795
X5.252Y-2.7295
X5.252Y-2.7795
T3
X4.9843Y-3.9173
X5.063Y-3.9173
T4
X6.4204Y-3.4298
X6.4877Y-3.6147
T5
X4.5925Y-4.5319
X4.5925Y-4.6319
X4.5925Y-4.7319
X4.9441Y-2.9528
X4.9783Y-2.8588
X5.3917Y-2.635
X5.4917Y-2.635
X5.5917Y-2.635
X5.6224Y-1.9965
X5.6394Y-4.7681
X5.6917Y-2.635
X5.7173Y-1.9965
X5.7394Y-4.7681
X5.7917Y-2.635
X5.8917Y-2.635
X5.9917Y-2.635
X6.374Y-2.8588
X6.4082Y-2.9528
T6
X6.5068Y-3.3564
X6.601Y-3.6154
T7
X5.424Y-2.3421
X5.9539Y-2.3421
T8
X4.8732Y-4.3701
X5.1732Y-4.3622
X6.2831Y-4.3701
X6.5831Y-4.3622
T0
M30
